<?xml version="1.0" encoding="UTF-8" standalone="no"?>
<svg width="55px" height="68px" viewBox="0 0 55 68" version="1.1" xmlns="http://www.w3.org/2000/svg" xmlns:xlink="http://www.w3.org/1999/xlink">
    <!-- Generator: sketchtool 40.1 (33804) - http://www.bohemiancoding.com/sketch -->
    <title>667D6363-FC28-46BA-90A0-70AA7D6FF8C9</title>
    <desc>Created with sketchtool.</desc>
    <defs></defs>
    <g id="Page-1" stroke="none" stroke-width="1" fill="none" fill-rule="evenodd">
        <g id="portfolio-copy" transform="translate(-541.000000, -2209.000000)" fill="#BEC7CC">
            <g id="Skill" transform="translate(90.000000, 1702.000000)">
                <g id="skills" transform="translate(0.000000, 350.000000)">
                    <g id="Tools" transform="translate(2.000000, 157.000000)">
                        <g id="apple-original" transform="translate(449.000000, 0.000000)">
                            <path d="M45.7813167,36.064818 C45.8751386,46.2018977 54.6749866,49.5757119 54.7720437,49.6188484 C54.6976332,49.8560993 53.3663327,54.4264124 50.1364866,59.1460858 C47.344476,63.2267996 44.4462418,67.2924156 39.8818598,67.3776102 C35.3967413,67.4595696 33.9543642,64.717166 28.8259725,64.717166 C23.6991983,64.717166 22.0972162,67.2924156 17.850966,67.4595696 C13.4445716,67.6267235 10.0890904,63.0461654 7.27389391,58.9810886 C1.52164037,50.6643696 -2.87450915,35.4797791 3.02818297,25.2300052 C5.9603872,20.1398971 11.2014731,16.9170606 16.8895611,16.8340228 C21.216153,16.7515243 25.300102,19.7446588 27.9449093,19.7446588 C30.5880989,19.7446588 35.5509543,16.1449171 40.7683151,16.6733393 C42.9526401,16.7644652 49.0834165,17.5554809 53.0201622,23.3185186 C52.7036481,23.5153289 45.7052886,27.5895723 45.7813167,36.064818 M37.3519036,11.1718168 C39.6909808,8.34044411 41.2654634,4.39776714 40.8362551,0.476119223 C37.4640585,0.611460022 33.3865799,2.72299216 30.9682394,5.55328639 C28.8006298,8.05897838 26.9026233,12.0706738 27.4143302,15.914676 C31.1731378,16.2058474 35.0122871,14.004807 37.3519036,11.1718168" id="Shape"></path>
                        </g>
                    </g>
                </g>
            </g>
        </g>
    </g>
</svg>