<?xml version="1.0" encoding="UTF-8" standalone="no"?>
<svg width="60px" height="60px" viewBox="0 0 60 60" version="1.1" xmlns="http://www.w3.org/2000/svg" xmlns:xlink="http://www.w3.org/1999/xlink">
    <!-- Generator: sketchtool 40.1 (33804) - http://www.bohemiancoding.com/sketch -->
    <title>CAD7328F-08FF-462A-8AED-CF94F0184E3F</title>
    <desc>Created with sketchtool.</desc>
    <defs></defs>
    <g id="Page-1" stroke="none" stroke-width="1" fill="none" fill-rule="evenodd">
        <g id="portfolio-copy" transform="translate(-672.000000, -2095.000000)" fill="#5B4282">
            <g id="Skill" transform="translate(90.000000, 1702.000000)">
                <g id="skills" transform="translate(0.000000, 350.000000)">
                    <g id="languages">
                        <g id="bootstrap-plain" transform="translate(582.000000, 43.000000)">
                            <path d="M35.85648,30.52944 C34.73616,30.1608 33.12336,30.24 31.01808,30.24 L22.56,30.24 L22.56,41.28 L31.60512,41.28 C33.01824,41.28 34.01088,41.1288 34.58256,41.0232 C35.59008,40.84272 36.43248,40.49328 37.10928,40.07184 C37.7856,39.65136 38.34192,39.01344 38.77872,38.20896 C39.21456,37.40448 39.43296,36.4632 39.43296,35.41056 C39.43296,34.17792 39.11712,33.23136 38.48496,32.32128 C37.85328,31.4112 36.97728,30.89808 35.85648,30.52944 L35.85648,30.52944 Z M34.69536,25.48176 C35.80752,25.15152 36.64608,24.57456 37.21008,23.808 C37.77456,23.04096 38.05632,22.06512 38.05632,20.90688 C38.05632,19.8096 37.7928,18.83616 37.26624,18.00096 C36.73968,17.16576 35.98848,16.84272 35.01072,16.53408 C34.03296,16.2264 32.35632,16.32 29.98032,16.32 L22.56,16.32 L22.56,25.92 L30.52176,25.92 C32.46192,25.92 33.85248,25.7376 34.69536,25.48176 L34.69536,25.48176 Z M60,7.98 C60,3.57264 56.42736,0 52.02,0 L7.98,0 C3.57264,0 0,3.57264 0,7.98 L0,52.02 C0,56.42736 3.57264,60 7.98,60 L52.02,60 C56.42736,60 60,56.42736 60,52.02 L60,7.98 L60,7.98 Z M42.98544,39.7176 C42.33168,41.04864 41.52288,42.07488 40.56048,42.7968 C39.5976,43.51872 38.3904,44.1312 36.93936,44.49984 C35.4888,44.86896 33.70992,45.12 31.60512,45.12 L18.24,45.12 L18.24,12 L31.4016,12 C33.92832,12 35.9544,12.29232 37.4808,12.96096 C39.00768,13.63056 40.20288,14.63952 41.06832,16.03056 C41.9328,17.4216 42.36528,18.86592 42.36528,20.38464 C42.36528,21.79824 41.98128,23.12448 41.21472,24.37248 C40.44768,25.62144 39.28944,26.6256 37.74096,27.39264 C39.74064,27.9792 41.27856,28.97856 42.35376,30.39168 C43.42896,31.80528 43.96656,33.47424 43.96656,35.39904 C43.96656,36.948 43.63968,38.38704 42.98544,39.7176 L42.98544,39.7176 Z" id="Shape"></path>
                        </g>
                    </g>
                </g>
            </g>
        </g>
    </g>
</svg>