<?xml version="1.0" encoding="UTF-8" standalone="no"?>
<svg width="40px" height="32px" viewBox="0 0 40 32" version="1.1" xmlns="http://www.w3.org/2000/svg" xmlns:xlink="http://www.w3.org/1999/xlink">
    <!-- Generator: sketchtool 40.1 (33804) - http://www.bohemiancoding.com/sketch -->
    <title>0F7380CF-DD19-4650-AC94-021858BD31EB</title>
    <desc>Created with sketchtool.</desc>
    <defs></defs>
    <g id="Page-1" stroke="none" stroke-width="1" fill="none" fill-rule="evenodd">
        <g id="portfolio-copy" transform="translate(-538.000000, -2491.000000)" fill="#EAECFA">
            <g id="Experience" transform="translate(-9.000000, 2290.000000)">
                <g id="heading" transform="translate(547.000000, 187.000000)">
                    <g id="briefcase-frontal-view" transform="translate(0.000000, 14.000000)">
                        <g id="Capa_1">
                            <g id="Layer_8_4_">
                                <path d="M10.4247028,13.4922802 L10.4247028,14.7312027 L28.2415206,14.7312027 L28.2415206,13.4922802 L32.8536593,13.4922802 L32.8536593,14.7312027 L35.8951823,14.7312027 C37.9070535,14.7312027 39.5823045,13.2749093 39.9297807,11.3619114 L39.9297807,4.04512037 L26.6200486,4.04512037 L26.6200486,0.826894755 C26.6200486,0.408520414 26.2805057,0.0687269625 25.8618808,0.0687269625 L14.1528273,0.0687269625 C13.7342025,0.0687269625 13.3946595,0.408520414 13.3946595,0.826894755 L13.3946595,4.04512037 L0,4.04512037 L0,12.0149428 C0.570609155,13.5964145 2.08201778,14.7316202 3.85789577,14.7316202 L5.81256407,14.7316202 L5.81256407,13.4926977 L10.4247028,13.4922802 L10.4247028,13.4922802 L10.4247028,13.4922802 Z M14.9110786,1.5845615 L25.1037966,1.5845615 L25.1037966,4.04461932 L14.9110786,4.04461932 L14.9110786,1.5845615 L14.9110786,1.5845615 Z M32.8537428,18.9260527 L32.8537428,15.7420653 L35.8952658,15.7420653 C37.535026,15.7420653 38.9930731,14.9631875 39.9298642,13.7595888 L39.9298642,31.8443834 L0,31.8443834 L0,13.9750391 C0.938544753,15.0550462 2.31842851,15.7420653 3.85789577,15.7420653 L5.81256407,15.7420653 L5.81256407,18.9260527 L10.4247028,18.9260527 L10.4247028,15.7420653 L28.2415206,15.7420653 L28.2415206,18.9260527 L32.8537428,18.9260527 L32.8537428,18.9260527 Z" id="Shape"></path>
                            </g>
                        </g>
                    </g>
                </g>
            </g>
        </g>
    </g>
</svg>