<?xml version="1.0" encoding="UTF-8" standalone="no"?>
<svg width="59px" height="59px" viewBox="0 0 59 59" version="1.1" xmlns="http://www.w3.org/2000/svg" xmlns:xlink="http://www.w3.org/1999/xlink">
    <!-- Generator: sketchtool 40.1 (33804) - http://www.bohemiancoding.com/sketch -->
    <title>26508EB4-9C6B-4DFD-AFFA-75BBA6DFD766</title>
    <desc>Created with sketchtool.</desc>
    <defs></defs>
    <g id="Page-1" stroke="none" stroke-width="1" fill="none" fill-rule="evenodd">
        <g id="portfolio-copy" transform="translate(-641.000000, -2218.000000)" fill="#F34F29">
            <g id="Skill" transform="translate(90.000000, 1702.000000)">
                <g id="skills" transform="translate(0.000000, 350.000000)">
                    <g id="Tools" transform="translate(2.000000, 157.000000)">
                        <g id="git-plain" transform="translate(549.000000, 9.000000)">
                            <path d="M57.8225608,26.8353611 L32.0968897,1.11109023 C30.6163695,-0.37036341 28.2135581,-0.37036341 26.7307042,1.11109023 L21.3897232,6.45347156 L28.16595,13.2296984 C29.7412197,12.698074 31.5465954,13.0546684 32.801677,14.30975 C34.063293,15.5727662 34.4175536,17.3935446 33.8719269,18.9739485 L40.402645,25.5056001 C41.9825822,24.9609069 43.8061611,25.3128338 45.0673103,26.5767835 C46.8316124,28.3396854 46.8316124,31.1975747 45.0673103,32.96141 C43.3030083,34.725712 40.4460524,34.725712 38.6808169,32.96141 C37.3543231,31.6339827 37.0262003,29.6853157 37.6983153,28.0507692 L31.608206,21.9601931 L31.6072725,37.9887374 C32.0376128,38.2011071 32.4432156,38.484889 32.801677,38.8419501 C34.5655123,40.6048519 34.5655123,43.4618078 32.801677,45.2284436 C31.0378417,46.9913454 28.1790189,46.9913454 26.4170505,45.2284436 C24.653682,43.4622745 24.5089905,40.6053187 26.2718924,38.8419501 C26.7078337,38.4064756 27.1377073,38.0774192 27.6044538,37.8571148 L27.6044538,21.6801452 C27.1377073,21.4598408 26.7083004,21.1331182 26.2714256,20.6948432 C24.9360637,19.3599479 24.6863542,17.3996123 25.3715382,15.7585313 L18.7283342,9.07798757 L1.10678385,26.7163408 C-0.375136537,28.1991946 -0.365801605,30.602006 1.11611878,32.0839264 L26.8459907,57.8081973 C28.3269775,59.289651 30.7316559,59.289651 32.2149765,57.8081973 L57.8206938,32.2034135 C59.3026142,30.7210264 59.3040145,28.3168148 57.8225608,26.8353611 L57.8225608,26.8353611 Z" id="Shape"></path>
                        </g>
                    </g>
                </g>
            </g>
        </g>
    </g>
</svg>