<?xml version="1.0" encoding="UTF-8" standalone="no"?>
<svg width="55px" height="122px" viewBox="0 0 55 122" version="1.1" xmlns="http://www.w3.org/2000/svg" xmlns:xlink="http://www.w3.org/1999/xlink">
    <!-- Generator: sketchtool 40.1 (33804) - http://www.bohemiancoding.com/sketch -->
    <title>1E2948A5-C41F-4313-A503-7F7DAE89CA7A</title>
    <desc>Created with sketchtool.</desc>
    <defs></defs>
    <g id="Page-1" stroke="none" stroke-width="1" fill="none" fill-rule="evenodd">
        <g id="portfolio-copy" transform="translate(-1092.000000, -2052.000000)" fill="#EB4A4B">
            <g id="Skill" transform="translate(90.000000, 1702.000000)">
                <g id="skills" transform="translate(0.000000, 350.000000)">
                    <g id="languages">
                        <g id="gulp-plain" transform="translate(1002.000808, 0.000000)">
                            <path d="M0.947767857,32.8615179 C1.80910714,41.9286607 2.66357143,50.9447321 3.53767857,60.163125 C4.96276786,57.7126786 5.99401786,55.3624107 7.54973214,53.4374107 C8.99839286,51.6440179 10.8241964,49.9891071 12.8110714,48.8429464 C15.4049107,47.3461607 18.8060714,48.7555357 19.6467857,51.4102679 C19.8726786,52.1223214 19.3334821,53.0769643 19.1449107,53.920625 C18.5104464,53.5857143 17.6923214,53.4010714 17.2778571,52.8883929 C15.516875,50.7109821 14.4561607,50.4536607 12.5085714,52.3354464 C8.875625,55.8475893 6.83276786,60.2475893 6.05294643,65.1926786 C5.90267857,66.1492857 6.50080357,67.2227679 6.75321429,68.2422321 C7.74616071,67.9004464 8.89919643,67.7747321 9.70160714,67.1775893 C12.3101786,65.2358929 13.9267857,62.5949107 14.8185714,59.4383036 C15.0120536,58.7547321 16.0609821,58.31375 16.7170536,57.7608036 C17.0313393,58.4070536 17.7483036,59.1682143 17.5980357,59.6799107 C16.2161607,64.4334821 14.7164286,69.1566071 13.1430357,73.85125 C12.9839286,74.3266071 12.1108036,74.5633036 11.5676786,74.9109821 C11.3486607,74.2863393 10.8880357,73.6322321 10.9616964,73.0439286 C11.1266964,71.7101786 11.5558929,70.4088393 11.8554464,69.1870536 L4.74473214,72.4605357 C5.1425,77 5.555,82.0924107 6.04410714,87.1779464 C6.41928571,91.0613393 7.05473214,92.0670536 10.8791964,92.8036607 C15.3420536,93.6630357 19.8883929,94.2120536 24.4249107,94.5459821 C31.1280357,95.04 37.7722321,94.4291071 44.2936607,92.6759821 C46.7215179,92.0238393 47.6899107,90.426875 47.86375,88.0432143 C48.0228571,85.848125 48.3783929,83.6667857 48.6249107,81.4775893 C49.1091071,77.165 49.5795536,72.8514286 50.0745536,68.358125 C48.4373214,69.3952679 47.1497321,70.5561607 45.6441071,71.0482143 C44.5480357,71.4066964 43.1651786,70.8822321 41.9090179,70.750625 C42.1496429,69.5975893 42.1349107,68.2982143 42.6908036,67.3258929 C43.5963393,65.7367857 44.8750893,64.3588393 45.9947321,62.8915179 L45.5125,62.3110714 C44.7100893,62.7854464 43.7132143,63.0967857 43.1425893,63.7695536 C41.9816964,65.1386607 40.8453571,66.6040179 40.0684821,68.2088393 C38.768125,70.895 37.7771429,73.7304464 36.6133036,76.484375 C36.1075,77.6786607 35.6714286,79.5054464 33.9772321,78.808125 C32.1651786,78.0607143 33.44,76.4647321 33.8652679,75.329375 C34.5419643,73.5183036 35.4357143,71.7877679 36.0407143,70.4559821 C34.3258929,70.6602679 32.5875,70.9067857 30.84125,71.0590179 C30.1026786,71.121875 29.2246429,70.7172321 28.620625,70.9902679 C26.6121429,71.8977679 25.3392857,71.5333929 24.921875,69.3098214 C23.9917857,69.9138393 23.2041071,70.7319643 22.2759821,70.9519643 C21.1494643,71.2200893 19.62125,71.3958929 18.79625,70.833125 C18.1352679,70.3823214 17.8946429,68.688125 18.1205357,67.6941964 C18.569375,65.718125 19.408125,63.8186607 20.2046429,61.9398214 C20.6976786,60.7759821 21.1936607,58.9177679 22.8574107,59.7270536 C24.5015179,60.5255357 23.0086607,61.8730357 22.6295536,62.954375 C22.04125,64.6259821 21.4421429,66.2946429 20.8489286,67.9642857 L21.7917857,68.5339286 C22.6894643,67.7541071 23.808125,67.1186607 24.4366964,66.1620536 C25.4659821,64.5984821 26.0876786,62.7716964 27.0619643,61.166875 C27.465625,60.5019643 28.3348214,60.1208929 28.9938393,59.6111607 C29.1274107,60.4577679 29.4475893,61.3279464 29.3415179,62.1450893 C29.2364286,62.9710714 28.6559821,63.7263393 28.3780357,64.5434821 C27.960625,65.7672321 27.62375,67.0184821 27.1994643,68.4416071 C29.2059821,68.5182143 30.0653571,67.6735714 30.6320536,66.1836607 C32.4254464,61.47625 34.2384821,56.77375 36.2096429,52.1390179 C36.5465179,51.3454464 37.6916964,50.8975893 38.4646429,50.2886607 C38.5540179,51.2452679 38.9802679,52.3295536 38.6767857,53.1358929 C37.0611607,57.4072321 35.2471429,61.6019643 33.5421429,65.8399107 C33.254375,66.5539286 33.1620536,67.3465179 32.9803571,68.1027679 C35.9847321,66.7523214 38.4921429,65.2594643 39.4075,62.0665179 C39.6314286,61.290625 40.54875,60.7141071 41.146875,60.0452679 L42.5375893,61.5184821 C42.9599107,61.1629464 43.346875,60.7583036 43.8055357,60.4626786 C45.2492857,59.5325893 46.8040179,58.7125 48.3263393,60.1533036 C49.9016964,61.6432143 48.709375,63.0948214 47.8863393,64.3833929 C46.990625,65.7888393 45.8935714,67.0646429 44.8839286,68.3964286 C47.1546429,66.9330357 50.2552679,66.2769643 50.6677679,63.1144643 C51.6734821,55.3899107 52.5574107,47.6496429 53.4541071,39.9113393 C53.7202679,37.6209821 53.8626786,35.3158929 54.0699107,32.9292857 C36.1850893,37.2595536 18.6842857,37.2860714 0.947767857,32.8615179 L0.947767857,32.8615179 Z M8.62419643,93.1346429 C9.48553571,95.4102679 10.79375,97.645625 11.1365179,100.020446 C11.8603571,105.075536 12.0440179,110.207232 12.5566964,115.296696 C12.6313393,116.038214 13.1116071,117.056696 13.7107143,117.382768 C22.5303571,122.175625 31.4354464,123.006518 40.4338393,117.764821 C41.7764286,116.983036 42.0249107,115.950804 42.19875,114.499196 C43.0404464,107.446429 41.1665179,99.9654464 45.6755357,93.3241964 C33.0491071,96.45625 20.7261607,96.5534821 8.62419643,93.1346429 L8.62419643,93.1346429 Z M39.0617857,34.1275 C43.3458929,33.7140179 47.5779464,32.7083036 51.8149107,31.8774107 C52.6133929,31.72125 53.3225,31.1133036 54.0728571,30.7135714 C53.0838393,29.844375 52.2283929,29.4259821 51.3346429,29.3208929 C46.8855357,28.7954464 42.4207143,28.3908036 37.9745536,27.8398214 C37.3027679,27.7563393 36.1035714,26.9274107 36.1536607,26.7761607 C37.4510714,22.8672321 37.3872321,18.4426786 40.3316964,15.1485714 C44.0530357,10.9842857 47.8126786,6.85633929 51.5438393,2.72642857 C48.7683036,-0.259285714 48.7309821,-0.263214286 46.2157143,2.35026786 C44.7935714,3.82741071 43.4941964,5.44401786 41.95125,6.78169643 C36.2420536,11.7297321 32.2319643,17.5901786 31.4501786,25.3166964 C31.2704464,27.0894643 30.2971429,27.7298214 28.4359821,27.7573214 C22.2916964,27.8466964 16.1405357,28.015625 10.01,28.4192857 C6.97223214,28.6186607 3.97178571,29.3984821 0.953660714,29.9150893 L0.926160714,31.0435714 C2.81482143,31.6259821 4.66714286,32.3910714 6.59607143,32.7613393 C17.3446429,34.821875 28.194375,35.1754464 39.0617857,34.1275 L39.0617857,34.1275 Z M35.6282143,31.4285714 C33.1954464,33.3928571 31.185,33.3928571 29.2433036,31.4285714 L35.6282143,31.4285714 L35.6282143,31.4285714 Z" id="Shape"></path>
                        </g>
                    </g>
                </g>
            </g>
        </g>
    </g>
</svg>