<?xml version="1.0" encoding="UTF-8" standalone="no"?>
<svg width="50px" height="70px" viewBox="0 0 50 70" version="1.1" xmlns="http://www.w3.org/2000/svg" xmlns:xlink="http://www.w3.org/1999/xlink">
    <!-- Generator: sketchtool 40.1 (33804) - http://www.bohemiancoding.com/sketch -->
    <title>DCA7DFE9-B183-418F-8B03-62839FB0C5F8</title>
    <desc>Created with sketchtool.</desc>
    <defs></defs>
    <g id="Page-1" stroke="none" stroke-width="1" fill="none" fill-rule="evenodd">
        <g id="portfolio-copy" transform="translate(-357.000000, -2085.000000)" fill="#E44D26">
            <g id="Skill" transform="translate(90.000000, 1702.000000)">
                <g id="skills" transform="translate(0.000000, 350.000000)">
                    <g id="languages">
                        <g id="html5-plain-wordmark" transform="translate(267.000000, 33.000000)">
                            <path d="M0.316111111,14.4444444 L4.80888889,64.3994444 L24.9694444,69.7783333 L45.1861111,64.5011111 L49.6838889,14.4444444 L0.316111111,14.4444444 L0.316111111,14.4444444 Z M40.3388889,25.8172222 L40.0572222,29.0583333 L39.9333333,30.5555556 L16.2838889,30.5555556 L16.8488889,37.2222222 L39.3711111,37.2222222 L39.2205556,38.4616667 L37.7677778,54.5222222 L37.6611111,55.4611111 L25,58.8688889 L25,58.8661111 L24.985,58.8727778 L12.3311111,55.5861111 L11.4722222,46.1111111 L17.6766667,46.1111111 L18.1161111,50.8111111 L24.9966667,52.555 L25,52.425 L25,52.4316667 L31.8955556,50.96 L32.6155556,43.3333333 L11.1961111,43.3333333 L9.67722222,26.2022222 L9.52888889,24.4444444 L40.4866667,24.4444444 L40.3388889,25.8172222 L40.3388889,25.8172222 Z M4.97555556,0.348333333 L8.09888889,0.348333333 L8.09888889,3.435 L10.9566667,3.435 L10.9566667,0.348333333 L14.0805556,0.348333333 L14.0805556,9.69388889 L10.9566667,9.69388889 L10.9566667,6.56444444 L8.09944444,6.56444444 L8.09944444,9.69388889 L4.97555556,9.69388889 L4.97555556,0.348333333 L4.97555556,0.348333333 Z M18.1877778,3.44777778 L15.4377778,3.44777778 L15.4377778,0.348333333 L24.0627778,0.348333333 L24.0627778,3.44777778 L21.3116667,3.44777778 L21.3116667,9.69388889 L18.1877778,9.69388889 L18.1877778,3.44777778 L18.1877778,3.44777778 Z M25.4316667,0.348333333 L28.6883333,0.348333333 L30.6922222,3.63222222 L32.6938889,0.348333333 L35.9522222,0.348333333 L35.9522222,9.69388889 L32.8405556,9.69388889 L32.8405556,5.06166667 L30.6922222,8.38444444 L30.6377778,8.38444444 L28.4877778,5.06166667 L28.4877778,9.69388889 L25.4311111,9.69388889 L25.4311111,0.348333333 L25.4316667,0.348333333 Z M37.5072222,0.348333333 L40.6316667,0.348333333 L40.6316667,6.605 L45.0244444,6.605 L45.0244444,9.69444444 L37.5072222,9.69444444 L37.5072222,0.348333333 L37.5072222,0.348333333 Z" id="Shape"></path>
                        </g>
                    </g>
                </g>
            </g>
        </g>
    </g>
</svg>