<?xml version="1.0" encoding="UTF-8" standalone="no"?>
<svg width="60px" height="60px" viewBox="0 0 60 60" version="1.1" xmlns="http://www.w3.org/2000/svg" xmlns:xlink="http://www.w3.org/1999/xlink">
    <!-- Generator: sketchtool 40.1 (33804) - http://www.bohemiancoding.com/sketch -->
    <title>7F991ABD-8480-4E87-9354-A907067D7B83</title>
    <desc>Created with sketchtool.</desc>
    <defs></defs>
    <g id="Page-1" stroke="none" stroke-width="1" fill="none" fill-rule="evenodd">
        <g id="portfolio-copy" transform="translate(-777.000000, -2097.000000)">
            <g id="Skill" transform="translate(90.000000, 1702.000000)">
                <g id="skills" transform="translate(0.000000, 350.000000)">
                    <g id="languages">
                        <g id="javascript-original" transform="translate(687.000000, 45.000000)">
                            <g id="Group">
                                <polygon id="Shape" fill="#F0DB4F" points="0.194285714 0.194285714 59.8057143 0.194285714 59.8057143 59.8061905 0.194285714 59.8061905"></polygon>
                                <path d="M54.9271429,45.5885714 C54.4904762,42.8690476 52.7171429,40.5847619 47.4642857,38.4547619 C45.6395238,37.6161905 43.6052381,37.0157143 42.9990476,35.6328571 C42.7838095,34.8280952 42.7552381,34.3747619 42.8914286,33.887619 C43.282381,32.3066667 45.1695238,31.8138095 46.6652381,32.2671429 C47.6285714,32.59 48.5404762,33.332381 49.0904762,34.5166667 C51.6628571,32.8509524 51.657619,32.8619048 53.4538095,31.7171429 C52.7961905,30.697619 52.4452381,30.2271429 52.0147619,29.7909524 C50.467619,28.0628571 48.3595238,27.1728571 44.9880952,27.2409524 L43.2319048,27.4680952 C41.5490476,27.8933333 39.9452381,28.7766667 39.0047619,29.9609524 C36.1828571,33.1628571 36.987619,38.7666667 40.4214286,41.0728571 C43.8042857,43.6119048 48.7738095,44.1895238 49.4085714,46.5638095 C50.0261905,49.4704762 47.272381,50.4114286 44.5352381,50.0771429 C42.5180952,49.657619 41.3961905,48.632381 40.1833333,46.7680952 C37.9509524,48.06 37.9509524,48.06 35.6557143,49.38 C36.2,50.57 36.7719048,51.1085714 37.6842857,52.1395238 C42.002381,56.5195238 52.8080952,56.3042857 54.7461905,49.6747619 C54.8247619,49.4471429 55.3466667,47.9290476 54.9271429,45.5885714 L54.9271429,45.5885714 Z M32.6009524,27.5919048 L27.0252381,27.5919048 L27.002381,42.0071429 C27.002381,45.0728571 27.1609524,47.8833333 26.662381,48.7447619 C25.8466667,50.4390476 23.7328571,50.2290476 22.7695238,49.9004762 C21.7890476,49.4185714 21.2904762,48.7333333 20.7128571,47.7647619 C20.5542857,47.4866667 20.4352381,47.2714286 20.3952381,47.2547619 L15.8619048,50.0309524 C16.6157143,51.5780952 17.7261905,52.9209524 19.1485714,53.7933333 C21.2733333,55.0685714 24.1290476,55.4595238 27.1157143,54.7738095 C29.0595238,54.207619 30.7366667,53.0347619 31.6147619,51.2495238 C32.8842857,48.9090476 32.6119048,46.0761905 32.6004762,42.9428571 C32.6290476,37.8309524 32.6009524,32.72 32.6009524,27.5919048 L32.6009524,27.5919048 Z" id="Shape" fill="#FFFFFF"></path>
                            </g>
                        </g>
                    </g>
                </g>
            </g>
        </g>
    </g>
</svg>