<?xml version="1.0" encoding="UTF-8" standalone="no"?>
<svg width="60px" height="64px" viewBox="0 0 60 64" version="1.1" xmlns="http://www.w3.org/2000/svg" xmlns:xlink="http://www.w3.org/1999/xlink">
    <!-- Generator: sketchtool 40.1 (33804) - http://www.bohemiancoding.com/sketch -->
    <title>E0C81B30-A270-487E-BBB9-A8FEC4E1E229</title>
    <desc>Created with sketchtool.</desc>
    <defs></defs>
    <g id="Page-1" stroke="none" stroke-width="1" fill="none" fill-rule="evenodd">
        <g id="portfolio-copy" transform="translate(-882.000000, -2093.000000)" fill="#0868AC">
            <g id="Skill" transform="translate(90.000000, 1702.000000)">
                <g id="skills" transform="translate(0.000000, 350.000000)">
                    <g id="languages">
                        <g id="jquery-plain-wordmark" transform="translate(792.000000, 41.000000)">
                            <path d="M21.7037299,40.3547343 L21.8035564,40.4033544 L21.9814855,40.4892156 C22.208552,40.5973179 22.4376874,40.7043857 22.6688918,40.8073156 L22.8142351,40.87197 C23.079577,40.9883481 23.3464707,41.0990365 23.6164677,41.2055871 L23.8119829,41.282138 C24.0612905,41.3793783 24.314736,41.4735152 24.5686988,41.562997 L24.6638702,41.5955829 C24.9426602,41.6928232 25.2240365,41.7833395 25.5079989,41.8717868 L25.712307,41.9323034 C26.0009246,42.0197162 26.2859215,42.1236806 26.5838493,42.1790248 C45.4908854,45.6264012 50.9823775,30.8169068 50.9823775,30.8169068 C46.369669,36.8261519 38.1823441,38.4114795 30.4248421,36.6466711 C30.1310522,36.5804649 29.845538,36.4883969 29.5589894,36.4035703 L29.3433021,36.3383986 C29.0634776,36.2525374 28.7852047,36.1620212 28.5095181,36.067367 L28.395209,36.0259882 C28.1479703,35.9390926 27.9033177,35.8470246 27.6602169,35.7534049 L27.4543571,35.6727161 C27.1874634,35.5677173 26.9226387,35.4575461 26.6609174,35.3427197 L26.5021261,35.2723757 C26.2771285,35.1704802 26.0541999,35.0675503 25.832823,34.9609997 L25.6388596,34.8678973 C25.4650684,34.7830706 25.2928288,34.6925544 25.1211066,34.6041071 L24.7755931,34.4230745 C24.5661126,34.3108344 24.3602528,34.1944563 24.1554274,34.0749749 L23.9459469,33.9580796 C23.6733637,33.7972193 23.4038838,33.6311866 23.1375074,33.4625677 L22.9197512,33.3177417 C22.726305,33.1930879 22.5338933,33.0663651 22.344585,32.9355045 L22.1594146,32.8051611 C21.9763131,32.6758521 21.7952806,32.5449915 21.6157998,32.4120619 L21.3747679,32.2294777 C21.210287,32.1037894 21.0463232,31.9770666 20.8844284,31.8467232 L20.6656377,31.670863 C20.4597779,31.5012097 20.255987,31.3310391 20.054265,31.1562135 L19.9875416,31.0998348 C19.7687509,30.909492 19.5551325,30.7134596 19.3441003,30.5169101 L19.1630678,30.3426016 C19.0063454,30.1941549 18.8527264,30.0441566 18.7011763,29.8905375 L18.5201438,29.709505 C18.3277321,29.5124382 18.138941,29.3127852 17.9537706,29.110546 L17.9258399,29.0805463 C17.7298075,28.8664107 17.5384303,28.64762 17.3511909,28.4267603 L17.2006753,28.2477968 C17.0610217,28.0796951 16.9224025,27.9090073 16.7874039,27.7367678 L16.6358539,27.548494 C16.4729246,27.3374618 16.3141332,27.1269469 16.1584453,26.9128113 C11.8519403,21.0380475 10.3043709,12.9355492 13.7465749,6.28131111 L10.6954011,10.1512691 C6.78561598,15.7700012 7.27285207,23.0806115 10.2588541,29.0515811 L10.4776449,29.4762317 L10.6178158,29.7451943 L10.7047114,29.8998478 L10.8603993,30.1786379 C10.9529845,30.3420844 11.0476387,30.5044964 11.144879,30.6669084 L11.3078083,30.9353538 C11.4153933,31.109145 11.5255645,31.2808673 11.6388392,31.4525896 L11.7795273,31.670863 C11.9352152,31.9025847 12.0945239,32.1343063 12.2584876,32.36189 L12.272453,32.3799933 L12.3531417,32.48913 C12.4953816,32.6851624 12.6417593,32.8786086 12.7896887,33.0699858 L12.9541697,33.278949 C13.0860648,33.4449817 13.2210634,33.6104972 13.3576136,33.7749781 L13.5117499,33.9585968 C13.6953686,34.1753186 13.8826079,34.3904887 14.0739851,34.6010036 L14.0853643,34.6129001 L14.1070882,34.6366929 C14.2932931,34.8404838 14.4846703,35.0391023 14.6781165,35.2387553 L14.861218,35.4234085 C15.0112163,35.5744414 15.1632836,35.722888 15.3174199,35.8708174 L15.504142,36.0482293 C15.7094846,36.2416755 15.9168962,36.431501 16.1289628,36.6177059 L16.1393075,36.6254644 L16.247927,36.7185669 C16.4346492,36.8799444 16.6249919,37.0408047 16.8163691,37.1985617 L17.0517114,37.385801 C17.2079166,37.5109721 17.3661908,37.6345914 17.5254994,37.7561418 L17.7784277,37.9485535 C17.9542878,38.0778625 18.1311825,38.2051024 18.3096288,38.3297563 L18.5035922,38.467341 L18.5568675,38.5050992 C18.7265208,38.6219945 18.8997948,38.7337174 19.0730688,38.8459576 L19.2965146,38.9949215 C19.5618566,39.1630231 19.8318537,39.3290558 20.1044369,39.4893988 L20.3278827,39.6156044 C20.5285702,39.730948 20.7297749,39.8442226 20.9340831,39.954911 L21.2692518,40.1287023 L21.7037299,40.3547343 L21.7037299,40.3547343 Z M23.6138816,21.3230444 C24.0374976,21.9302791 24.5066305,22.6523403 25.0688658,23.1406108 C25.2726566,23.3650912 25.4857578,23.5833646 25.7029968,23.799052 L25.8705812,23.9635329 C26.0821306,24.1683583 26.2967835,24.369563 26.5181604,24.5655954 L26.5450566,24.5883537 L26.5512635,24.5950778 C26.7969504,24.8102479 27.050396,25.0171422 27.3079794,25.2209331 L27.4802189,25.3554144 C27.7388368,25.5535157 28.0021098,25.7479963 28.2721068,25.933684 L28.2953825,25.9507527 L28.656413,26.1886812 L28.8281353,26.3024731 C29.0210642,26.4255752 29.2160621,26.5466083 29.4151979,26.6614347 L29.4979556,26.7095376 C29.6691606,26.8083296 29.8429519,26.90557 30.0167431,26.9997069 L30.200879,27.09643 L30.5639785,27.2841865 L30.6188055,27.3090139 C30.8681131,27.4315987 31.1194897,27.5495285 31.3760387,27.6617686 L31.5431058,27.730561 C31.7479312,27.8174566 31.9553427,27.9028005 32.1632715,27.9824548 L32.4291307,28.0796951 C32.618439,28.1500392 32.8077473,28.2141764 32.9991245,28.2777964 L33.2572251,28.3605542 C33.5292911,28.4448636 33.7977365,28.5514142 34.0811817,28.5984826 C48.6786094,31.0175943 52.0489177,19.7775439 52.0489177,19.7775439 C49.0106748,24.1528412 43.1276352,26.2398875 36.8494275,24.6105949 C36.5706374,24.5371474 36.295468,24.4580103 36.0228848,24.3716319 L35.7740944,24.2914604 C35.5801309,24.2288749 35.387202,24.1621515 35.1958248,24.0923246 L34.935138,23.9950843 C34.7256575,23.9143955 34.5177287,23.8311206 34.3123861,23.744225 L34.1448017,23.6728464 C33.8872183,23.5606063 33.6332555,23.4426765 33.3834307,23.3185399 L33.0011934,23.1240593 L32.780851,23.0107847 C32.618439,22.9228546 32.4570614,22.8307866 32.2977528,22.7382014 L32.1824092,22.6725125 C31.9843079,22.5571689 31.7898273,22.4382047 31.5968983,22.316137 L31.4205209,22.19769 L31.0419044,21.9473479 C30.7724245,21.7616603 30.5107032,21.5676969 30.2531198,21.37063 L30.075708,21.2304592 C27.3276343,19.0616896 25.1495545,16.0958597 24.1135313,12.73331 C23.0283707,9.24714098 23.2621612,5.33270072 25.1423132,2.1563559 L22.8323383,5.41804462 C20.0051276,9.48610391 20.1587467,14.9331137 22.3642399,19.2359981 C22.7335463,19.9565075 23.1488866,20.6568447 23.6138816,21.3230444 L23.6138816,21.3230444 Z M39.0000938,16.2898231 L39.3626761,16.4155114 L39.5225019,16.4662005 C39.6947414,16.5199931 39.864912,16.5830958 40.0423239,16.6161989 C48.1024088,18.1735958 50.2892816,12.4798645 50.8711718,11.6419426 C48.9558478,14.3993264 45.7376069,15.060871 41.7885118,14.1024331 C41.4766187,14.0269167 41.1336913,13.9146765 40.8326601,13.8076087 C40.4473195,13.670024 40.0676684,13.5138188 39.6983621,13.3369242 C38.9969904,12.9996864 38.3287218,12.5915874 37.7090734,12.1229718 C34.1753186,9.44110439 31.98017,4.3271944 34.2860071,0.161377558 L33.0384344,1.88066924 C31.3719008,4.33391846 31.207937,7.38043711 32.3644762,10.0886836 C33.5841181,12.9645144 36.0834013,15.2196623 39.0000938,16.2898231 L39.0000938,16.2898231 Z M31.2198335,49.2899821 L29.0339951,49.2899821 C28.912962,49.2899821 28.792446,49.3872224 28.7665842,49.5056694 L27.9907306,53.0952856 L27.2148769,56.6849018 C27.1895324,56.8033488 27.0690165,56.9005891 26.9479833,56.9005891 L25.4009311,56.9005891 C23.8704305,56.9005891 24.0473251,55.8418075 24.36077,54.3914784 L24.3700802,54.3475134 L24.4042178,54.1644119 L24.4104246,54.1302744 L24.4802515,53.7578646 L24.5552506,53.3590759 L24.634905,52.9530458 L24.9876597,51.2296162 L25.3409318,49.5061866 C25.3652419,49.3872224 25.2855875,49.2894649 25.1645544,49.2894649 L22.9213029,49.2894649 C22.8002697,49.2894649 22.680271,49.3867052 22.6554437,49.5056694 L22.1728627,51.7939204 L21.690799,54.0826887 L21.6897645,54.0857921 L21.6452822,54.2988932 C21.089771,56.8349002 21.236666,59.2540119 24.2562884,59.3300455 L24.3442185,59.3315972 L29.0836498,59.3315972 C29.2046829,59.3315972 29.3251989,59.2343569 29.3505434,59.1159099 L30.3726013,54.3113069 L31.3946591,49.5061866 C31.4200037,49.3872224 31.3413839,49.2904993 31.2198335,49.2899821 L31.2198335,49.2899821 Z M7.81181174,49.2646375 L5.4118378,49.2646375 C5.29028739,49.2646375 5.16925422,49.3618779 5.14235796,49.4798076 L4.91477423,50.4842795 L4.68719049,51.4887513 C4.66081147,51.6071983 4.7378796,51.7039214 4.85943,51.7039214 L7.27802443,51.7039214 C7.39957484,51.7039214 7.52009077,51.6066811 7.54595256,51.4882341 L7.76577776,50.4842795 L7.98560296,49.4803249 C8.01094751,49.3618779 7.93336214,49.2646375 7.81181174,49.2646375 L7.81181174,49.2646375 Z M7.1156124,52.3908105 L4.69650073,52.3908105 C4.57546757,52.3908105 4.45391716,52.4880508 4.4270209,52.6059806 L4.087197,54.1111367 L3.74789034,55.6157755 L3.6532362,56.0471501 L3.32686043,57.5833403 L3.0010019,59.1200478 C2.97565735,59.2384948 2.92341654,59.429872 2.88462385,59.5446983 C2.88462385,59.5446983 2.4325598,60.8895113 1.67274046,60.8739943 L1.57756908,60.8719253 L0.920162424,60.8600289 L0.919645188,60.8600289 C0.798612019,60.8584772 0.677061615,60.9531313 0.648613648,61.0705439 L0.397754302,62.1251876 L0.147412193,63.1793141 C0.118964226,63.2972438 0.195515119,63.3944841 0.316031052,63.3965531 C0.746888443,63.4017254 1.71205038,63.4125874 2.29600955,63.4125874 C4.19374757,63.4125874 5.19459877,62.3610471 5.83545389,59.3352179 L6.58596298,55.8624969 L7.28992085,52.6054633 C7.31526541,52.4880508 7.23664557,52.3908105 7.1156124,52.3908105 L7.1156124,52.3908105 Z M51.6584047,51.5766814 L51.5580609,51.1623756 L51.4592689,50.7382422 L51.409097,50.5241066 C51.2125474,49.7601494 50.6358296,49.3199818 49.3830845,49.3199818 L47.4331057,49.3179128 L45.6372631,49.3153267 L43.616423,49.3153267 C43.4953898,49.3153267 43.3753911,49.412567 43.3500466,49.531014 L43.2605648,49.9530783 L43.1550487,50.4516936 L43.1255663,50.5918645 L42.2157486,54.8538872 L41.3519648,58.8997054 C41.326103,59.0186696 41.3178273,59.1645301 41.3323099,59.2234949 C41.3467925,59.2829771 41.5800658,59.3315972 41.701099,59.3315972 L43.5238378,59.3315972 C43.6453882,59.3315972 43.7990072,59.3098733 43.8652134,59.2829771 C43.9314196,59.2560808 44.0291771,59.0176351 44.0534872,58.8991881 L44.3772768,57.2962745 L44.7015836,55.6928436 L44.7021009,55.6902574 L44.7455487,55.4766391 L45.1386479,53.6352797 L45.4857131,52.0090905 C45.5115748,51.8906435 45.6310563,51.7939204 45.7520895,51.7934032 L51.4877169,51.790817 C51.6092673,51.7918515 51.6858182,51.6951284 51.6584047,51.5766814 L51.6584047,51.5766814 Z M59.0419452,47.8318945 L58.6002258,47.8334462 L56.7645561,47.8334462 C56.6430057,47.8334462 56.4873178,47.9156867 56.4195599,48.0160304 L52.3597764,53.9632072 C52.2915012,54.063551 52.2133986,54.0490684 52.1865024,53.9311386 L51.8875401,52.6209804 C51.8606438,52.5025334 51.7390934,52.4058103 51.617543,52.4058103 L49.0080886,52.4058103 C48.8865382,52.4058103 48.8146424,52.5009817 48.8477455,52.6173598 L50.0172156,56.7143843 C50.0503187,56.8312795 50.0529049,57.0226568 50.0229052,57.1405865 L49.5134279,59.1231512 C49.482911,59.241081 49.557393,59.3367696 49.6789434,59.3367696 L52.2583981,59.3367696 C52.3794313,59.3367696 52.5035679,59.2405637 52.5335676,59.1231512 L53.043562,57.1405865 C53.0735617,57.0221395 53.1578711,56.8473138 53.2313186,56.7500735 L59.8219367,48.0030995 C59.8953842,47.9058592 59.855557,47.8267221 59.7345239,47.8277566 L59.0419452,47.8318945 L59.0419452,47.8318945 Z M38.3080324,52.962356 L38.3080324,52.9602871 C38.2930325,53.091665 38.1714821,53.1883881 38.0499317,53.1883881 L34.7411745,53.1883881 C34.6263482,53.1883881 34.5684178,53.1108027 34.5854866,53.0145968 L34.58859,53.0068383 L34.586521,53.0078728 L34.5880728,52.9970108 L34.6030726,52.9406321 C34.9191036,52.1006412 35.5625449,51.5492679 36.7723594,51.5492679 C38.1347584,51.5487507 38.4006176,52.2139159 38.3080324,52.962356 L38.3080324,52.962356 Z M37.3371808,49.1430871 C33.090158,49.1430871 32.0836172,51.7209902 31.5187957,54.3232033 C30.9544915,56.9755883 31.0025944,59.4546993 35.398064,59.4546993 L35.9308168,59.4546993 L36.0632292,59.4541821 L36.0942633,59.4541821 L36.6218438,59.4526304 L36.631154,59.4526304 C37.7918311,59.4479753 38.9561288,59.4391823 39.4273306,59.4355616 C39.5478465,59.4334927 39.6657762,59.3367696 39.6906036,59.2183226 L39.8685327,58.3488493 L39.9031875,58.1797132 L40.1152541,57.1421382 C40.1395642,57.0236912 40.0604271,56.9259337 39.9388767,56.9259337 L35.9877127,56.9259337 C34.4158332,56.9259337 33.9492866,56.5085244 34.1215261,55.2806067 L40.437492,55.2806067 L40.4369748,55.2811239 L40.4411127,55.2806067 C40.5414564,55.279055 40.6345588,55.2097454 40.6712826,55.1176774 L40.6862824,55.0628505 L40.6857652,55.0633677 C41.6235136,51.5259923 41.354551,49.1436044 37.3371808,49.1430871 L37.3371808,49.1430871 Z M17.2632608,52.9489079 L17.2032615,53.1604573 L17.2032615,53.1609746 L16.7263701,54.851301 L16.2494788,56.5411103 C16.2168929,56.6585228 16.0901701,56.7536942 15.9686197,56.7536942 L13.4445092,56.7536942 C11.5297024,56.7536942 11.0631557,55.2557794 11.5297024,53.0471827 C11.9957318,50.7878969 12.9096874,49.3836018 14.7944945,49.2413619 C17.3703287,49.0468813 17.8854955,50.8582409 17.2632608,52.9489079 L17.2632608,52.9489079 Z M18.9949662,56.623868 C18.9949662,56.623868 20.1851257,53.7335545 20.4551227,52.064952 C20.8239118,49.8310107 19.7051309,46.5900114 15.3841433,46.5900114 C11.0879831,46.5900114 9.22179643,49.6835985 8.51008002,53.0471827 C7.79836361,56.4350769 8.73093969,59.4055619 13.0027899,59.3812518 L16.3730981,59.3688382 L19.5225467,59.357459 C19.6435798,59.3564245 19.7677164,59.2602187 19.7987506,59.1433234 L20.3475377,57.0505875 C20.3780546,56.9326577 20.3040899,56.8364519 20.1825395,56.8354174 L19.6565107,56.832314 L19.130482,56.8292106 C19.027552,56.8286934 18.9685872,56.7614527 18.9810008,56.6730054 L18.9949662,56.623868 L18.9949662,56.623868 Z M40.2637008,54.688889 C40.2637008,54.7690605 40.1990463,54.8342323 40.1188748,54.8342323 C40.0392205,54.8342323 39.9740488,54.7690605 39.9740488,54.688889 C39.9740488,54.6092347 40.0387032,54.5445802 40.1188748,54.5445802 C40.1990463,54.5445802 40.2637008,54.6092347 40.2637008,54.688889 L40.2637008,54.688889 Z" id="Shape"></path>
                        </g>
                    </g>
                </g>
            </g>
        </g>
    </g>
</svg>