<?xml version="1.0" encoding="UTF-8" standalone="no"?>
<svg width="70px" height="69px" viewBox="0 0 70 69" version="1.1" xmlns="http://www.w3.org/2000/svg" xmlns:xlink="http://www.w3.org/1999/xlink">
    <!-- Generator: sketchtool 40.1 (33804) - http://www.bohemiancoding.com/sketch -->
    <title>C7690DA4-58D5-494B-A39A-09A43D9332A6</title>
    <desc>Created with sketchtool.</desc>
    <defs></defs>
    <g id="Page-1" stroke="none" stroke-width="1" fill="none" fill-rule="evenodd">
        <g id="portfolio-copy" transform="translate(-1192.000000, -2084.000000)" fill="#DF5052">
            <g id="Skill" transform="translate(90.000000, 1702.000000)">
                <g id="skills" transform="translate(0.000000, 350.000000)">
                    <g id="languages">
                        <g id="meteor-original" transform="translate(1102.000000, 32.000000)">
                            <g id="Group">
                                <path d="M66.2788462,35.22279 C66.9455236,35.22279 67.4455317,34.722782 67.4455317,34.0561045 C67.4455317,33.7783223 67.3344188,33.50054 67.1677494,33.3338707 C67.112193,33.2227578 51.6119431,19.0003063 51.6119431,19.0003063 L65.2788301,34.611669 C65.4454994,35.0005642 65.8343946,35.22279 66.2788462,35.22279 L66.2788462,35.22279 Z M69.4455639,43.1673625 L69.334451,43.0562496 L35.5561287,12.2224192 L66.501072,45.8896286 L66.6121849,46.0007415 C66.9455236,46.3340802 67.4455317,46.556306 68.0010962,46.556306 C69.1122252,46.556306 70.0011284,45.6674028 70.0011284,44.5562738 C70.0011284,44.0562657 69.7789026,43.5562577 69.4455639,43.1673625 L69.4455639,43.1673625 Z M54.5008785,64.0565881 L5.61120156,18.7780805 L50.6674834,67.9455397 C51.1674915,68.5011042 51.8897253,68.8899994 52.7230721,68.8899994 C54.2230963,68.8899994 55.4453382,67.6677575 55.4453382,66.1677333 C55.4453382,65.3343865 55.1119995,64.5565962 54.5008785,64.0565881 L54.5008785,64.0565881 Z M0,7.89504655e-15 L59.7787414,63.667693 L59.8342979,63.7232494 C60.3343059,64.2232575 61.0009833,64.5010398 61.7232172,64.5010398 C63.2232414,64.5010398 64.4454833,63.2787978 64.4454833,61.7787736 C64.4454833,61.2232091 64.2788139,60.6676446 63.9454752,60.223193 C63.7788059,59.9454108 0,0 0,0 L0,7.89504655e-15 Z M68.0010962,51.5563866 L19.1114192,6.27787898 L64.167701,55.4453382 C64.6677091,56.0009027 65.389943,56.3897979 66.2232897,56.3897979 C67.7233139,56.3897979 68.9455558,55.167556 68.9455558,53.6675318 C68.9455558,52.7786286 68.5566607,52.0563947 68.0010962,51.5563866 L68.0010962,51.5563866 Z M44.3896044,65.3343865 L44.2784915,65.2232736 L10.5001693,34.3894432 L41.4451125,68.0566526 L41.5562254,68.1677655 C41.8895641,68.5011042 42.3895722,68.72333 42.9451367,68.72333 C44.0562657,68.72333 44.945169,67.8344268 44.945169,66.7232978 C44.945169,66.1677333 44.7229432,65.7232817 44.3896044,65.3343865 L44.3896044,65.3343865 Z M18.3891853,49.8341367 L32.0560723,65.4454994 C32.2782981,65.7788381 32.6116368,66.0566204 33.0560884,66.0566204 C33.7227658,66.0566204 34.2227739,65.5566123 34.2227739,64.8899349 C34.2227739,64.6121527 34.111661,64.3343704 33.9449916,64.167701 C33.8338787,64.1121446 18.3891853,49.8341367 18.3891853,49.8341367 L18.3891853,49.8341367 Z" id="Shape"></path>
                            </g>
                        </g>
                    </g>
                </g>
            </g>
        </g>
    </g>
</svg>