<?xml version="1.0" encoding="UTF-8" standalone="no"?>
<svg width="80px" height="60px" viewBox="0 0 80 60" version="1.1" xmlns="http://www.w3.org/2000/svg" xmlns:xlink="http://www.w3.org/1999/xlink">
    <!-- Generator: sketchtool 40.1 (33804) - http://www.bohemiancoding.com/sketch -->
    <title>1DE1D619-0495-46D9-BA51-18E9352F360D</title>
    <desc>Created with sketchtool.</desc>
    <defs></defs>
    <g id="Page-1" stroke="none" stroke-width="1" fill="none" fill-rule="evenodd">
        <g id="portfolio-copy" transform="translate(-547.000000, -2097.000000)" fill="#CB6699">
            <g id="Skill" transform="translate(90.000000, 1702.000000)">
                <g id="skills" transform="translate(0.000000, 350.000000)">
                    <g id="languages">
                        <g id="sass-original" transform="translate(457.000000, 45.000000)">
                            <path d="M0.139041703,24.8598946 C0.139041703,25.3062248 0.270464682,25.6008155 0.344112342,25.8871525 C0.824091919,27.7492955 1.85579405,29.3473227 3.07986895,30.8050385 C4.82328683,32.8824104 6.95843408,34.5547202 9.1456426,36.1273517 C11.0427047,37.4911032 12.9784954,38.8243798 14.8831762,40.177973 C15.2101465,40.410344 15.5193397,40.6776343 15.8742452,40.9627015 C15.5688614,41.1277738 15.3149039,41.2731645 15.0507882,41.407127 C12.5372443,42.6819934 10.1189345,44.1111389 7.88982302,45.8424939 C6.54638812,46.886259 5.24739577,47.9954181 4.32997449,49.4448803 C2.85384682,51.7762096 2.33132937,54.2599135 3.43160002,56.9118641 C3.75285619,57.6864343 4.24299406,58.3556122 4.93439322,58.8501943 C5.15851066,59.0101875 5.40992854,59.1689109 5.6721396,59.2311305 C6.34385705,59.389219 7.02827238,59.4927067 7.70824344,59.6177807 L9.63387579,59.6165109 C11.763309,59.4266778 13.7016392,58.697185 15.4533107,57.4883475 C18.190972,55.5989041 20.035338,53.0656786 20.8283201,49.8143883 C21.4048035,47.4513143 21.4282946,45.0857007 20.7489584,42.7334198 C20.6861039,42.5150164 20.6067422,42.3010572 20.5242061,42.0896377 C20.4416699,41.8782181 20.3445312,41.6725126 20.2302503,41.4090317 L24.5957788,38.8986623 L24.6611729,38.954533 C24.5818112,39.2142045 24.4973703,39.4732411 24.4256274,39.7354521 C23.9069193,41.6299747 23.562172,43.5575117 23.6859763,45.5237773 C23.8180342,47.6189262 24.4027712,49.5801126 25.6293857,51.3305143 C26.6210895,52.7463271 28.9841636,52.7990232 30.038087,51.3781313 C30.4120393,50.8733909 30.7745636,50.3457943 31.0469329,49.7826437 C31.7586487,48.3128649 32.4176683,46.8170556 33.0976393,45.3314045 L33.2163644,45.05967 C33.1674776,45.7631321 33.1103372,46.3808836 33.0843066,46.99927 C33.0436734,47.9649432 33.1001789,48.9249024 33.4303236,49.8435934 C33.7128512,50.6295917 34.1934657,51.2168683 35.0937449,51.320356 C35.7095917,51.3908292 36.2003644,51.1089364 36.6530436,50.7514913 C37.3603151,50.1934198 37.9348938,49.5039254 38.3615423,48.7204666 C39.5684751,46.504053 40.8077874,44.3009721 41.9017092,42.0286879 C43.0851509,39.5710147 44.1200275,37.0415985 45.2190283,34.5420223 L45.4006079,34.0988666 C45.6602794,35.1191406 45.8412241,36.1184632 46.1745432,37.0644547 C46.5618283,38.1621857 47.041173,39.2338862 47.5630556,40.2757466 C47.8100292,40.7677891 47.781459,41.0871406 47.4392513,41.4998215 C46.0069313,43.2267321 44.5993721,44.9745943 43.1905432,46.7205517 C42.8788104,47.1059322 42.5683475,47.4982964 42.308676,47.9192309 C42.1518572,48.175093 42.0477347,48.4868258 42.003927,48.7852258 C41.9194862,49.3553603 42.2718521,49.9051781 42.8819849,50.0366011 C43.4394215,50.156596 44.033047,50.2010386 44.6012768,50.1591356 C46.5675424,50.0143798 48.3528632,49.3242505 49.9312088,48.1547764 C51.9762011,46.6399202 52.6326811,44.5727066 52.1374641,42.1226521 C52.0035015,41.4579185 51.7666862,40.8115968 51.5362198,40.1709891 C51.4327322,39.8821125 51.4257483,39.6795815 51.6143118,39.4103866 C53.2491628,37.0758827 54.6459288,34.5991627 55.9449211,32.0653023 C55.9963475,31.965624 56.0490437,31.8659457 56.1391986,31.7592836 C56.5601331,33.9496666 57.1937569,36.0606878 58.3289467,37.9761619 C57.7499237,38.5342334 57.1766148,39.0402436 56.6579067,39.5976802 C55.515733,40.8255645 54.525299,42.1588411 54.0084956,43.7848036 C53.7862828,44.4857262 53.6154964,45.1980768 53.7145398,45.9466164 C53.8681841,47.1091066 54.8205245,47.86463 55.9639679,47.5998794 C58.410848,47.0335543 60.523139,45.8805875 62.0665654,43.8381347 C63.1052514,42.4629551 63.1998505,40.9290521 62.7649484,39.3221364 C62.6455884,38.8853296 62.5040071,38.4555066 62.3516327,37.9545755 C62.9554165,37.7672819 63.5439629,37.5425296 64.1528259,37.4034879 C67.3139612,36.6822487 70.4408123,36.8079576 73.4870319,37.9494964 C75.2653689,38.6161347 76.7021332,39.7316428 77.5541604,41.4864887 C78.594751,43.6317943 78.0195374,45.6672632 75.9974012,47.023396 C75.8088378,47.1497398 75.592974,47.2494181 75.4367902,47.4075066 C75.3409212,47.5046453 75.2831459,47.6989228 75.306637,47.8328854 C75.3199697,47.9109773 75.5263102,48.0087509 75.6450353,48.0074811 C76.3097689,48.0024019 76.8487936,47.6538454 77.3662319,47.2957653 C78.6626847,46.3986607 79.6086762,45.1917279 79.812477,43.6025892 L79.8524753,43.4832292 L79.8035885,42.4483526 C79.7839068,42.3886726 79.818191,42.3296275 79.8137468,42.28455 C79.538203,39.9703628 78.3020651,38.1755185 76.5040463,36.7685942 C74.4215953,35.1400921 71.9626523,34.4696444 69.362128,34.3636172 C67.2428531,34.2772717 65.1597671,34.5921789 63.1623918,35.3178623 C62.5928922,35.5242027 62.0284718,35.7686368 61.4557978,35.9991032 C61.3789756,35.8600615 61.2964395,35.7267338 61.2285058,35.5889619 C60.6405944,34.3852036 59.9282437,33.2347763 59.7707901,31.8545176 C59.6590488,30.8742419 59.5219118,29.8952359 59.7549178,28.9257533 C59.9790352,27.9930946 60.2710863,27.0763082 60.5459952,26.1563474 C60.6875765,25.6827167 60.5878982,25.4173312 60.1358539,25.2040069 C59.9784003,25.1297244 59.806979,25.0649652 59.6368275,25.0402044 C58.5257637,24.8789414 57.4299373,24.971001 56.3537926,25.2840035 C55.9728565,25.3951099 55.6960428,25.6084342 55.611602,26.0300035 C55.5633501,26.271898 55.4649416,26.5036342 55.396373,26.7423542 C55.1151152,27.7346929 54.9157586,28.7460784 54.4611747,29.691435 C53.3221756,32.0627627 52.0219135,34.3445704 50.6911764,36.6098708 C50.5470556,36.8543049 50.395316,37.0942947 50.2137364,37.39079 C49.7464547,36.4130538 49.2480632,35.5356308 49.0969585,34.5071032 C48.9261722,33.343978 48.7915747,32.1827576 49.0810862,31.028521 C49.2963151,30.1676053 49.577573,29.3225619 49.8366096,28.4730742 C49.9591441,28.0692818 49.9026386,27.8572274 49.5369398,27.644538 C49.3521858,27.537241 49.1433058,27.4420069 48.9350607,27.4108972 C47.7827288,27.2401108 46.647539,27.3296308 45.5358402,27.6889806 C45.191093,27.8007218 45.0101483,28.0235695 44.904756,28.3791099 C44.5949279,29.4279542 44.3308121,30.5021942 43.89591,31.4996121 C42.1347151,35.5375355 40.3227287,39.5545074 38.512647,43.5708445 C38.1348853,44.409539 37.6923644,45.2190283 37.2663508,46.0355015 C37.1584189,46.2424768 37.0009653,46.4246913 36.8663678,46.6189687 C36.7584359,46.4913551 36.716533,46.4037398 36.7171678,46.3161245 C36.7203423,45.799956 36.6587576,45.26855 36.7571661,44.7695236 C37.0549313,43.2597466 37.3977738,41.7582232 37.7590283,40.2624138 C38.0574283,39.0269108 38.4047151,37.8028359 38.7354947,36.5755866 C38.846601,36.1648104 38.8485057,35.7806998 38.5532802,35.4353176 C38.0574283,34.8569295 37.0212819,34.7299508 36.4067049,35.1756461 L36.1349704,35.3292904 L36.1876666,34.8912138 C36.3171849,33.9522061 36.3432155,33.0163729 36.0854487,32.0913329 C35.7641925,30.9383661 34.9413704,30.2749023 33.7452308,30.3117261 C33.1877942,30.3288682 32.6024223,30.4241023 32.0862538,30.6272682 C29.9155525,31.4780257 28.2464172,32.9846283 26.8255252,34.7972495 C26.6966418,34.961687 26.5264903,35.1115219 26.3449108,35.21247 C24.5081635,36.2308393 22.6657022,37.2365108 20.8238759,38.2459917 L18.7738044,39.3691185 C18.2239865,38.8446964 17.7243252,38.3005925 17.1573652,37.8390249 C15.4260103,36.4270215 13.6667201,35.0499372 11.9233022,33.6538061 C10.3779711,32.4163985 8.88089196,31.1275644 7.73554387,29.488904 C6.88351663,28.2699082 6.33433365,26.9359967 6.28163748,25.4287593 C6.21497365,23.5082061 6.75971237,21.7533601 7.73744855,20.1197788 C8.98818898,18.029709 10.6941481,16.3523201 12.5696239,14.8330197 C14.5536665,13.2267388 16.6996069,11.8629873 18.9236392,10.6179609 C22.0352529,8.8764477 25.2357516,7.33492599 28.6673516,6.31719152 C32.1859321,5.27342641 35.7559389,4.67599151 39.4383219,5.09248173 C40.8858794,5.25628428 42.2915338,5.58769875 43.5822726,6.29560514 C44.5708019,6.8371694 45.3815611,7.54634557 45.7586879,8.65486983 C46.1307356,9.74561707 46.1193075,10.8509669 45.8615407,11.9588562 C45.3377534,14.2025703 44.1092343,16.0520154 42.5632683,17.7046435 C40.0275032,20.4137346 36.9343015,22.2581005 33.45191,23.4764614 C31.4424717,24.1792886 29.375258,24.6205397 27.2521738,24.7989448 C25.5195491,24.9443354 23.8231133,24.7906912 22.1825482,24.1881771 C21.0962452,23.7888291 20.1502537,23.1780614 19.3896512,22.2917499 C19.2537839,22.1330265 19.0798231,21.9609703 18.8265005,22.1095354 C18.5782571,22.255561 18.5344495,22.4917414 18.6176205,22.7310963 C18.7566622,23.1285397 18.8849107,23.5424903 19.1014095,23.8980308 C19.6455133,24.7900563 20.4391303,25.4370129 21.3127439,25.9919099 C22.9907678,27.0591661 24.8662435,27.417881 26.8109227,27.5010521 C29.7619082,27.6286657 32.6411508,27.1880495 35.4797602,26.3963372 C39.5322862,25.2662265 43.0559458,23.270121 45.8818573,20.1210486 C48.234773,17.498938 49.9153364,14.5396988 50.2753211,10.9665175 C50.4511866,9.22246473 50.263893,7.513966 49.4474198,5.92292258 C48.5617432,4.1991864 47.1535492,2.91733619 45.4698113,2.03419916 C43.0178521,0.748539578 40.3716155,0 37.6403032,0 L34.9039117,0 C31.5961159,0 28.3981567,0.947896175 25.2897176,2.07864171 C22.9368018,2.93511321 20.6295984,3.94586385 18.3896937,5.06454641 C13.511806,7.50190302 8.96914217,10.4408256 5.23787237,14.4819235 C3.37890385,16.4951711 1.80500256,18.7166639 0.89964426,21.3324256 C0.63489362,22.0981073 0.383475747,22.9190248 0.194277448,23.7107371 L0.139041703,24.8598946 Z M17.8690809,46.5751611 C17.6576614,49.4061517 16.3745414,51.7012922 14.2774877,53.5602607 C13.0978554,54.6052956 11.7448971,55.3493909 10.1690911,55.6109671 C9.59768686,55.7055662 9.01294983,55.7284224 8.4586877,55.4916071 C7.66824515,55.1538437 7.49110983,54.4522862 7.47587238,53.7050164 C7.45238131,52.513956 7.86950642,51.4371764 8.44154558,50.4124581 C9.18818047,49.076642 10.2827371,48.0582726 11.4515762,47.1072019 C13.2927677,45.6082181 15.2901431,44.3397007 17.3357703,43.1422913 L17.4900495,43.0788019 C17.8062265,44.2470062 17.9566963,45.4006079 17.8690809,46.5751611 L17.8690809,46.5751611 Z M33.8417346,34.2715576 C33.6925346,35.1756461 33.5058759,36.0803695 33.2417602,36.9565227 C32.3287831,39.9894096 31.1561346,42.9283321 29.8882521,45.8278913 C29.6539763,46.3643764 29.3130384,46.8538794 29.0165431,47.3624292 C28.9708308,47.441156 28.9028972,47.5090896 28.8368682,47.5744836 C28.4698997,47.9370079 28.121978,47.9179611 27.9365891,47.4436956 C27.7207252,46.8926079 27.5880325,46.3027917 27.4737516,45.7193245 C27.3969295,45.3275951 27.4153414,44.9161841 27.3912155,44.5149313 C27.4159763,41.6617194 28.2864155,39.0688138 29.763178,36.6549483 C30.372041,35.6594351 31.0348699,34.710904 32.0475253,34.0810895 C32.3586231,33.887447 32.7078146,33.731898 33.0601806,33.6328546 C33.5998402,33.4811151 33.9312546,33.7306283 33.8417346,34.2715576 L33.8417346,34.2715576 Z M44.7390487,48.1554113 L48.6557075,43.5822726 C48.8188751,45.280613 45.9320139,48.6709449 44.7390487,48.1554113 L44.7390487,48.1554113 Z M57.2483577,45.0780819 C56.9715441,45.2368053 56.6699697,45.3510862 56.3861722,45.4977466 C56.1265007,45.6323441 56.0407901,45.4964768 56.0331714,45.2729943 C56.0280922,45.1212547 56.0503135,44.9625313 56.0922165,44.815236 C56.6210828,42.9499185 57.5943748,41.3576053 59.0425671,40.0624223 L59.1441501,40.0103611 C59.8330097,41.9372632 59.0368531,44.0533636 57.2483577,45.0780819 L57.2483577,45.0780819 Z" id="Shape"></path>
                        </g>
                    </g>
                </g>
            </g>
        </g>
    </g>
</svg>