<?xml version="1.0" encoding="UTF-8" standalone="no"?>
<svg width="70px" height="70px" viewBox="0 0 70 70" version="1.1" xmlns="http://www.w3.org/2000/svg" xmlns:xlink="http://www.w3.org/1999/xlink">
    <!-- Generator: sketchtool 40.1 (33804) - http://www.bohemiancoding.com/sketch -->
    <title>AF0FF067-E44E-46AB-94B8-CD5FBD3CEA5C</title>
    <desc>Created with sketchtool.</desc>
    <defs></defs>
    <g id="Page-1" stroke="none" stroke-width="1" fill="none" fill-rule="evenodd">
        <g id="portfolio-copy" transform="translate(-1308.000000, -2091.000000)" fill="#494949">
            <g id="Skill" transform="translate(90.000000, 1702.000000)">
                <g id="skills" transform="translate(0.000000, 350.000000)">
                    <g id="languages">
                        <g id="wordpress-plain" transform="translate(1218.000000, 39.000000)">
                            <path d="M35.0522222,69.5688889 C54.0938889,69.54 69.5083333,54.0505556 69.5083333,34.9438889 C69.5083333,16.1477778 54.165,0.667777778 35.8344444,0.340555556 C16.5833333,-0.00277777778 0.496666667,15.6183333 0.491666667,34.5611111 C0.486111111,54.0494444 15.8316667,69.5966667 35.0522222,69.5688889 L35.0522222,69.5688889 Z M34.9961111,2.01666667 C53.2777778,2.01055556 67.8438889,16.8638889 67.8383333,35.5055556 C67.8322222,53.105 52.88,67.8277778 35.0094444,67.8316667 C16.8033333,67.8355556 2.16222222,53.0744444 2.16277778,34.7161111 C2.16388889,16.8311111 17.0327778,2.02277778 34.9961111,2.01666667 L34.9961111,2.01666667 Z M21.1983333,19.3866667 C21.4972222,20.3827778 20.6605556,20.7294444 19.7711111,20.7988889 C18.835,20.8711111 17.8994444,20.9416667 16.8127778,21.0244444 C20.3994444,31.71 23.9322222,42.2372222 27.5488889,53.0094444 C27.8066667,52.5877778 27.9127778,52.4688889 27.9594444,52.33 C29.945,46.3955556 31.9416667,40.465 33.8766667,34.5138889 C34.0533333,33.9711111 33.9655556,33.2522222 33.7722222,32.6944444 C32.7483333,29.7388889 31.5216667,26.8477778 30.6238889,23.8566667 C30.01,21.8088889 29.1955556,20.4838889 26.775,20.7211111 C26.3627778,20.7616667 25.8594444,19.8744444 25.3977778,19.4161111 C25.9561111,19.0827778 26.5105556,18.4694444 27.0738889,18.4611111 C32.0027778,18.3861111 36.9333333,18.3861111 41.8616667,18.4655556 C42.4272222,18.475 42.9816667,19.1044444 43.54,19.4461111 C43.0511111,19.8927778 42.6294444,20.5627778 42.0577778,20.7355556 C41.1405556,21.0122222 40.1233333,20.96 39.0255556,21.0577778 C42.6161111,31.7383333 46.1327778,42.2005556 49.775,53.0355556 C51.4033333,47.6266667 52.9183333,42.66 54.3916667,37.6805556 C55.7061111,33.2355556 54.9227778,29.0844444 52.5461111,25.1694444 C51.8316667,23.9922222 50.9538889,22.85 50.5488889,21.5661111 C50.0888889,20.1055556 49.7066667,18.4427778 49.9505556,16.9777778 C50.3644444,14.495 52.2694444,13.2622222 54.8472222,13.0261111 C40.7405556,-0.0661111111 18.5727778,4.62055556 10.4044444,18.8455556 C13.5488889,18.7005556 16.5511111,18.51 19.5555556,18.4688889 C20.1233333,18.4616667 21.065,18.9416667 21.1983333,19.3866667 L21.1983333,19.3866667 Z M26.8188889,62.7038889 C26.7533333,62.8955556 26.7494444,63.1088889 26.6977778,63.4272222 C32.7772222,65.1127778 38.7394444,64.9911111 44.8416667,62.935 L35.5194444,37.4016667 C32.5361111,46.0744444 29.675,54.3877778 26.8188889,62.7038889 L26.8188889,62.7038889 Z M22.1211111,61.5494444 L8.07611111,23.0216667 C1.74,35.3983333 6.56,54.2816667 22.1211111,61.5494444 L22.1211111,61.5494444 Z M64.5811111,36.7927778 C65.0266667,30.9405556 63.0077778,22.8377778 61.2644444,21.7233333 C61.07,23.8761111 61.2055556,26.2711111 60.5877778,28.4533333 C59.1338889,33.595 57.3561111,38.6472222 55.6438889,43.7133333 C53.7827778,49.22 51.8483333,54.7016667 49.9455556,60.1944444 C58.8855556,54.895 63.7983333,47.0733333 64.5811111,36.7927778 L64.5811111,36.7927778 Z" id="Shape"></path>
                        </g>
                    </g>
                </g>
            </g>
        </g>
    </g>
</svg>