<?xml version="1.0" encoding="UTF-8" standalone="no"?>
<svg width="60px" height="55px" viewBox="0 0 60 55" version="1.1" xmlns="http://www.w3.org/2000/svg" xmlns:xlink="http://www.w3.org/1999/xlink">
    <!-- Generator: sketchtool 40.1 (33804) - http://www.bohemiancoding.com/sketch -->
    <title>EDEF41F2-5B49-48CB-AB68-3EC4415DB780</title>
    <desc>Created with sketchtool.</desc>
    <defs></defs>
    <g id="Page-1" stroke="none" stroke-width="1" fill="none" fill-rule="evenodd">
        <g id="portfolio-copy" transform="translate(-851.000000, -2223.000000)" fill="#67595D">
            <g id="Skill" transform="translate(90.000000, 1702.000000)">
                <g id="skills" transform="translate(0.000000, 350.000000)">
                    <g id="Tools" transform="translate(2.000000, 157.000000)">
                        <g id="atom-original" transform="translate(759.000000, 14.000000)">
                            <path d="M17.9166528,28.5636839 C17.5328129,29.3608897 17.1985008,30.0347524 16.8808567,30.7171873 C15.2912074,34.1350762 13.9744367,37.6477345 13.2948593,41.3689807 C12.9167342,43.4386679 12.7100512,45.5235945 13.25057,47.6013776 C13.7148924,49.3867566 14.6811592,50.3034957 16.3341469,50.3792159 C17.0575373,50.4130281 17.8142637,50.2596827 18.518605,50.0610956 C20.3835142,49.5329586 22.0060233,48.5128781 23.5751948,47.408029 C23.9561772,47.1394363 24.3457318,46.971804 24.8210074,47.1484847 C25.6629787,47.4618427 25.9677646,48.5781213 25.2577086,49.1081632 C22.6951253,51.0173616 19.9830064,52.663682 16.662268,52.7655948 C13.9425294,52.849411 11.9738026,51.3907244 11.106115,48.7981387 C10.4584448,46.8637003 10.4203466,44.8740194 10.6579844,42.8776712 C11.3637544,36.9352973 13.6572688,31.5362996 16.4112958,26.302553 C16.6479812,25.8529937 16.662268,25.4958226 16.4946357,25.0153085 C15.8069624,23.0403907 15.1673881,21.0483286 14.5392432,19.0534092 C14.4201862,18.6752841 14.2982718,18.5676565 13.8877632,18.6576636 C11.1894549,19.2510438 8.53114979,19.9753867 6.13762747,21.3931177 C5.21326877,21.94078 4.32653209,22.6208337 3.58742611,23.3970855 C2.35828144,24.6876636 2.33494627,26.1158716 3.33931128,27.5893213 C4.21557095,28.8756133 5.45043036,29.7552066 6.75339038,30.5500312 C7.16104161,30.7995747 7.59107557,31.0119725 8.00158417,31.2567537 C8.59829795,31.6134485 8.8025998,32.3049317 8.49638514,32.8802152 C8.18921803,33.455975 7.500116,33.6840882 6.87435231,33.362158 C5.04373158,32.4211313 3.33645392,31.3043765 1.96729819,29.7375861 C1.12818432,28.7775103 0.513373868,27.6983775 0.310024479,26.4192289 C0.0566711413,24.8238648 0.513850096,23.4180395 1.47202099,22.1550827 C2.46019425,20.8535513 3.75791577,19.9249066 5.1746943,19.1534171 C7.68727364,17.7852138 10.3946303,16.9680064 13.1758022,16.3655779 C13.3662935,16.3241461 13.5548798,16.2727134 13.8129954,16.2084226 C13.6820327,15.4664593 13.5415454,14.7464024 13.4291556,14.0211071 C12.9734053,11.0713504 12.7633887,8.11921251 13.4877316,5.17898035 C13.7744209,4.01603138 14.2244565,2.91689698 15.0073754,1.99063337 C16.6055969,0.101436581 18.6609972,-0.319072812 20.9659411,0.243828776 C23.2442163,0.800539399 25.1572245,2.06206758 26.9411748,3.53027874 C27.4459766,3.94554963 27.4597872,4.69560885 27.0478499,5.17898035 C26.6273405,5.67187641 25.9734794,5.7361672 25.4010532,5.34613641 C24.5019346,4.73418333 23.6275799,4.08032217 22.6932204,3.52742138 C21.6226597,2.89451426 20.4730451,2.44543118 19.1919916,2.43924022 C18.1338128,2.43400171 17.3113669,2.86451189 16.7084621,3.72172243 C15.9445923,4.80895113 15.6717136,6.06333589 15.5274165,7.34962793 C15.2221543,10.0703189 15.5845639,12.7448158 16.1146057,15.4064546 C16.1712769,15.689334 16.2798569,15.7893419 16.5774994,15.7593396 C18.725288,15.5450369 20.8735529,15.3312105 23.0246751,15.1516725 C23.4923311,15.1130981 23.7975933,14.9440371 24.0876162,14.5773415 C26.883075,11.0461103 29.9476027,7.77632829 33.5526493,5.04801763 C35.5609031,3.52837383 37.6829754,2.20350732 40.1245967,1.48011687 C41.6542413,1.02722396 43.2024588,0.859591681 44.7430566,1.40106301 C46.6670181,2.07730688 47.7423411,3.53932708 48.2966706,5.42614272 C48.884336,7.42915802 48.792424,9.47122402 48.5538337,11.5128138 C48.4924003,12.0357122 48.4009645,12.5562295 48.3023853,13.0734132 C48.1685652,13.7772783 47.6466192,14.1501649 46.9437066,14.0682537 C46.3046085,13.9939621 45.8874327,13.480112 45.9545809,12.7667223 C46.0474453,11.7828351 46.2717488,10.8041864 46.2817496,9.82220411 C46.2936553,8.6602076 46.2688914,7.46820872 46.0269675,6.33954818 C45.522642,3.99269621 43.8991805,3.07214733 41.4975623,3.60171296 C39.6959915,3.99841094 38.0982463,4.84609692 36.5771738,5.84855703 C33.4526414,7.90776724 30.7852879,10.4827325 28.3089019,13.2667618 C27.8483893,13.7844217 27.4054972,14.3182734 26.9578428,14.8468866 C26.9306978,14.8783176 26.9326027,14.9345125 26.8983143,15.0683326 L27.5464607,15.0683326 C33.9236309,15.1326234 40.2069842,15.8907785 46.347469,17.6580609 C49.2715094,18.5000322 52.0941132,19.5972616 54.6914612,21.2131035 C56.0734751,22.0726952 57.3421467,23.0675357 58.3455592,24.3657334 C60.3919113,27.0135615 60.2199929,29.9861772 57.8659976,32.3573168 C56.2763482,33.9588718 54.3185746,34.9703802 52.2331718,35.7561566 C51.6431253,35.9776026 50.9935502,35.6523388 50.767818,35.0870561 C50.5197032,34.4660547 50.7887721,33.823623 51.4202505,33.5174084 C52.3831837,33.0507049 53.3846913,32.6463872 54.2952394,32.0920577 C55.0467273,31.6339263 55.7629744,31.0662625 56.3654029,30.4257357 C57.6402654,29.0689619 57.687412,27.5859877 56.6063743,26.0677725 C55.7967866,24.9305399 54.7090816,24.0990457 53.5394655,23.3723216 C50.6535233,21.5788467 47.4866066,20.4678066 44.2258729,19.6005952 C40.8265569,18.6962381 37.3729509,18.0652359 33.8655311,17.8156924 C31.0705485,17.6171053 28.2655651,17.5599579 25.465344,17.4270903 C25.0610264,17.4075649 24.7848141,17.5270982 24.5600344,17.8737922 C22.9184763,20.4054207 21.2583452,22.9251435 19.6253591,25.4624867 C19.5063021,25.6472632 19.4558219,25.9796704 19.5372569,26.1754001 C22.3017609,32.7540148 25.8029897,38.8944996 30.4428799,44.3458824 C32.3963675,46.6398731 34.5208209,48.7614692 37.1005484,50.366834 C38.3111202,51.1197506 39.5745533,51.7478954 41.0399071,51.8455222 C42.367631,51.9350531 43.3362789,51.3792949 43.9953785,50.2525393 C44.61638,49.1910269 44.8654472,48.0166484 44.9768846,46.8098865 C45.336913,42.9157695 44.5668522,39.1597586 43.5458192,35.4423223 C42.5000224,31.6344026 41.0199055,27.9874479 39.3240573,24.4243094 C39.1873799,24.1376201 39.0754663,23.7971171 39.0902293,23.4885213 C39.1173743,22.9270484 39.5602665,22.527493 40.1141197,22.4408195 C40.6008248,22.364623 41.1132462,22.6322632 41.3565988,23.1542092 C41.9633133,24.4533594 42.5790762,25.7501284 43.1348344,27.0716613 C44.8502079,31.1534122 46.2312694,35.3413619 46.9608508,39.7217078 C47.4699386,42.779092 47.7132912,45.8474295 47.0065687,48.9100523 C46.8479847,49.5948683 46.6141568,50.2753982 46.3212765,50.9149725 C45.1178481,53.5456564 42.6776555,54.7343217 39.8502894,54.1161777 C37.5515364,53.6128046 35.6113832,52.4117574 33.8012403,50.9768822 C30.4719298,48.3381024 27.7707642,45.1207055 25.3277141,41.6737667 C22.5427323,37.7472662 20.1906418,33.5716984 18.22001,29.1803993 C18.1461947,29.017053 18.0614261,28.8584691 17.9166528,28.5636839 L17.9166528,28.5636839 Z M16.7127482,18.1104776 L18.2347731,22.9508598 C19.437249,21.1154768 20.5582899,19.4048655 21.7640994,17.5632915 L16.7127482,18.1104776 L16.7127482,18.1104776 Z M30.2252437,30.6057499 C28.3122355,30.6033688 26.7554459,29.0527701 26.7592557,27.1535726 C26.7625893,25.2238964 28.317474,23.6861559 30.2623895,23.6866322 C32.173969,23.6875846 33.727425,25.2367545 33.7288536,27.1416669 C33.7298061,29.0689619 32.1730165,30.608131 30.2252437,30.6057499 L30.2252437,30.6057499 Z" id="Shape"></path>
                        </g>
                    </g>
                </g>
            </g>
        </g>
    </g>
</svg>