<?xml version="1.0" encoding="UTF-8" standalone="no"?>
<svg width="50px" height="70px" viewBox="0 0 50 70" version="1.1" xmlns="http://www.w3.org/2000/svg" xmlns:xlink="http://www.w3.org/1999/xlink">
    <!-- Generator: sketchtool 40.1 (33804) - http://www.bohemiancoding.com/sketch -->
    <title>019F064B-021E-47FA-9646-0F22965DB294</title>
    <desc>Created with sketchtool.</desc>
    <defs></defs>
    <g id="Page-1" stroke="none" stroke-width="1" fill="none" fill-rule="evenodd">
        <g id="portfolio-copy" transform="translate(-452.000000, -2085.000000)" fill="#1572B6">
            <g id="Skill" transform="translate(90.000000, 1702.000000)">
                <g id="skills" transform="translate(0.000000, 350.000000)">
                    <g id="languages">
                        <g id="css3-plain-wordmark" transform="translate(362.000000, 33.000000)">
                            <g id="Group">
                                <path d="M0.372222222,13.8888889 L4.855,64.1627778 L24.9694444,69.7461111 L45.14,64.1555556 L49.6277778,13.8888889 L0.372222222,13.8888889 L0.372222222,13.8888889 Z M38.8222222,41.9377778 L37.5166667,54.1 L37.5216667,55.1416667 L25,58.6388889 L25,58.6394444 L24.99,58.6477778 L12.3683333,55.1894444 L11.5144444,45.5555556 L17.7038889,45.5555556 L18.1427778,50.4255556 L25.0022222,52.2561111 L25,52.2644444 L25,52.2466667 L31.8855556,50.305 L32.6122222,42.2222222 L18.2194444,42.2222222 L18.0961111,40.9138889 L17.815,37.7766667 L17.6677778,36.1111111 L33.16,36.1111111 L33.7233333,30 L10.1272222,30 L10.0033333,28.5616667 L9.72222222,25.2116667 L9.575,23.3333333 L40.4622222,23.3333333 L40.3138889,25.1855556 L38.8222222,41.9377778 L38.8222222,41.9377778 Z" id="Shape"></path>
                                <path d="M38.8888889,7.43 L34.9172222,2.77777778 L38.8888889,2.77777778 L38.8888889,0 L30,0 L30,2.42388889 L34.6611111,6.66666667 L30,6.66666667 L30,9.44444444 L38.8888889,9.44444444 L38.8888889,7.43 Z M28.3333333,7.43 L24.5516667,2.77777778 L28.3333333,2.77777778 L28.3333333,0 L20,0 L20,2.42388889 L24.2961111,6.66666667 L20,6.66666667 L20,9.44444444 L28.3333333,9.44444444 L28.3333333,7.43 Z M18.3333333,6.66666667 L13.8888889,6.66666667 L13.8888889,2.77777778 L18.3333333,2.77777778 L18.3333333,0 L10.5555556,0 L10.5555556,9.44444444 L18.3333333,9.44444444 L18.3333333,6.66666667 Z" id="Shape"></path>
                            </g>
                        </g>
                    </g>
                </g>
            </g>
        </g>
    </g>
</svg>