<?xml version="1.0" encoding="UTF-8" standalone="no"?>
<svg width="60px" height="58px" viewBox="0 0 60 58" version="1.1" xmlns="http://www.w3.org/2000/svg" xmlns:xlink="http://www.w3.org/1999/xlink">
    <!-- Generator: sketchtool 40.1 (33804) - http://www.bohemiancoding.com/sketch -->
    <title>7A125EB8-26C4-4206-8EE7-A358EF9057EF</title>
    <desc>Created with sketchtool.</desc>
    <defs></defs>
    <g id="Page-1" stroke="none" stroke-width="1" fill="none" fill-rule="evenodd">
        <g id="portfolio-copy" transform="translate(-746.000000, -2218.000000)" fill="#181616">
            <g id="Skill" transform="translate(90.000000, 1702.000000)">
                <g id="skills" transform="translate(0.000000, 350.000000)">
                    <g id="Tools" transform="translate(2.000000, 157.000000)">
                        <g id="github-original" transform="translate(654.002883, 9.000000)">
                            <g id="Group">
                                <path d="M29.9985587,0.050653304 C13.5991827,0.050653304 0.300969146,13.3459162 0.300969146,29.7482428 C0.300969146,42.8699075 8.81023244,54.0013399 20.6099934,57.9286922 C22.0936926,58.2040888 22.6385844,57.2844608 22.6385844,56.5000723 C22.6385844,55.7919096 22.6110448,53.4525138 22.5982585,50.9709937 C14.3363604,52.7674647 12.5930015,47.4670637 12.5930015,47.4670637 C11.2420828,44.0344417 9.29561896,43.1216987 9.29561896,43.1216987 C6.60066647,41.2785085 9.49872395,41.3168674 9.49872395,41.3168674 C12.480384,41.5258737 14.0511282,44.3772121 14.0511282,44.3772121 C16.6998534,48.9163383 20.9984993,47.6042702 22.693172,46.845946 C22.9597166,44.92653 23.7293517,43.6159372 24.5786552,42.8743335 C17.9824147,42.1243695 11.0478299,39.5774427 11.0478299,28.1981534 C11.0478299,24.9558502 12.2084298,22.3066332 14.1081746,20.2264053 C13.799337,19.4789002 12.7828285,16.4583896 14.3953739,12.3677664 C14.3953739,12.3677664 16.8886968,11.5696081 22.5638339,15.4118825 C24.9332283,14.7533895 27.4742537,14.4224218 29.9985587,14.4111109 C32.5213883,14.4224218 35.0638891,14.752406 37.4377095,15.4108989 C43.1059617,11.5686245 45.5963339,12.3667829 45.5963339,12.3667829 C47.2128136,16.4569142 46.196305,19.4779166 45.8879592,20.2254217 C47.79213,22.3056496 48.9443697,24.9548666 48.9443697,28.1971698 C48.9443697,39.603507 41.9969986,42.1145339 35.3840376,42.8502363 C36.4497241,43.7718314 37.3988589,45.5796134 37.3988589,48.3498081 C37.3988589,52.3233877 37.3644343,55.5214308 37.3644343,56.4995805 C37.3644343,57.2898704 37.8994906,58.2158915 39.4043363,57.9242662 C51.1972123,53.9929796 59.69664,42.8649897 59.69664,29.7482428 C59.6961482,13.3468997 46.39941,0.0511450837 29.9985587,0.0511450837 L29.9985587,0.050653304 Z" id="Shape"></path>
                                <path d="M11.5489533,42.6894244 C11.4835466,42.8369583 11.2514266,42.8812184 11.0399614,42.7804036 C10.8235783,42.6840148 10.7030923,42.4828769 10.772925,42.3348512 C10.8368564,42.1823995 11.0694682,42.1405983 11.2843759,42.2423967 C11.5007589,42.3392772 11.6237038,42.5423822 11.5484615,42.6899161 L11.5489533,42.6894244 Z M12.7518463,44.031491 C12.6107056,44.1627962 12.3338336,44.1018155 12.1459738,43.8937927 C11.9512291,43.6872453 11.9148374,43.4103733 12.0589288,43.277101 C12.2054792,43.1462877 12.4739908,43.2082519 12.6687356,43.4147993 C12.8624968,43.6242975 12.9008556,43.8987105 12.7523381,44.0319828 L12.7518463,44.031491 Z M13.9232655,45.7414089 C13.741307,45.868288 13.4432885,45.7497691 13.2593629,45.4856834 C13.0774045,45.221106 13.0774045,44.9039081 13.2642807,44.7775208 C13.4477145,44.6506416 13.741307,44.7652263 13.9281833,45.026853 C14.1091582,45.2948729 14.1091582,45.6120708 13.9232655,45.7409171 L13.9232655,45.7414089 Z M15.5269589,47.3942803 C15.3646716,47.5737798 15.0174752,47.5255854 14.7637169,47.281171 C14.504549,47.0416743 14.4322574,46.700871 14.5950365,46.5218632 C14.7602744,46.3418718 15.1089462,46.3920333 15.3641798,46.6349725 C15.6233477,46.8739774 15.7015407,47.2152725 15.5279425,47.3937885 L15.5269589,47.3942803 Z M17.7399673,48.3537424 C17.6676757,48.5863541 17.3342491,48.6920868 16.9973801,48.5927473 C16.6614946,48.4909489 16.4416691,48.2189947 16.5105182,47.9839241 C16.5793674,47.7493452 16.9152529,47.6396783 17.254089,47.7454109 C17.5899745,47.8467176 17.8098,48.1171964 17.7399673,48.3537424 L17.7399673,48.3537424 Z M20.1708342,48.5312748 C20.1791944,48.7761811 19.8939622,48.9787943 19.5413562,48.9837121 C19.1857995,48.9920724 18.8981084,48.7933934 18.894666,48.5524214 C18.894666,48.3050562 19.1739968,48.1049019 19.5290617,48.098017 C19.8816677,48.0916238 20.1713259,48.2883357 20.1713259,48.530783 L20.1708342,48.5312748 Z M22.432037,48.1467031 C22.47433,48.3852163 22.228932,48.6306143 21.8782931,48.696021 C21.5340473,48.7599524 21.2143906,48.6114349 21.1701304,48.3748889 C21.1278374,48.1299826 21.3776614,47.8845846 21.7219072,47.821145 C22.0730378,47.7606561 22.3877768,47.9047476 22.432037,48.1471949 L22.432037,48.1467031 Z" id="Shape"></path>
                            </g>
                        </g>
                    </g>
                </g>
            </g>
        </g>
    </g>
</svg>