<?xml version="1.0" encoding="UTF-8" standalone="no"?>
<svg width="60px" height="80px" viewBox="0 0 60 80" version="1.1" xmlns="http://www.w3.org/2000/svg" xmlns:xlink="http://www.w3.org/1999/xlink">
    <!-- Generator: sketchtool 40.1 (33804) - http://www.bohemiancoding.com/sketch -->
    <title>DA7D66CB-00E7-43FD-80AB-DEE6A6AD741A</title>
    <desc>Created with sketchtool.</desc>
    <defs></defs>
    <g id="Page-1" stroke="none" stroke-width="1" fill="none" fill-rule="evenodd">
        <g id="portfolio-copy" transform="translate(-987.000000, -2087.000000)" fill="#FCAA1A">
            <g id="Skill" transform="translate(90.000000, 1702.000000)">
                <g id="skills" transform="translate(0.000000, 350.000000)">
                    <g id="languages">
                        <g id="grunt-plain" transform="translate(897.000000, 35.000000)">
                            <path d="M52.5434732,41.6418371 C54.2745603,40.6582068 56.06501,39.6771298 57.5407745,38.3698782 C60.1948528,36.0196338 59.928679,32.6602268 57.164812,30.4574312 C56.7122527,30.0974264 56.0758612,29.7163574 55.9545829,29.236351 C55.4081926,27.0731304 54.9128668,24.8862924 56.2469273,22.7639234 C56.7614023,21.9449762 57.1788547,21.0270915 57.4443902,20.0977173 C58.193762,17.476831 56.9414047,15.3053124 54.3192418,14.5335999 C53.8705123,14.4008321 53.3796547,14.3970023 52.9443296,14.2374257 C52.6692196,14.1365733 52.2926188,13.8869954 52.2485756,13.6501837 C51.7564413,11.0254676 52.0858075,9.91992076 54.138601,8.74990501 C55.1075503,8.19776992 56.237991,7.92393644 57.3046011,7.54988886 C57.7169471,7.40499329 58.1554636,7.33350296 58.6201507,7.21924611 C56.1709688,3.79600854 51.8419744,2.35343593 47.542342,3.41940773 C44.1708073,4.25495089 41.747796,6.42774609 39.5615963,8.96756751 C39.3049971,9.26693324 38.8473314,9.55608607 38.4764753,9.56374575 C37.4622064,9.58480986 37.2413523,8.82905501 37.4181632,8.03181024 C37.7615721,6.4781723 38.2096632,4.94815171 38.6232858,3.37664119 C36.7051749,3.32621498 35.2408999,4.54410372 33.558324,5.717311 C33.3578958,4.67878638 33.0987434,3.81260451 33.0457639,2.93493312 C32.9915079,2.01896335 33.1364035,1.09086575 33.1983192,0.100214115 C30.2416836,1.16363268 27.9827171,2.85067667 27.3507937,6.15965738 L26.9678098,6.16348722 L26.085032,2.03236778 C25.726942,2.2608815 25.3388517,2.44343714 25.0331029,2.71663231 C23.2349936,4.32133476 22.1326383,6.2898719 21.9251887,8.72884089 C21.8996565,9.02437679 21.6858238,9.52736228 21.5268855,9.54012841 C21.2211367,9.56502236 20.8266633,9.37863687 20.5872984,9.15331469 C20.1034621,8.69884049 19.717925,8.14096064 19.257706,7.65840095 C16.487456,4.7496384 13.2308164,2.8538682 9.07671792,3.10472264 C5.9349735,3.29366135 3.25408635,4.47452831 1.4515089,7.06541425 C2.99493393,7.64818805 4.5524017,8.07330016 5.95029286,8.80479936 C7.70563563,9.72268406 8.11479008,11.0312123 7.91882999,12.9365571 C7.80904128,14.0057204 7.30988562,14.2438087 6.39008601,14.3874277 C3.20493676,14.8872217 1.69215044,17.3383185 2.63109924,20.4130407 C2.8245061,21.0456024 3.02684925,21.7349734 3.43025894,22.2315758 C4.88495937,24.0226638 4.56580614,26.0480102 4.37622912,28.0791013 C4.2855896,29.0429441 3.82983878,29.7240171 3.05940288,30.3208336 C-0.1480871,32.806399 -0.228513714,36.2704882 2.94450772,38.84031 C4.24282307,39.8916008 5.73199205,40.7424633 7.22371425,41.5109843 C9.26118848,42.5603601 10.0680079,44.2403827 10.0616248,46.3978586 C10.05588,48.1653292 9.97864495,49.9340764 9.87779253,51.6983554 C9.8056639,52.951351 9.63906591,54.1992402 9.51523446,55.4496825 L9.15522961,55.5479817 C8.42117718,54.5503087 7.58180418,53.6100833 6.98051949,52.5370901 C6.38434125,51.4736716 6.02816625,50.2762086 5.56667067,49.1374699 C0.837458081,53.0349692 0.708520175,64.2219283 8.26862193,67.672613 C9.32629574,68.155811 10.0073687,68.8190114 10.5933341,69.8064715 C12.6059144,73.1977937 15.5823374,75.2639918 19.4996242,75.9412349 C19.9049488,76.0108103 20.3243161,76.1818765 20.6658101,76.4123051 C25.8731142,79.9191608 34.1079059,79.9325653 39.2890395,76.4365607 C39.6030862,76.2240047 39.9675592,76.0159168 40.3326705,75.9584692 C44.6891122,75.2690982 47.7804304,72.8601296 49.8817352,69.0526316 C50.0751421,68.7028396 50.3917421,68.3204941 50.743449,68.1749602 C55.2262753,66.3238714 57.3984322,62.8782931 57.6952447,58.1503572 C57.9141838,54.6645656 56.9790648,51.5777155 54.3249865,48.952361 C53.7798728,51.6198437 52.6066655,53.7747664 50.3176986,55.4784063 C50.2047183,52.1872982 50.0023752,48.8955517 50.0138647,45.6057202 C50.0189711,43.8650585 50.9540901,42.5450407 52.5434732,41.6418371 L52.5434732,41.6418371 Z M9.65183204,8.80607598 C11.632497,8.79522477 14.2744475,11.0318506 14.0912535,12.9001736 C14.023593,13.5908212 13.1382619,14.5042378 12.432295,14.7404112 C11.7614349,14.965095 10.6865268,14.6701975 10.4733325,13.5518845 C10.3718417,13.0157071 10.2977982,12.4744232 10.2039671,11.9369692 C10.0258796,10.9131256 9.84268567,9.88992035 9.65183204,8.80607598 L9.65183204,8.80607598 Z M14.5884942,67.0713283 C13.5078414,66.8849428 12.446976,66.7904735 11.4365369,66.5134485 C7.0411586,65.3083259 4.58367872,62.1984968 4.50580533,57.6454568 C4.4834646,56.3413967 4.78729848,55.0309535 4.95453477,53.7249785 C4.95772631,53.7000845 5.12177107,53.6758289 5.20219768,53.6930631 C5.22964486,53.6981696 5.23092147,53.8309373 5.2436876,53.9056192 C7.46307918,58.6437681 11.6963276,59.9267641 16.3572414,60.364004 L14.190191,64.3923561 L14.5884942,67.0713283 L14.5884942,67.0713283 Z M14.0427422,31.8176623 L14.0427422,28.8654949 C15.9576616,30.3125357 18.6353572,31.7365974 20.3370822,33.7057728 C20.4909141,33.8774773 20.651129,34.0408837 20.7915564,34.2228011 C20.8828343,34.3383345 20.9434734,34.4800386 21.0104956,34.60387 C18.7668483,36.3407019 14.0427422,35.2517511 14.0427422,31.8176623 L14.0427422,31.8176623 Z M26.4220578,66.4745118 C25.9458811,67.1434569 25.4939602,67.8315513 24.9884214,68.4781558 C23.8056396,69.9903038 22.1268936,70.0854114 20.715598,68.7398614 C20.2655919,68.3115578 19.8270754,67.8698497 19.3840907,67.435163 L19.3866439,67.4409078 L19.1428109,67.1970747 C18.6238677,64.687892 18.6762088,64.6227847 21.3698621,64.6023589 C22.6260492,64.592146 23.8822363,64.5723585 25.1358702,64.6100186 C26.5407828,64.6515085 26.8254675,65.0938549 26.4220578,66.4745118 L26.4220578,66.4745118 Z M40.8248048,66.9781356 L40.5701205,67.4364396 L40.5733121,67.4332481 L40.566929,67.4428227 L40.5701205,67.4370779 C40.2318181,67.8041041 39.902452,68.1800666 39.5520217,68.5356033 C37.9575322,70.1543485 36.2085725,70.0496663 34.8285539,68.2426207 C34.3836543,67.6592086 33.9808829,67.0438811 33.5589623,66.4432347 C33.1829998,65.0932166 33.4964083,64.6374658 34.9064273,64.6068271 C36.3592128,64.5749117 37.8132749,64.5870396 39.2660604,64.6029972 C41.2224697,64.6253379 41.5448145,65.1270468 40.8248048,66.9781356 L40.8248048,66.9781356 Z M38.9481838,34.5757845 L39.6496826,33.7281136 C41.3494927,31.7531934 43.4048395,30.3310466 45.9580654,28.8686864 L45.9580654,31.8227688 C45.9580654,35.1847289 41.3201306,36.355383 38.9481838,34.5757845 L38.9481838,34.5757845 Z M54.5356277,54.2643474 L54.8471212,53.5622103 C55.8313898,56.7467213 55.9124547,59.8744229 54.0588127,62.7033972 C52.0679349,65.7410976 48.9734251,66.7987714 45.4467819,67.0170723 L45.7729565,64.3910795 L43.6729283,60.3844298 C48.0746896,59.8827209 52.3041083,58.8384515 54.5356277,54.2643474 L54.5356277,54.2643474 Z M49.5970506,13.1848583 C49.4776872,13.9010382 49.2517268,14.396364 48.3951195,14.6861551 C47.1172299,15.1182886 46.6659473,14.2035954 46.1521106,13.5372035 C45.9038094,13.2161353 46.0059384,12.4603805 46.1923239,11.9988849 C46.7993533,10.4880135 47.8072392,9.32374252 49.4610913,8.88139614 C49.7808828,8.79650138 50.116632,8.77288404 50.3132304,8.74160702 C50.054078,10.3558841 49.8325856,11.7716478 49.5970506,13.1848583 L49.5970506,13.1848583 Z" id="Shape"></path>
                        </g>
                    </g>
                </g>
            </g>
        </g>
    </g>
</svg>