<?xml version="1.0" encoding="UTF-8" standalone="no"?>
<svg width="61px" height="61px" viewBox="0 0 61 61" version="1.1" xmlns="http://www.w3.org/2000/svg" xmlns:xlink="http://www.w3.org/1999/xlink">
    <!-- Generator: sketchtool 40.1 (33804) - http://www.bohemiancoding.com/sketch -->
    <title>85FE459D-1699-4020-BA6F-B547286B8850</title>
    <desc>Created with sketchtool.</desc>
    <defs></defs>
    <g id="Page-1" stroke="none" stroke-width="1" fill="none" fill-rule="evenodd">
        <g id="portfolio-copy" transform="translate(-355.000000, -2216.000000)" fill="#80B5E2">
            <g id="Skill" transform="translate(90.000000, 1702.000000)">
                <g id="skills" transform="translate(0.000000, 350.000000)">
                    <g id="Tools" transform="translate(2.000000, 157.000000)">
                        <g id="photoshop-line" transform="translate(263.000000, 7.000000)">
                            <path d="M59.6304222,0.346212281 C42.3802882,0.340973856 25.2073019,0.341450076 7.95669159,0.341450076 C5.48939334,0.341450076 2.97971147,0.339545194 0.512413224,0.346688501 C0.356212911,0.347164722 0,0.419550233 0,0.459076532 L0,60.4799995 L60.0037791,60.4799995 L60.0037791,0.459076532 C60.0037791,0.419550233 59.8066238,0.346212281 59.6304222,0.346212281 L59.6304222,0.346212281 Z M53.5652783,54.6062963 C38.020966,54.5881999 22.4818921,54.5920097 6.93757979,54.5920097 C6.18705633,54.5920097 6.19038987,54.590581 6.19038987,53.817199 L6.19038987,7.24426577 C6.19086609,6.47897948 6.18324657,6.66708656 6.94186577,6.66708656 L53.5152752,6.66708656 C54.2953243,6.66708656 54.2891334,6.47850326 54.2891334,7.28188719 L54.2891334,30.5390662 C54.2891334,38.3109843 54.2857999,46.0829023 54.3062774,53.8543442 C54.3081823,54.4462862 54.1686497,54.6067725 53.5652783,54.6062963 L53.5652783,54.6062963 Z M26.5826266,18.8792843 C23.4071885,18.1349517 20.2107967,18.5021177 17.0177385,18.8283287 C16.3400767,18.8978569 16.2105448,19.1878751 16.2124496,19.7893416 C16.2329271,27.0312263 16.1914959,34.2731109 16.1914959,41.5149956 L16.1914959,41.9074013 L20.4774802,41.9074013 L20.4774802,33.4016275 C22.8585825,33.5802101 25.0377674,33.5378265 27.1679015,32.7777786 C30.5819261,31.5596067 32.288224,28.9151544 32.1039267,25.0539589 C31.9548697,21.9356672 29.9961749,19.6793347 26.5826266,18.8792843 L26.5826266,18.8792843 Z M25.652568,29.5199544 C24.1315198,30.2614297 22.5142751,30.2438095 20.8879822,30.0237957 C20.7613076,30.0066517 20.5665334,29.780447 20.5655809,29.6504388 C20.5465321,27.1117075 20.5512943,24.5734524 20.5512943,21.9651929 C22.0423406,21.7327973 23.4562392,21.6194568 24.8668042,21.9737649 C26.615962,22.4133164 27.6307878,23.5543406 27.8198473,25.2677819 C28.0274795,27.1507576 27.2260004,28.7532395 25.652568,29.5199544 L25.652568,29.5199544 Z M41.5111858,32.9039771 C40.811618,32.5206196 40.0444268,32.2625081 39.3177143,31.9262965 C38.6462435,31.6153245 37.9685818,31.3091147 37.3299701,30.9376628 C36.884704,30.679075 36.6823103,30.2271418 36.6823103,29.6942511 C36.6823103,28.793242 37.2985396,28.0670058 38.3509868,27.9808099 C39.1362743,27.9165201 39.9515638,27.9974776 40.7292318,28.1427248 C41.3845112,28.2646373 42.0059789,28.570847 42.6731638,28.8070524 L43.5146453,25.8216263 C41.9216879,25.0482442 40.3006334,24.7572735 38.6167178,24.8168011 C37.1851991,24.8668042 35.847972,25.2315891 34.6393245,26.0544981 C32.3806108,27.592214 31.2786366,31.6772331 34.6636117,33.8721333 C35.5231897,34.4297875 36.517538,34.7793333 37.4499777,35.2250756 C38.0300142,35.5027122 38.6352904,35.7389175 39.1838964,36.0689383 C39.8753685,36.485155 40.1106214,37.1628167 39.9906139,37.945247 C39.8729874,38.714343 39.3572406,39.2015166 38.6400526,39.3139046 C37.8400022,39.4396268 36.9894725,39.5210605 36.2027563,39.3824803 C35.0888766,39.1867537 34.0126183,38.7724419 32.8815947,38.44004 C32.6787248,39.1972306 32.4858555,40.0349024 32.2225056,40.8497156 C32.0782108,41.2964104 32.162978,41.5169005 32.6011009,41.6916734 C35.2760312,42.7541213 37.9985836,42.9727064 40.7358989,42.0331235 C42.781742,41.3306983 44.0289634,39.8787021 44.1913546,37.666658 C44.3494598,35.5108079 43.3779701,33.9278511 41.5111858,32.9039771 L41.5111858,32.9039771 Z" id="Shape"></path>
                        </g>
                    </g>
                </g>
            </g>
        </g>
    </g>
</svg>