<?xml version="1.0" encoding="UTF-8" standalone="no"?>
<svg width="56px" height="52px" viewBox="0 0 56 52" version="1.1" xmlns="http://www.w3.org/2000/svg" xmlns:xlink="http://www.w3.org/1999/xlink">
    <!-- Generator: sketchtool 40.1 (33804) - http://www.bohemiancoding.com/sketch -->
    <title>4FE6826D-FF8B-4F45-A3D8-9ECCE4EF64D3</title>
    <desc>Created with sketchtool.</desc>
    <defs></defs>
    <g id="Page-1" stroke="none" stroke-width="1" fill="none" fill-rule="evenodd">
        <g id="portfolio-copy" transform="translate(-453.000000, -2224.000000)" fill="#D03403">
            <g id="Skill" transform="translate(90.000000, 1702.000000)">
                <g id="skills" transform="translate(0.000000, 350.000000)">
                    <g id="Tools" transform="translate(2.000000, 157.000000)">
                        <g id="sketch" transform="translate(361.000000, 15.000000)">
                            <g id="Capa_1">
                                <path d="M55.963,16.713 C55.969,16.688 55.978,16.664 55.982,16.639 C55.998,16.527 55.995,16.414 55.973,16.301 C55.968,16.274 55.956,16.25 55.948,16.224 C55.932,16.169 55.921,16.114 55.896,16.062 C55.879,16.027 55.853,16 55.833,15.968 C55.822,15.951 55.821,15.932 55.809,15.915 L48.309,5.415 C48.203,5.267 48.06,5.172 47.905,5.102 C47.806,4.873 47.629,4.681 47.392,4.579 L38.142,0.579 C38.016,0.525 37.882,0.497 37.745,0.497 L18.245,0.497 C18.108,0.497 17.974,0.525 17.848,0.579 L8.598,4.579 C8.362,4.681 8.185,4.873 8.086,5.101 C7.932,5.171 7.788,5.267 7.682,5.415 L0.182,15.915 C0.17,15.931 0.169,15.951 0.158,15.968 C0.138,16 0.112,16.027 0.096,16.062 C0.071,16.114 0.06,16.17 0.044,16.224 C0.037,16.25 0.025,16.275 0.02,16.301 C-0.003,16.413 -0.005,16.527 0.011,16.639 C0.015,16.665 0.024,16.688 0.03,16.713 C0.05,16.801 0.081,16.885 0.124,16.966 C0.14,16.996 0.156,17.024 0.175,17.053 C0.189,17.074 0.197,17.098 0.213,17.119 L27.213,51.119 C27.221,51.129 27.234,51.133 27.242,51.142 C27.328,51.242 27.428,51.324 27.544,51.383 C27.562,51.392 27.581,51.398 27.6,51.406 C27.724,51.46 27.857,51.497 27.997,51.497 C28.137,51.497 28.27,51.46 28.394,51.406 C28.413,51.398 28.432,51.392 28.45,51.383 C28.565,51.324 28.666,51.242 28.752,51.142 C28.76,51.133 28.773,51.129 28.781,51.119 L55.781,17.119 C55.797,17.099 55.805,17.074 55.82,17.053 C55.839,17.025 55.855,16.996 55.871,16.966 C55.912,16.885 55.943,16.801 55.963,16.713 L55.963,16.713 Z M18.453,2.496 L37.539,2.496 L44.708,5.596 L37.493,9.496 L18.499,9.496 L11.284,5.596 L18.453,2.496 L18.453,2.496 Z M15.737,27.496 L40.255,27.496 L27.996,48.512 L15.737,27.496 L15.737,27.496 Z M15.777,25.496 L19.277,11.496 L36.745,11.496 L40.809,25.496 L15.777,25.496 L15.777,25.496 Z M2.801,15.69 L9.194,6.74 L17.308,11.126 L13.908,24.727 L2.855,15.721 C2.839,15.707 2.818,15.702 2.801,15.69 L2.801,15.69 Z M13.006,26.572 C13.017,26.72 13.055,26.867 13.133,27 L20.1,38.945 L5.267,20.266 L13.006,26.572 L13.006,26.572 Z M35.892,38.945 L42.86,27 C42.938,26.867 42.975,26.72 42.987,26.572 L50.727,20.266 L35.892,38.945 L35.892,38.945 Z M42.557,24.341 L38.715,11.109 L46.798,6.74 L53.191,15.69 C53.174,15.702 53.153,15.707 53.136,15.721 L42.557,24.341 L42.557,24.341 Z" id="Shape"></path>
                            </g>
                        </g>
                    </g>
                </g>
            </g>
        </g>
    </g>
</svg>