<?xml version="1.0" encoding="UTF-8" standalone="no"?>
<svg version="1.1" xmlns="http://www.w3.org/2000/svg" xmlns:xlink="http://www.w3.org/1999/xlink">
    <symbol id="apple" viewBox="0 0 55 68">
        <g id="Page-1" stroke="none" stroke-width="1" fill="none" fill-rule="evenodd">
            <g id="portfolio-copy" transform="translate(-541.000000, -2209.000000)" fill="#BEC7CC">
                <g id="Skill" transform="translate(90.000000, 1702.000000)">
                    <g id="skills" transform="translate(0.000000, 350.000000)">
                        <g id="Tools" transform="translate(2.000000, 157.000000)">
                            <g id="apple-original" transform="translate(449.000000, 0.000000)">
                                <path d="M45.7813167,36.064818 C45.8751386,46.2018977 54.6749866,49.5757119 54.7720437,49.6188484 C54.6976332,49.8560993 53.3663327,54.4264124 50.1364866,59.1460858 C47.344476,63.2267996 44.4462418,67.2924156 39.8818598,67.3776102 C35.3967413,67.4595696 33.9543642,64.717166 28.8259725,64.717166 C23.6991983,64.717166 22.0972162,67.2924156 17.850966,67.4595696 C13.4445716,67.6267235 10.0890904,63.0461654 7.27389391,58.9810886 C1.52164037,50.6643696 -2.87450915,35.4797791 3.02818297,25.2300052 C5.9603872,20.1398971 11.2014731,16.9170606 16.8895611,16.8340228 C21.216153,16.7515243 25.300102,19.7446588 27.9449093,19.7446588 C30.5880989,19.7446588 35.5509543,16.1449171 40.7683151,16.6733393 C42.9526401,16.7644652 49.0834165,17.5554809 53.0201622,23.3185186 C52.7036481,23.5153289 45.7052886,27.5895723 45.7813167,36.064818 M37.3519036,11.1718168 C39.6909808,8.34044411 41.2654634,4.39776714 40.8362551,0.476119223 C37.4640585,0.611460022 33.3865799,2.72299216 30.9682394,5.55328639 C28.8006298,8.05897838 26.9026233,12.0706738 27.4143302,15.914676 C31.1731378,16.2058474 35.0122871,14.004807 37.3519036,11.1718168" id="Shape"></path>
                            </g>
                        </g>
                    </g>
                </g>
            </g>
        </g>
    </symbol>
    <symbol id="atom" viewBox="0 0 60 55">
        <g id="Page-1" stroke="none" stroke-width="1" fill="none" fill-rule="evenodd">
            <g id="portfolio-copy" transform="translate(-851.000000, -2223.000000)" fill="#67595D">
                <g id="Skill" transform="translate(90.000000, 1702.000000)">
                    <g id="skills" transform="translate(0.000000, 350.000000)">
                        <g id="Tools" transform="translate(2.000000, 157.000000)">
                            <g id="atom-original" transform="translate(759.000000, 14.000000)">
                                <path d="M17.9166528,28.5636839 C17.5328129,29.3608897 17.1985008,30.0347524 16.8808567,30.7171873 C15.2912074,34.1350762 13.9744367,37.6477345 13.2948593,41.3689807 C12.9167342,43.4386679 12.7100512,45.5235945 13.25057,47.6013776 C13.7148924,49.3867566 14.6811592,50.3034957 16.3341469,50.3792159 C17.0575373,50.4130281 17.8142637,50.2596827 18.518605,50.0610956 C20.3835142,49.5329586 22.0060233,48.5128781 23.5751948,47.408029 C23.9561772,47.1394363 24.3457318,46.971804 24.8210074,47.1484847 C25.6629787,47.4618427 25.9677646,48.5781213 25.2577086,49.1081632 C22.6951253,51.0173616 19.9830064,52.663682 16.662268,52.7655948 C13.9425294,52.849411 11.9738026,51.3907244 11.106115,48.7981387 C10.4584448,46.8637003 10.4203466,44.8740194 10.6579844,42.8776712 C11.3637544,36.9352973 13.6572688,31.5362996 16.4112958,26.302553 C16.6479812,25.8529937 16.662268,25.4958226 16.4946357,25.0153085 C15.8069624,23.0403907 15.1673881,21.0483286 14.5392432,19.0534092 C14.4201862,18.6752841 14.2982718,18.5676565 13.8877632,18.6576636 C11.1894549,19.2510438 8.53114979,19.9753867 6.13762747,21.3931177 C5.21326877,21.94078 4.32653209,22.6208337 3.58742611,23.3970855 C2.35828144,24.6876636 2.33494627,26.1158716 3.33931128,27.5893213 C4.21557095,28.8756133 5.45043036,29.7552066 6.75339038,30.5500312 C7.16104161,30.7995747 7.59107557,31.0119725 8.00158417,31.2567537 C8.59829795,31.6134485 8.8025998,32.3049317 8.49638514,32.8802152 C8.18921803,33.455975 7.500116,33.6840882 6.87435231,33.362158 C5.04373158,32.4211313 3.33645392,31.3043765 1.96729819,29.7375861 C1.12818432,28.7775103 0.513373868,27.6983775 0.310024479,26.4192289 C0.0566711413,24.8238648 0.513850096,23.4180395 1.47202099,22.1550827 C2.46019425,20.8535513 3.75791577,19.9249066 5.1746943,19.1534171 C7.68727364,17.7852138 10.3946303,16.9680064 13.1758022,16.3655779 C13.3662935,16.3241461 13.5548798,16.2727134 13.8129954,16.2084226 C13.6820327,15.4664593 13.5415454,14.7464024 13.4291556,14.0211071 C12.9734053,11.0713504 12.7633887,8.11921251 13.4877316,5.17898035 C13.7744209,4.01603138 14.2244565,2.91689698 15.0073754,1.99063337 C16.6055969,0.101436581 18.6609972,-0.319072812 20.9659411,0.243828776 C23.2442163,0.800539399 25.1572245,2.06206758 26.9411748,3.53027874 C27.4459766,3.94554963 27.4597872,4.69560885 27.0478499,5.17898035 C26.6273405,5.67187641 25.9734794,5.7361672 25.4010532,5.34613641 C24.5019346,4.73418333 23.6275799,4.08032217 22.6932204,3.52742138 C21.6226597,2.89451426 20.4730451,2.44543118 19.1919916,2.43924022 C18.1338128,2.43400171 17.3113669,2.86451189 16.7084621,3.72172243 C15.9445923,4.80895113 15.6717136,6.06333589 15.5274165,7.34962793 C15.2221543,10.0703189 15.5845639,12.7448158 16.1146057,15.4064546 C16.1712769,15.689334 16.2798569,15.7893419 16.5774994,15.7593396 C18.725288,15.5450369 20.8735529,15.3312105 23.0246751,15.1516725 C23.4923311,15.1130981 23.7975933,14.9440371 24.0876162,14.5773415 C26.883075,11.0461103 29.9476027,7.77632829 33.5526493,5.04801763 C35.5609031,3.52837383 37.6829754,2.20350732 40.1245967,1.48011687 C41.6542413,1.02722396 43.2024588,0.859591681 44.7430566,1.40106301 C46.6670181,2.07730688 47.7423411,3.53932708 48.2966706,5.42614272 C48.884336,7.42915802 48.792424,9.47122402 48.5538337,11.5128138 C48.4924003,12.0357122 48.4009645,12.5562295 48.3023853,13.0734132 C48.1685652,13.7772783 47.6466192,14.1501649 46.9437066,14.0682537 C46.3046085,13.9939621 45.8874327,13.480112 45.9545809,12.7667223 C46.0474453,11.7828351 46.2717488,10.8041864 46.2817496,9.82220411 C46.2936553,8.6602076 46.2688914,7.46820872 46.0269675,6.33954818 C45.522642,3.99269621 43.8991805,3.07214733 41.4975623,3.60171296 C39.6959915,3.99841094 38.0982463,4.84609692 36.5771738,5.84855703 C33.4526414,7.90776724 30.7852879,10.4827325 28.3089019,13.2667618 C27.8483893,13.7844217 27.4054972,14.3182734 26.9578428,14.8468866 C26.9306978,14.8783176 26.9326027,14.9345125 26.8983143,15.0683326 L27.5464607,15.0683326 C33.9236309,15.1326234 40.2069842,15.8907785 46.347469,17.6580609 C49.2715094,18.5000322 52.0941132,19.5972616 54.6914612,21.2131035 C56.0734751,22.0726952 57.3421467,23.0675357 58.3455592,24.3657334 C60.3919113,27.0135615 60.2199929,29.9861772 57.8659976,32.3573168 C56.2763482,33.9588718 54.3185746,34.9703802 52.2331718,35.7561566 C51.6431253,35.9776026 50.9935502,35.6523388 50.767818,35.0870561 C50.5197032,34.4660547 50.7887721,33.823623 51.4202505,33.5174084 C52.3831837,33.0507049 53.3846913,32.6463872 54.2952394,32.0920577 C55.0467273,31.6339263 55.7629744,31.0662625 56.3654029,30.4257357 C57.6402654,29.0689619 57.687412,27.5859877 56.6063743,26.0677725 C55.7967866,24.9305399 54.7090816,24.0990457 53.5394655,23.3723216 C50.6535233,21.5788467 47.4866066,20.4678066 44.2258729,19.6005952 C40.8265569,18.6962381 37.3729509,18.0652359 33.8655311,17.8156924 C31.0705485,17.6171053 28.2655651,17.5599579 25.465344,17.4270903 C25.0610264,17.4075649 24.7848141,17.5270982 24.5600344,17.8737922 C22.9184763,20.4054207 21.2583452,22.9251435 19.6253591,25.4624867 C19.5063021,25.6472632 19.4558219,25.9796704 19.5372569,26.1754001 C22.3017609,32.7540148 25.8029897,38.8944996 30.4428799,44.3458824 C32.3963675,46.6398731 34.5208209,48.7614692 37.1005484,50.366834 C38.3111202,51.1197506 39.5745533,51.7478954 41.0399071,51.8455222 C42.367631,51.9350531 43.3362789,51.3792949 43.9953785,50.2525393 C44.61638,49.1910269 44.8654472,48.0166484 44.9768846,46.8098865 C45.336913,42.9157695 44.5668522,39.1597586 43.5458192,35.4423223 C42.5000224,31.6344026 41.0199055,27.9874479 39.3240573,24.4243094 C39.1873799,24.1376201 39.0754663,23.7971171 39.0902293,23.4885213 C39.1173743,22.9270484 39.5602665,22.527493 40.1141197,22.4408195 C40.6008248,22.364623 41.1132462,22.6322632 41.3565988,23.1542092 C41.9633133,24.4533594 42.5790762,25.7501284 43.1348344,27.0716613 C44.8502079,31.1534122 46.2312694,35.3413619 46.9608508,39.7217078 C47.4699386,42.779092 47.7132912,45.8474295 47.0065687,48.9100523 C46.8479847,49.5948683 46.6141568,50.2753982 46.3212765,50.9149725 C45.1178481,53.5456564 42.6776555,54.7343217 39.8502894,54.1161777 C37.5515364,53.6128046 35.6113832,52.4117574 33.8012403,50.9768822 C30.4719298,48.3381024 27.7707642,45.1207055 25.3277141,41.6737667 C22.5427323,37.7472662 20.1906418,33.5716984 18.22001,29.1803993 C18.1461947,29.017053 18.0614261,28.8584691 17.9166528,28.5636839 L17.9166528,28.5636839 Z M16.7127482,18.1104776 L18.2347731,22.9508598 C19.437249,21.1154768 20.5582899,19.4048655 21.7640994,17.5632915 L16.7127482,18.1104776 L16.7127482,18.1104776 Z M30.2252437,30.6057499 C28.3122355,30.6033688 26.7554459,29.0527701 26.7592557,27.1535726 C26.7625893,25.2238964 28.317474,23.6861559 30.2623895,23.6866322 C32.173969,23.6875846 33.727425,25.2367545 33.7288536,27.1416669 C33.7298061,29.0689619 32.1730165,30.608131 30.2252437,30.6057499 L30.2252437,30.6057499 Z" id="Shape"></path>
                            </g>
                        </g>
                    </g>
                </g>
            </g>
        </g>
    </symbol>
    <symbol id="bootstrap" viewBox="0 0 60 60">
        <g id="Page-1" stroke="none" stroke-width="1" fill="none" fill-rule="evenodd">
            <g id="portfolio-copy" transform="translate(-672.000000, -2095.000000)" fill="#5B4282">
                <g id="Skill" transform="translate(90.000000, 1702.000000)">
                    <g id="skills" transform="translate(0.000000, 350.000000)">
                        <g id="languages">
                            <g id="bootstrap-plain" transform="translate(582.000000, 43.000000)">
                                <path d="M35.85648,30.52944 C34.73616,30.1608 33.12336,30.24 31.01808,30.24 L22.56,30.24 L22.56,41.28 L31.60512,41.28 C33.01824,41.28 34.01088,41.1288 34.58256,41.0232 C35.59008,40.84272 36.43248,40.49328 37.10928,40.07184 C37.7856,39.65136 38.34192,39.01344 38.77872,38.20896 C39.21456,37.40448 39.43296,36.4632 39.43296,35.41056 C39.43296,34.17792 39.11712,33.23136 38.48496,32.32128 C37.85328,31.4112 36.97728,30.89808 35.85648,30.52944 L35.85648,30.52944 Z M34.69536,25.48176 C35.80752,25.15152 36.64608,24.57456 37.21008,23.808 C37.77456,23.04096 38.05632,22.06512 38.05632,20.90688 C38.05632,19.8096 37.7928,18.83616 37.26624,18.00096 C36.73968,17.16576 35.98848,16.84272 35.01072,16.53408 C34.03296,16.2264 32.35632,16.32 29.98032,16.32 L22.56,16.32 L22.56,25.92 L30.52176,25.92 C32.46192,25.92 33.85248,25.7376 34.69536,25.48176 L34.69536,25.48176 Z M60,7.98 C60,3.57264 56.42736,0 52.02,0 L7.98,0 C3.57264,0 0,3.57264 0,7.98 L0,52.02 C0,56.42736 3.57264,60 7.98,60 L52.02,60 C56.42736,60 60,56.42736 60,52.02 L60,7.98 L60,7.98 Z M42.98544,39.7176 C42.33168,41.04864 41.52288,42.07488 40.56048,42.7968 C39.5976,43.51872 38.3904,44.1312 36.93936,44.49984 C35.4888,44.86896 33.70992,45.12 31.60512,45.12 L18.24,45.12 L18.24,12 L31.4016,12 C33.92832,12 35.9544,12.29232 37.4808,12.96096 C39.00768,13.63056 40.20288,14.63952 41.06832,16.03056 C41.9328,17.4216 42.36528,18.86592 42.36528,20.38464 C42.36528,21.79824 41.98128,23.12448 41.21472,24.37248 C40.44768,25.62144 39.28944,26.6256 37.74096,27.39264 C39.74064,27.9792 41.27856,28.97856 42.35376,30.39168 C43.42896,31.80528 43.96656,33.47424 43.96656,35.39904 C43.96656,36.948 43.63968,38.38704 42.98544,39.7176 L42.98544,39.7176 Z" id="Shape"></path>
                            </g>
                        </g>
                    </g>
                </g>
            </g>
        </g>
    </symbol>
    <symbol id="css3" viewBox="0 0 50 70">
        <g id="Page-1" stroke="none" stroke-width="1" fill="none" fill-rule="evenodd">
            <g id="portfolio-copy" transform="translate(-452.000000, -2085.000000)" fill="#1572B6">
                <g id="Skill" transform="translate(90.000000, 1702.000000)">
                    <g id="skills" transform="translate(0.000000, 350.000000)">
                        <g id="languages">
                            <g id="css3-plain-wordmark" transform="translate(362.000000, 33.000000)">
                                <g id="Group">
                                    <path d="M0.372222222,13.8888889 L4.855,64.1627778 L24.9694444,69.7461111 L45.14,64.1555556 L49.6277778,13.8888889 L0.372222222,13.8888889 L0.372222222,13.8888889 Z M38.8222222,41.9377778 L37.5166667,54.1 L37.5216667,55.1416667 L25,58.6388889 L25,58.6394444 L24.99,58.6477778 L12.3683333,55.1894444 L11.5144444,45.5555556 L17.7038889,45.5555556 L18.1427778,50.4255556 L25.0022222,52.2561111 L25,52.2644444 L25,52.2466667 L31.8855556,50.305 L32.6122222,42.2222222 L18.2194444,42.2222222 L18.0961111,40.9138889 L17.815,37.7766667 L17.6677778,36.1111111 L33.16,36.1111111 L33.7233333,30 L10.1272222,30 L10.0033333,28.5616667 L9.72222222,25.2116667 L9.575,23.3333333 L40.4622222,23.3333333 L40.3138889,25.1855556 L38.8222222,41.9377778 L38.8222222,41.9377778 Z" id="Shape"></path>
                                    <path d="M38.8888889,7.43 L34.9172222,2.77777778 L38.8888889,2.77777778 L38.8888889,0 L30,0 L30,2.42388889 L34.6611111,6.66666667 L30,6.66666667 L30,9.44444444 L38.8888889,9.44444444 L38.8888889,7.43 Z M28.3333333,7.43 L24.5516667,2.77777778 L28.3333333,2.77777778 L28.3333333,0 L20,0 L20,2.42388889 L24.2961111,6.66666667 L20,6.66666667 L20,9.44444444 L28.3333333,9.44444444 L28.3333333,7.43 Z M18.3333333,6.66666667 L13.8888889,6.66666667 L13.8888889,2.77777778 L18.3333333,2.77777778 L18.3333333,0 L10.5555556,0 L10.5555556,9.44444444 L18.3333333,9.44444444 L18.3333333,6.66666667 Z" id="Shape"></path>
                                </g>
                            </g>
                        </g>
                    </g>
                </g>
            </g>
        </g>
    </symbol>
    <symbol id="git" viewBox="0 0 59 59">
        <g id="Page-1" stroke="none" stroke-width="1" fill="none" fill-rule="evenodd">
            <g id="portfolio-copy" transform="translate(-641.000000, -2218.000000)" fill="#F34F29">
                <g id="Skill" transform="translate(90.000000, 1702.000000)">
                    <g id="skills" transform="translate(0.000000, 350.000000)">
                        <g id="Tools" transform="translate(2.000000, 157.000000)">
                            <g id="git-plain" transform="translate(549.000000, 9.000000)">
                                <path d="M57.8225608,26.8353611 L32.0968897,1.11109023 C30.6163695,-0.37036341 28.2135581,-0.37036341 26.7307042,1.11109023 L21.3897232,6.45347156 L28.16595,13.2296984 C29.7412197,12.698074 31.5465954,13.0546684 32.801677,14.30975 C34.063293,15.5727662 34.4175536,17.3935446 33.8719269,18.9739485 L40.402645,25.5056001 C41.9825822,24.9609069 43.8061611,25.3128338 45.0673103,26.5767835 C46.8316124,28.3396854 46.8316124,31.1975747 45.0673103,32.96141 C43.3030083,34.725712 40.4460524,34.725712 38.6808169,32.96141 C37.3543231,31.6339827 37.0262003,29.6853157 37.6983153,28.0507692 L31.608206,21.9601931 L31.6072725,37.9887374 C32.0376128,38.2011071 32.4432156,38.484889 32.801677,38.8419501 C34.5655123,40.6048519 34.5655123,43.4618078 32.801677,45.2284436 C31.0378417,46.9913454 28.1790189,46.9913454 26.4170505,45.2284436 C24.653682,43.4622745 24.5089905,40.6053187 26.2718924,38.8419501 C26.7078337,38.4064756 27.1377073,38.0774192 27.6044538,37.8571148 L27.6044538,21.6801452 C27.1377073,21.4598408 26.7083004,21.1331182 26.2714256,20.6948432 C24.9360637,19.3599479 24.6863542,17.3996123 25.3715382,15.7585313 L18.7283342,9.07798757 L1.10678385,26.7163408 C-0.375136537,28.1991946 -0.365801605,30.602006 1.11611878,32.0839264 L26.8459907,57.8081973 C28.3269775,59.289651 30.7316559,59.289651 32.2149765,57.8081973 L57.8206938,32.2034135 C59.3026142,30.7210264 59.3040145,28.3168148 57.8225608,26.8353611 L57.8225608,26.8353611 Z" id="Shape"></path>
                            </g>
                        </g>
                    </g>
                </g>
            </g>
        </g>
    </symbol>
    <symbol id="github" viewBox="0 0 69 69">
        <g id="Page-1" stroke="none" stroke-width="1" fill="none" fill-rule="evenodd">
            <g id="portfolio-copy" transform="translate(-746.000000, -2218.000000)" fill="#181616">
                <g id="Skill" transform="translate(90.000000, 1702.000000)">
                    <g id="skills" transform="translate(0.000000, 350.000000)">
                        <g id="Tools" transform="translate(2.000000, 157.000000)">
                            <g id="github-original" transform="translate(654.002883, 9.000000)">
                                <g id="Group">
                                    <path d="M29.9985587,0.050653304 C13.5991827,0.050653304 0.300969146,13.3459162 0.300969146,29.7482428 C0.300969146,42.8699075 8.81023244,54.0013399 20.6099934,57.9286922 C22.0936926,58.2040888 22.6385844,57.2844608 22.6385844,56.5000723 C22.6385844,55.7919096 22.6110448,53.4525138 22.5982585,50.9709937 C14.3363604,52.7674647 12.5930015,47.4670637 12.5930015,47.4670637 C11.2420828,44.0344417 9.29561896,43.1216987 9.29561896,43.1216987 C6.60066647,41.2785085 9.49872395,41.3168674 9.49872395,41.3168674 C12.480384,41.5258737 14.0511282,44.3772121 14.0511282,44.3772121 C16.6998534,48.9163383 20.9984993,47.6042702 22.693172,46.845946 C22.9597166,44.92653 23.7293517,43.6159372 24.5786552,42.8743335 C17.9824147,42.1243695 11.0478299,39.5774427 11.0478299,28.1981534 C11.0478299,24.9558502 12.2084298,22.3066332 14.1081746,20.2264053 C13.799337,19.4789002 12.7828285,16.4583896 14.3953739,12.3677664 C14.3953739,12.3677664 16.8886968,11.5696081 22.5638339,15.4118825 C24.9332283,14.7533895 27.4742537,14.4224218 29.9985587,14.4111109 C32.5213883,14.4224218 35.0638891,14.752406 37.4377095,15.4108989 C43.1059617,11.5686245 45.5963339,12.3667829 45.5963339,12.3667829 C47.2128136,16.4569142 46.196305,19.4779166 45.8879592,20.2254217 C47.79213,22.3056496 48.9443697,24.9548666 48.9443697,28.1971698 C48.9443697,39.603507 41.9969986,42.1145339 35.3840376,42.8502363 C36.4497241,43.7718314 37.3988589,45.5796134 37.3988589,48.3498081 C37.3988589,52.3233877 37.3644343,55.5214308 37.3644343,56.4995805 C37.3644343,57.2898704 37.8994906,58.2158915 39.4043363,57.9242662 C51.1972123,53.9929796 59.69664,42.8649897 59.69664,29.7482428 C59.6961482,13.3468997 46.39941,0.0511450837 29.9985587,0.0511450837 L29.9985587,0.050653304 Z" id="Shape"></path>
                                    <path d="M11.5489533,42.6894244 C11.4835466,42.8369583 11.2514266,42.8812184 11.0399614,42.7804036 C10.8235783,42.6840148 10.7030923,42.4828769 10.772925,42.3348512 C10.8368564,42.1823995 11.0694682,42.1405983 11.2843759,42.2423967 C11.5007589,42.3392772 11.6237038,42.5423822 11.5484615,42.6899161 L11.5489533,42.6894244 Z M12.7518463,44.031491 C12.6107056,44.1627962 12.3338336,44.1018155 12.1459738,43.8937927 C11.9512291,43.6872453 11.9148374,43.4103733 12.0589288,43.277101 C12.2054792,43.1462877 12.4739908,43.2082519 12.6687356,43.4147993 C12.8624968,43.6242975 12.9008556,43.8987105 12.7523381,44.0319828 L12.7518463,44.031491 Z M13.9232655,45.7414089 C13.741307,45.868288 13.4432885,45.7497691 13.2593629,45.4856834 C13.0774045,45.221106 13.0774045,44.9039081 13.2642807,44.7775208 C13.4477145,44.6506416 13.741307,44.7652263 13.9281833,45.026853 C14.1091582,45.2948729 14.1091582,45.6120708 13.9232655,45.7409171 L13.9232655,45.7414089 Z M15.5269589,47.3942803 C15.3646716,47.5737798 15.0174752,47.5255854 14.7637169,47.281171 C14.504549,47.0416743 14.4322574,46.700871 14.5950365,46.5218632 C14.7602744,46.3418718 15.1089462,46.3920333 15.3641798,46.6349725 C15.6233477,46.8739774 15.7015407,47.2152725 15.5279425,47.3937885 L15.5269589,47.3942803 Z M17.7399673,48.3537424 C17.6676757,48.5863541 17.3342491,48.6920868 16.9973801,48.5927473 C16.6614946,48.4909489 16.4416691,48.2189947 16.5105182,47.9839241 C16.5793674,47.7493452 16.9152529,47.6396783 17.254089,47.7454109 C17.5899745,47.8467176 17.8098,48.1171964 17.7399673,48.3537424 L17.7399673,48.3537424 Z M20.1708342,48.5312748 C20.1791944,48.7761811 19.8939622,48.9787943 19.5413562,48.9837121 C19.1857995,48.9920724 18.8981084,48.7933934 18.894666,48.5524214 C18.894666,48.3050562 19.1739968,48.1049019 19.5290617,48.098017 C19.8816677,48.0916238 20.1713259,48.2883357 20.1713259,48.530783 L20.1708342,48.5312748 Z M22.432037,48.1467031 C22.47433,48.3852163 22.228932,48.6306143 21.8782931,48.696021 C21.5340473,48.7599524 21.2143906,48.6114349 21.1701304,48.3748889 C21.1278374,48.1299826 21.3776614,47.8845846 21.7219072,47.821145 C22.0730378,47.7606561 22.3877768,47.9047476 22.432037,48.1471949 L22.432037,48.1467031 Z" id="Shape"></path>
                                </g>
                            </g>
                        </g>
                    </g>
                </g>
            </g>
        </g>
    </symbol>
    <symbol id="grunt" viewBox="0 0 60 80">
        <g id="Page-1" stroke="none" stroke-width="1" fill="none" fill-rule="evenodd">
            <g id="portfolio-copy" transform="translate(-987.000000, -2087.000000)" fill="#FCAA1A">
                <g id="Skill" transform="translate(90.000000, 1702.000000)">
                    <g id="skills" transform="translate(0.000000, 350.000000)">
                        <g id="languages">
                            <g id="grunt-plain" transform="translate(897.000000, 35.000000)">
                                <path d="M52.5434732,41.6418371 C54.2745603,40.6582068 56.06501,39.6771298 57.5407745,38.3698782 C60.1948528,36.0196338 59.928679,32.6602268 57.164812,30.4574312 C56.7122527,30.0974264 56.0758612,29.7163574 55.9545829,29.236351 C55.4081926,27.0731304 54.9128668,24.8862924 56.2469273,22.7639234 C56.7614023,21.9449762 57.1788547,21.0270915 57.4443902,20.0977173 C58.193762,17.476831 56.9414047,15.3053124 54.3192418,14.5335999 C53.8705123,14.4008321 53.3796547,14.3970023 52.9443296,14.2374257 C52.6692196,14.1365733 52.2926188,13.8869954 52.2485756,13.6501837 C51.7564413,11.0254676 52.0858075,9.91992076 54.138601,8.74990501 C55.1075503,8.19776992 56.237991,7.92393644 57.3046011,7.54988886 C57.7169471,7.40499329 58.1554636,7.33350296 58.6201507,7.21924611 C56.1709688,3.79600854 51.8419744,2.35343593 47.542342,3.41940773 C44.1708073,4.25495089 41.747796,6.42774609 39.5615963,8.96756751 C39.3049971,9.26693324 38.8473314,9.55608607 38.4764753,9.56374575 C37.4622064,9.58480986 37.2413523,8.82905501 37.4181632,8.03181024 C37.7615721,6.4781723 38.2096632,4.94815171 38.6232858,3.37664119 C36.7051749,3.32621498 35.2408999,4.54410372 33.558324,5.717311 C33.3578958,4.67878638 33.0987434,3.81260451 33.0457639,2.93493312 C32.9915079,2.01896335 33.1364035,1.09086575 33.1983192,0.100214115 C30.2416836,1.16363268 27.9827171,2.85067667 27.3507937,6.15965738 L26.9678098,6.16348722 L26.085032,2.03236778 C25.726942,2.2608815 25.3388517,2.44343714 25.0331029,2.71663231 C23.2349936,4.32133476 22.1326383,6.2898719 21.9251887,8.72884089 C21.8996565,9.02437679 21.6858238,9.52736228 21.5268855,9.54012841 C21.2211367,9.56502236 20.8266633,9.37863687 20.5872984,9.15331469 C20.1034621,8.69884049 19.717925,8.14096064 19.257706,7.65840095 C16.487456,4.7496384 13.2308164,2.8538682 9.07671792,3.10472264 C5.9349735,3.29366135 3.25408635,4.47452831 1.4515089,7.06541425 C2.99493393,7.64818805 4.5524017,8.07330016 5.95029286,8.80479936 C7.70563563,9.72268406 8.11479008,11.0312123 7.91882999,12.9365571 C7.80904128,14.0057204 7.30988562,14.2438087 6.39008601,14.3874277 C3.20493676,14.8872217 1.69215044,17.3383185 2.63109924,20.4130407 C2.8245061,21.0456024 3.02684925,21.7349734 3.43025894,22.2315758 C4.88495937,24.0226638 4.56580614,26.0480102 4.37622912,28.0791013 C4.2855896,29.0429441 3.82983878,29.7240171 3.05940288,30.3208336 C-0.1480871,32.806399 -0.228513714,36.2704882 2.94450772,38.84031 C4.24282307,39.8916008 5.73199205,40.7424633 7.22371425,41.5109843 C9.26118848,42.5603601 10.0680079,44.2403827 10.0616248,46.3978586 C10.05588,48.1653292 9.97864495,49.9340764 9.87779253,51.6983554 C9.8056639,52.951351 9.63906591,54.1992402 9.51523446,55.4496825 L9.15522961,55.5479817 C8.42117718,54.5503087 7.58180418,53.6100833 6.98051949,52.5370901 C6.38434125,51.4736716 6.02816625,50.2762086 5.56667067,49.1374699 C0.837458081,53.0349692 0.708520175,64.2219283 8.26862193,67.672613 C9.32629574,68.155811 10.0073687,68.8190114 10.5933341,69.8064715 C12.6059144,73.1977937 15.5823374,75.2639918 19.4996242,75.9412349 C19.9049488,76.0108103 20.3243161,76.1818765 20.6658101,76.4123051 C25.8731142,79.9191608 34.1079059,79.9325653 39.2890395,76.4365607 C39.6030862,76.2240047 39.9675592,76.0159168 40.3326705,75.9584692 C44.6891122,75.2690982 47.7804304,72.8601296 49.8817352,69.0526316 C50.0751421,68.7028396 50.3917421,68.3204941 50.743449,68.1749602 C55.2262753,66.3238714 57.3984322,62.8782931 57.6952447,58.1503572 C57.9141838,54.6645656 56.9790648,51.5777155 54.3249865,48.952361 C53.7798728,51.6198437 52.6066655,53.7747664 50.3176986,55.4784063 C50.2047183,52.1872982 50.0023752,48.8955517 50.0138647,45.6057202 C50.0189711,43.8650585 50.9540901,42.5450407 52.5434732,41.6418371 L52.5434732,41.6418371 Z M9.65183204,8.80607598 C11.632497,8.79522477 14.2744475,11.0318506 14.0912535,12.9001736 C14.023593,13.5908212 13.1382619,14.5042378 12.432295,14.7404112 C11.7614349,14.965095 10.6865268,14.6701975 10.4733325,13.5518845 C10.3718417,13.0157071 10.2977982,12.4744232 10.2039671,11.9369692 C10.0258796,10.9131256 9.84268567,9.88992035 9.65183204,8.80607598 L9.65183204,8.80607598 Z M14.5884942,67.0713283 C13.5078414,66.8849428 12.446976,66.7904735 11.4365369,66.5134485 C7.0411586,65.3083259 4.58367872,62.1984968 4.50580533,57.6454568 C4.4834646,56.3413967 4.78729848,55.0309535 4.95453477,53.7249785 C4.95772631,53.7000845 5.12177107,53.6758289 5.20219768,53.6930631 C5.22964486,53.6981696 5.23092147,53.8309373 5.2436876,53.9056192 C7.46307918,58.6437681 11.6963276,59.9267641 16.3572414,60.364004 L14.190191,64.3923561 L14.5884942,67.0713283 L14.5884942,67.0713283 Z M14.0427422,31.8176623 L14.0427422,28.8654949 C15.9576616,30.3125357 18.6353572,31.7365974 20.3370822,33.7057728 C20.4909141,33.8774773 20.651129,34.0408837 20.7915564,34.2228011 C20.8828343,34.3383345 20.9434734,34.4800386 21.0104956,34.60387 C18.7668483,36.3407019 14.0427422,35.2517511 14.0427422,31.8176623 L14.0427422,31.8176623 Z M26.4220578,66.4745118 C25.9458811,67.1434569 25.4939602,67.8315513 24.9884214,68.4781558 C23.8056396,69.9903038 22.1268936,70.0854114 20.715598,68.7398614 C20.2655919,68.3115578 19.8270754,67.8698497 19.3840907,67.435163 L19.3866439,67.4409078 L19.1428109,67.1970747 C18.6238677,64.687892 18.6762088,64.6227847 21.3698621,64.6023589 C22.6260492,64.592146 23.8822363,64.5723585 25.1358702,64.6100186 C26.5407828,64.6515085 26.8254675,65.0938549 26.4220578,66.4745118 L26.4220578,66.4745118 Z M40.8248048,66.9781356 L40.5701205,67.4364396 L40.5733121,67.4332481 L40.566929,67.4428227 L40.5701205,67.4370779 C40.2318181,67.8041041 39.902452,68.1800666 39.5520217,68.5356033 C37.9575322,70.1543485 36.2085725,70.0496663 34.8285539,68.2426207 C34.3836543,67.6592086 33.9808829,67.0438811 33.5589623,66.4432347 C33.1829998,65.0932166 33.4964083,64.6374658 34.9064273,64.6068271 C36.3592128,64.5749117 37.8132749,64.5870396 39.2660604,64.6029972 C41.2224697,64.6253379 41.5448145,65.1270468 40.8248048,66.9781356 L40.8248048,66.9781356 Z M38.9481838,34.5757845 L39.6496826,33.7281136 C41.3494927,31.7531934 43.4048395,30.3310466 45.9580654,28.8686864 L45.9580654,31.8227688 C45.9580654,35.1847289 41.3201306,36.355383 38.9481838,34.5757845 L38.9481838,34.5757845 Z M54.5356277,54.2643474 L54.8471212,53.5622103 C55.8313898,56.7467213 55.9124547,59.8744229 54.0588127,62.7033972 C52.0679349,65.7410976 48.9734251,66.7987714 45.4467819,67.0170723 L45.7729565,64.3910795 L43.6729283,60.3844298 C48.0746896,59.8827209 52.3041083,58.8384515 54.5356277,54.2643474 L54.5356277,54.2643474 Z M49.5970506,13.1848583 C49.4776872,13.9010382 49.2517268,14.396364 48.3951195,14.6861551 C47.1172299,15.1182886 46.6659473,14.2035954 46.1521106,13.5372035 C45.9038094,13.2161353 46.0059384,12.4603805 46.1923239,11.9988849 C46.7993533,10.4880135 47.8072392,9.32374252 49.4610913,8.88139614 C49.7808828,8.79650138 50.116632,8.77288404 50.3132304,8.74160702 C50.054078,10.3558841 49.8325856,11.7716478 49.5970506,13.1848583 L49.5970506,13.1848583 Z" id="Shape"></path>
                            </g>
                        </g>
                    </g>
                </g>
            </g>
        </g>
    </symbol>
    <symbol id="gulp" viewBox="0 0 55 122">
        <g id="Page-1" stroke="none" stroke-width="1" fill="none" fill-rule="evenodd">
            <g id="portfolio-copy" transform="translate(-1092.000000, -2052.000000)" fill="#EB4A4B">
                <g id="Skill" transform="translate(90.000000, 1702.000000)">
                    <g id="skills" transform="translate(0.000000, 350.000000)">
                        <g id="languages">
                            <g id="gulp-plain" transform="translate(1002.000808, 0.000000)">
                                <path d="M0.947767857,32.8615179 C1.80910714,41.9286607 2.66357143,50.9447321 3.53767857,60.163125 C4.96276786,57.7126786 5.99401786,55.3624107 7.54973214,53.4374107 C8.99839286,51.6440179 10.8241964,49.9891071 12.8110714,48.8429464 C15.4049107,47.3461607 18.8060714,48.7555357 19.6467857,51.4102679 C19.8726786,52.1223214 19.3334821,53.0769643 19.1449107,53.920625 C18.5104464,53.5857143 17.6923214,53.4010714 17.2778571,52.8883929 C15.516875,50.7109821 14.4561607,50.4536607 12.5085714,52.3354464 C8.875625,55.8475893 6.83276786,60.2475893 6.05294643,65.1926786 C5.90267857,66.1492857 6.50080357,67.2227679 6.75321429,68.2422321 C7.74616071,67.9004464 8.89919643,67.7747321 9.70160714,67.1775893 C12.3101786,65.2358929 13.9267857,62.5949107 14.8185714,59.4383036 C15.0120536,58.7547321 16.0609821,58.31375 16.7170536,57.7608036 C17.0313393,58.4070536 17.7483036,59.1682143 17.5980357,59.6799107 C16.2161607,64.4334821 14.7164286,69.1566071 13.1430357,73.85125 C12.9839286,74.3266071 12.1108036,74.5633036 11.5676786,74.9109821 C11.3486607,74.2863393 10.8880357,73.6322321 10.9616964,73.0439286 C11.1266964,71.7101786 11.5558929,70.4088393 11.8554464,69.1870536 L4.74473214,72.4605357 C5.1425,77 5.555,82.0924107 6.04410714,87.1779464 C6.41928571,91.0613393 7.05473214,92.0670536 10.8791964,92.8036607 C15.3420536,93.6630357 19.8883929,94.2120536 24.4249107,94.5459821 C31.1280357,95.04 37.7722321,94.4291071 44.2936607,92.6759821 C46.7215179,92.0238393 47.6899107,90.426875 47.86375,88.0432143 C48.0228571,85.848125 48.3783929,83.6667857 48.6249107,81.4775893 C49.1091071,77.165 49.5795536,72.8514286 50.0745536,68.358125 C48.4373214,69.3952679 47.1497321,70.5561607 45.6441071,71.0482143 C44.5480357,71.4066964 43.1651786,70.8822321 41.9090179,70.750625 C42.1496429,69.5975893 42.1349107,68.2982143 42.6908036,67.3258929 C43.5963393,65.7367857 44.8750893,64.3588393 45.9947321,62.8915179 L45.5125,62.3110714 C44.7100893,62.7854464 43.7132143,63.0967857 43.1425893,63.7695536 C41.9816964,65.1386607 40.8453571,66.6040179 40.0684821,68.2088393 C38.768125,70.895 37.7771429,73.7304464 36.6133036,76.484375 C36.1075,77.6786607 35.6714286,79.5054464 33.9772321,78.808125 C32.1651786,78.0607143 33.44,76.4647321 33.8652679,75.329375 C34.5419643,73.5183036 35.4357143,71.7877679 36.0407143,70.4559821 C34.3258929,70.6602679 32.5875,70.9067857 30.84125,71.0590179 C30.1026786,71.121875 29.2246429,70.7172321 28.620625,70.9902679 C26.6121429,71.8977679 25.3392857,71.5333929 24.921875,69.3098214 C23.9917857,69.9138393 23.2041071,70.7319643 22.2759821,70.9519643 C21.1494643,71.2200893 19.62125,71.3958929 18.79625,70.833125 C18.1352679,70.3823214 17.8946429,68.688125 18.1205357,67.6941964 C18.569375,65.718125 19.408125,63.8186607 20.2046429,61.9398214 C20.6976786,60.7759821 21.1936607,58.9177679 22.8574107,59.7270536 C24.5015179,60.5255357 23.0086607,61.8730357 22.6295536,62.954375 C22.04125,64.6259821 21.4421429,66.2946429 20.8489286,67.9642857 L21.7917857,68.5339286 C22.6894643,67.7541071 23.808125,67.1186607 24.4366964,66.1620536 C25.4659821,64.5984821 26.0876786,62.7716964 27.0619643,61.166875 C27.465625,60.5019643 28.3348214,60.1208929 28.9938393,59.6111607 C29.1274107,60.4577679 29.4475893,61.3279464 29.3415179,62.1450893 C29.2364286,62.9710714 28.6559821,63.7263393 28.3780357,64.5434821 C27.960625,65.7672321 27.62375,67.0184821 27.1994643,68.4416071 C29.2059821,68.5182143 30.0653571,67.6735714 30.6320536,66.1836607 C32.4254464,61.47625 34.2384821,56.77375 36.2096429,52.1390179 C36.5465179,51.3454464 37.6916964,50.8975893 38.4646429,50.2886607 C38.5540179,51.2452679 38.9802679,52.3295536 38.6767857,53.1358929 C37.0611607,57.4072321 35.2471429,61.6019643 33.5421429,65.8399107 C33.254375,66.5539286 33.1620536,67.3465179 32.9803571,68.1027679 C35.9847321,66.7523214 38.4921429,65.2594643 39.4075,62.0665179 C39.6314286,61.290625 40.54875,60.7141071 41.146875,60.0452679 L42.5375893,61.5184821 C42.9599107,61.1629464 43.346875,60.7583036 43.8055357,60.4626786 C45.2492857,59.5325893 46.8040179,58.7125 48.3263393,60.1533036 C49.9016964,61.6432143 48.709375,63.0948214 47.8863393,64.3833929 C46.990625,65.7888393 45.8935714,67.0646429 44.8839286,68.3964286 C47.1546429,66.9330357 50.2552679,66.2769643 50.6677679,63.1144643 C51.6734821,55.3899107 52.5574107,47.6496429 53.4541071,39.9113393 C53.7202679,37.6209821 53.8626786,35.3158929 54.0699107,32.9292857 C36.1850893,37.2595536 18.6842857,37.2860714 0.947767857,32.8615179 L0.947767857,32.8615179 Z M8.62419643,93.1346429 C9.48553571,95.4102679 10.79375,97.645625 11.1365179,100.020446 C11.8603571,105.075536 12.0440179,110.207232 12.5566964,115.296696 C12.6313393,116.038214 13.1116071,117.056696 13.7107143,117.382768 C22.5303571,122.175625 31.4354464,123.006518 40.4338393,117.764821 C41.7764286,116.983036 42.0249107,115.950804 42.19875,114.499196 C43.0404464,107.446429 41.1665179,99.9654464 45.6755357,93.3241964 C33.0491071,96.45625 20.7261607,96.5534821 8.62419643,93.1346429 L8.62419643,93.1346429 Z M39.0617857,34.1275 C43.3458929,33.7140179 47.5779464,32.7083036 51.8149107,31.8774107 C52.6133929,31.72125 53.3225,31.1133036 54.0728571,30.7135714 C53.0838393,29.844375 52.2283929,29.4259821 51.3346429,29.3208929 C46.8855357,28.7954464 42.4207143,28.3908036 37.9745536,27.8398214 C37.3027679,27.7563393 36.1035714,26.9274107 36.1536607,26.7761607 C37.4510714,22.8672321 37.3872321,18.4426786 40.3316964,15.1485714 C44.0530357,10.9842857 47.8126786,6.85633929 51.5438393,2.72642857 C48.7683036,-0.259285714 48.7309821,-0.263214286 46.2157143,2.35026786 C44.7935714,3.82741071 43.4941964,5.44401786 41.95125,6.78169643 C36.2420536,11.7297321 32.2319643,17.5901786 31.4501786,25.3166964 C31.2704464,27.0894643 30.2971429,27.7298214 28.4359821,27.7573214 C22.2916964,27.8466964 16.1405357,28.015625 10.01,28.4192857 C6.97223214,28.6186607 3.97178571,29.3984821 0.953660714,29.9150893 L0.926160714,31.0435714 C2.81482143,31.6259821 4.66714286,32.3910714 6.59607143,32.7613393 C17.3446429,34.821875 28.194375,35.1754464 39.0617857,34.1275 L39.0617857,34.1275 Z M35.6282143,31.4285714 C33.1954464,33.3928571 31.185,33.3928571 29.2433036,31.4285714 L35.6282143,31.4285714 L35.6282143,31.4285714 Z" id="Shape"></path>
                            </g>
                        </g>
                    </g>
                </g>
            </g>
        </g>
    </symbol>
    <symbol id="html5" viewBox="0 0 50 70">
        <g id="Page-1" stroke="none" stroke-width="1" fill="none" fill-rule="evenodd">
            <g id="portfolio-copy" transform="translate(-357.000000, -2085.000000)" fill="#E44D26">
                <g id="Skill" transform="translate(90.000000, 1702.000000)">
                    <g id="skills" transform="translate(0.000000, 350.000000)">
                        <g id="languages">
                            <g id="html5-plain-wordmark" transform="translate(267.000000, 33.000000)">
                                <path d="M0.316111111,14.4444444 L4.80888889,64.3994444 L24.9694444,69.7783333 L45.1861111,64.5011111 L49.6838889,14.4444444 L0.316111111,14.4444444 L0.316111111,14.4444444 Z M40.3388889,25.8172222 L40.0572222,29.0583333 L39.9333333,30.5555556 L16.2838889,30.5555556 L16.8488889,37.2222222 L39.3711111,37.2222222 L39.2205556,38.4616667 L37.7677778,54.5222222 L37.6611111,55.4611111 L25,58.8688889 L25,58.8661111 L24.985,58.8727778 L12.3311111,55.5861111 L11.4722222,46.1111111 L17.6766667,46.1111111 L18.1161111,50.8111111 L24.9966667,52.555 L25,52.425 L25,52.4316667 L31.8955556,50.96 L32.6155556,43.3333333 L11.1961111,43.3333333 L9.67722222,26.2022222 L9.52888889,24.4444444 L40.4866667,24.4444444 L40.3388889,25.8172222 L40.3388889,25.8172222 Z M4.97555556,0.348333333 L8.09888889,0.348333333 L8.09888889,3.435 L10.9566667,3.435 L10.9566667,0.348333333 L14.0805556,0.348333333 L14.0805556,9.69388889 L10.9566667,9.69388889 L10.9566667,6.56444444 L8.09944444,6.56444444 L8.09944444,9.69388889 L4.97555556,9.69388889 L4.97555556,0.348333333 L4.97555556,0.348333333 Z M18.1877778,3.44777778 L15.4377778,3.44777778 L15.4377778,0.348333333 L24.0627778,0.348333333 L24.0627778,3.44777778 L21.3116667,3.44777778 L21.3116667,9.69388889 L18.1877778,9.69388889 L18.1877778,3.44777778 L18.1877778,3.44777778 Z M25.4316667,0.348333333 L28.6883333,0.348333333 L30.6922222,3.63222222 L32.6938889,0.348333333 L35.9522222,0.348333333 L35.9522222,9.69388889 L32.8405556,9.69388889 L32.8405556,5.06166667 L30.6922222,8.38444444 L30.6377778,8.38444444 L28.4877778,5.06166667 L28.4877778,9.69388889 L25.4311111,9.69388889 L25.4311111,0.348333333 L25.4316667,0.348333333 Z M37.5072222,0.348333333 L40.6316667,0.348333333 L40.6316667,6.605 L45.0244444,6.605 L45.0244444,9.69444444 L37.5072222,9.69444444 L37.5072222,0.348333333 L37.5072222,0.348333333 Z" id="Shape"></path>
                            </g>
                        </g>
                    </g>
                </g>
            </g>
        </g>
    </symbol>
    <symbol id="sass" viewBox="0 0 80 60">
        <g id="Page-1" stroke="none" stroke-width="1" fill="none" fill-rule="evenodd">
            <g id="portfolio-copy" transform="translate(-547.000000, -2097.000000)" fill="#CB6699">
                <g id="Skill" transform="translate(90.000000, 1702.000000)">
                    <g id="skills" transform="translate(0.000000, 350.000000)">
                        <g id="languages">
                            <g id="sass-original" transform="translate(457.000000, 45.000000)">
                                <path d="M0.139041703,24.8598946 C0.139041703,25.3062248 0.270464682,25.6008155 0.344112342,25.8871525 C0.824091919,27.7492955 1.85579405,29.3473227 3.07986895,30.8050385 C4.82328683,32.8824104 6.95843408,34.5547202 9.1456426,36.1273517 C11.0427047,37.4911032 12.9784954,38.8243798 14.8831762,40.177973 C15.2101465,40.410344 15.5193397,40.6776343 15.8742452,40.9627015 C15.5688614,41.1277738 15.3149039,41.2731645 15.0507882,41.407127 C12.5372443,42.6819934 10.1189345,44.1111389 7.88982302,45.8424939 C6.54638812,46.886259 5.24739577,47.9954181 4.32997449,49.4448803 C2.85384682,51.7762096 2.33132937,54.2599135 3.43160002,56.9118641 C3.75285619,57.6864343 4.24299406,58.3556122 4.93439322,58.8501943 C5.15851066,59.0101875 5.40992854,59.1689109 5.6721396,59.2311305 C6.34385705,59.389219 7.02827238,59.4927067 7.70824344,59.6177807 L9.63387579,59.6165109 C11.763309,59.4266778 13.7016392,58.697185 15.4533107,57.4883475 C18.190972,55.5989041 20.035338,53.0656786 20.8283201,49.8143883 C21.4048035,47.4513143 21.4282946,45.0857007 20.7489584,42.7334198 C20.6861039,42.5150164 20.6067422,42.3010572 20.5242061,42.0896377 C20.4416699,41.8782181 20.3445312,41.6725126 20.2302503,41.4090317 L24.5957788,38.8986623 L24.6611729,38.954533 C24.5818112,39.2142045 24.4973703,39.4732411 24.4256274,39.7354521 C23.9069193,41.6299747 23.562172,43.5575117 23.6859763,45.5237773 C23.8180342,47.6189262 24.4027712,49.5801126 25.6293857,51.3305143 C26.6210895,52.7463271 28.9841636,52.7990232 30.038087,51.3781313 C30.4120393,50.8733909 30.7745636,50.3457943 31.0469329,49.7826437 C31.7586487,48.3128649 32.4176683,46.8170556 33.0976393,45.3314045 L33.2163644,45.05967 C33.1674776,45.7631321 33.1103372,46.3808836 33.0843066,46.99927 C33.0436734,47.9649432 33.1001789,48.9249024 33.4303236,49.8435934 C33.7128512,50.6295917 34.1934657,51.2168683 35.0937449,51.320356 C35.7095917,51.3908292 36.2003644,51.1089364 36.6530436,50.7514913 C37.3603151,50.1934198 37.9348938,49.5039254 38.3615423,48.7204666 C39.5684751,46.504053 40.8077874,44.3009721 41.9017092,42.0286879 C43.0851509,39.5710147 44.1200275,37.0415985 45.2190283,34.5420223 L45.4006079,34.0988666 C45.6602794,35.1191406 45.8412241,36.1184632 46.1745432,37.0644547 C46.5618283,38.1621857 47.041173,39.2338862 47.5630556,40.2757466 C47.8100292,40.7677891 47.781459,41.0871406 47.4392513,41.4998215 C46.0069313,43.2267321 44.5993721,44.9745943 43.1905432,46.7205517 C42.8788104,47.1059322 42.5683475,47.4982964 42.308676,47.9192309 C42.1518572,48.175093 42.0477347,48.4868258 42.003927,48.7852258 C41.9194862,49.3553603 42.2718521,49.9051781 42.8819849,50.0366011 C43.4394215,50.156596 44.033047,50.2010386 44.6012768,50.1591356 C46.5675424,50.0143798 48.3528632,49.3242505 49.9312088,48.1547764 C51.9762011,46.6399202 52.6326811,44.5727066 52.1374641,42.1226521 C52.0035015,41.4579185 51.7666862,40.8115968 51.5362198,40.1709891 C51.4327322,39.8821125 51.4257483,39.6795815 51.6143118,39.4103866 C53.2491628,37.0758827 54.6459288,34.5991627 55.9449211,32.0653023 C55.9963475,31.965624 56.0490437,31.8659457 56.1391986,31.7592836 C56.5601331,33.9496666 57.1937569,36.0606878 58.3289467,37.9761619 C57.7499237,38.5342334 57.1766148,39.0402436 56.6579067,39.5976802 C55.515733,40.8255645 54.525299,42.1588411 54.0084956,43.7848036 C53.7862828,44.4857262 53.6154964,45.1980768 53.7145398,45.9466164 C53.8681841,47.1091066 54.8205245,47.86463 55.9639679,47.5998794 C58.410848,47.0335543 60.523139,45.8805875 62.0665654,43.8381347 C63.1052514,42.4629551 63.1998505,40.9290521 62.7649484,39.3221364 C62.6455884,38.8853296 62.5040071,38.4555066 62.3516327,37.9545755 C62.9554165,37.7672819 63.5439629,37.5425296 64.1528259,37.4034879 C67.3139612,36.6822487 70.4408123,36.8079576 73.4870319,37.9494964 C75.2653689,38.6161347 76.7021332,39.7316428 77.5541604,41.4864887 C78.594751,43.6317943 78.0195374,45.6672632 75.9974012,47.023396 C75.8088378,47.1497398 75.592974,47.2494181 75.4367902,47.4075066 C75.3409212,47.5046453 75.2831459,47.6989228 75.306637,47.8328854 C75.3199697,47.9109773 75.5263102,48.0087509 75.6450353,48.0074811 C76.3097689,48.0024019 76.8487936,47.6538454 77.3662319,47.2957653 C78.6626847,46.3986607 79.6086762,45.1917279 79.812477,43.6025892 L79.8524753,43.4832292 L79.8035885,42.4483526 C79.7839068,42.3886726 79.818191,42.3296275 79.8137468,42.28455 C79.538203,39.9703628 78.3020651,38.1755185 76.5040463,36.7685942 C74.4215953,35.1400921 71.9626523,34.4696444 69.362128,34.3636172 C67.2428531,34.2772717 65.1597671,34.5921789 63.1623918,35.3178623 C62.5928922,35.5242027 62.0284718,35.7686368 61.4557978,35.9991032 C61.3789756,35.8600615 61.2964395,35.7267338 61.2285058,35.5889619 C60.6405944,34.3852036 59.9282437,33.2347763 59.7707901,31.8545176 C59.6590488,30.8742419 59.5219118,29.8952359 59.7549178,28.9257533 C59.9790352,27.9930946 60.2710863,27.0763082 60.5459952,26.1563474 C60.6875765,25.6827167 60.5878982,25.4173312 60.1358539,25.2040069 C59.9784003,25.1297244 59.806979,25.0649652 59.6368275,25.0402044 C58.5257637,24.8789414 57.4299373,24.971001 56.3537926,25.2840035 C55.9728565,25.3951099 55.6960428,25.6084342 55.611602,26.0300035 C55.5633501,26.271898 55.4649416,26.5036342 55.396373,26.7423542 C55.1151152,27.7346929 54.9157586,28.7460784 54.4611747,29.691435 C53.3221756,32.0627627 52.0219135,34.3445704 50.6911764,36.6098708 C50.5470556,36.8543049 50.395316,37.0942947 50.2137364,37.39079 C49.7464547,36.4130538 49.2480632,35.5356308 49.0969585,34.5071032 C48.9261722,33.343978 48.7915747,32.1827576 49.0810862,31.028521 C49.2963151,30.1676053 49.577573,29.3225619 49.8366096,28.4730742 C49.9591441,28.0692818 49.9026386,27.8572274 49.5369398,27.644538 C49.3521858,27.537241 49.1433058,27.4420069 48.9350607,27.4108972 C47.7827288,27.2401108 46.647539,27.3296308 45.5358402,27.6889806 C45.191093,27.8007218 45.0101483,28.0235695 44.904756,28.3791099 C44.5949279,29.4279542 44.3308121,30.5021942 43.89591,31.4996121 C42.1347151,35.5375355 40.3227287,39.5545074 38.512647,43.5708445 C38.1348853,44.409539 37.6923644,45.2190283 37.2663508,46.0355015 C37.1584189,46.2424768 37.0009653,46.4246913 36.8663678,46.6189687 C36.7584359,46.4913551 36.716533,46.4037398 36.7171678,46.3161245 C36.7203423,45.799956 36.6587576,45.26855 36.7571661,44.7695236 C37.0549313,43.2597466 37.3977738,41.7582232 37.7590283,40.2624138 C38.0574283,39.0269108 38.4047151,37.8028359 38.7354947,36.5755866 C38.846601,36.1648104 38.8485057,35.7806998 38.5532802,35.4353176 C38.0574283,34.8569295 37.0212819,34.7299508 36.4067049,35.1756461 L36.1349704,35.3292904 L36.1876666,34.8912138 C36.3171849,33.9522061 36.3432155,33.0163729 36.0854487,32.0913329 C35.7641925,30.9383661 34.9413704,30.2749023 33.7452308,30.3117261 C33.1877942,30.3288682 32.6024223,30.4241023 32.0862538,30.6272682 C29.9155525,31.4780257 28.2464172,32.9846283 26.8255252,34.7972495 C26.6966418,34.961687 26.5264903,35.1115219 26.3449108,35.21247 C24.5081635,36.2308393 22.6657022,37.2365108 20.8238759,38.2459917 L18.7738044,39.3691185 C18.2239865,38.8446964 17.7243252,38.3005925 17.1573652,37.8390249 C15.4260103,36.4270215 13.6667201,35.0499372 11.9233022,33.6538061 C10.3779711,32.4163985 8.88089196,31.1275644 7.73554387,29.488904 C6.88351663,28.2699082 6.33433365,26.9359967 6.28163748,25.4287593 C6.21497365,23.5082061 6.75971237,21.7533601 7.73744855,20.1197788 C8.98818898,18.029709 10.6941481,16.3523201 12.5696239,14.8330197 C14.5536665,13.2267388 16.6996069,11.8629873 18.9236392,10.6179609 C22.0352529,8.8764477 25.2357516,7.33492599 28.6673516,6.31719152 C32.1859321,5.27342641 35.7559389,4.67599151 39.4383219,5.09248173 C40.8858794,5.25628428 42.2915338,5.58769875 43.5822726,6.29560514 C44.5708019,6.8371694 45.3815611,7.54634557 45.7586879,8.65486983 C46.1307356,9.74561707 46.1193075,10.8509669 45.8615407,11.9588562 C45.3377534,14.2025703 44.1092343,16.0520154 42.5632683,17.7046435 C40.0275032,20.4137346 36.9343015,22.2581005 33.45191,23.4764614 C31.4424717,24.1792886 29.375258,24.6205397 27.2521738,24.7989448 C25.5195491,24.9443354 23.8231133,24.7906912 22.1825482,24.1881771 C21.0962452,23.7888291 20.1502537,23.1780614 19.3896512,22.2917499 C19.2537839,22.1330265 19.0798231,21.9609703 18.8265005,22.1095354 C18.5782571,22.255561 18.5344495,22.4917414 18.6176205,22.7310963 C18.7566622,23.1285397 18.8849107,23.5424903 19.1014095,23.8980308 C19.6455133,24.7900563 20.4391303,25.4370129 21.3127439,25.9919099 C22.9907678,27.0591661 24.8662435,27.417881 26.8109227,27.5010521 C29.7619082,27.6286657 32.6411508,27.1880495 35.4797602,26.3963372 C39.5322862,25.2662265 43.0559458,23.270121 45.8818573,20.1210486 C48.234773,17.498938 49.9153364,14.5396988 50.2753211,10.9665175 C50.4511866,9.22246473 50.263893,7.513966 49.4474198,5.92292258 C48.5617432,4.1991864 47.1535492,2.91733619 45.4698113,2.03419916 C43.0178521,0.748539578 40.3716155,0 37.6403032,0 L34.9039117,0 C31.5961159,0 28.3981567,0.947896175 25.2897176,2.07864171 C22.9368018,2.93511321 20.6295984,3.94586385 18.3896937,5.06454641 C13.511806,7.50190302 8.96914217,10.4408256 5.23787237,14.4819235 C3.37890385,16.4951711 1.80500256,18.7166639 0.89964426,21.3324256 C0.63489362,22.0981073 0.383475747,22.9190248 0.194277448,23.7107371 L0.139041703,24.8598946 Z M17.8690809,46.5751611 C17.6576614,49.4061517 16.3745414,51.7012922 14.2774877,53.5602607 C13.0978554,54.6052956 11.7448971,55.3493909 10.1690911,55.6109671 C9.59768686,55.7055662 9.01294983,55.7284224 8.4586877,55.4916071 C7.66824515,55.1538437 7.49110983,54.4522862 7.47587238,53.7050164 C7.45238131,52.513956 7.86950642,51.4371764 8.44154558,50.4124581 C9.18818047,49.076642 10.2827371,48.0582726 11.4515762,47.1072019 C13.2927677,45.6082181 15.2901431,44.3397007 17.3357703,43.1422913 L17.4900495,43.0788019 C17.8062265,44.2470062 17.9566963,45.4006079 17.8690809,46.5751611 L17.8690809,46.5751611 Z M33.8417346,34.2715576 C33.6925346,35.1756461 33.5058759,36.0803695 33.2417602,36.9565227 C32.3287831,39.9894096 31.1561346,42.9283321 29.8882521,45.8278913 C29.6539763,46.3643764 29.3130384,46.8538794 29.0165431,47.3624292 C28.9708308,47.441156 28.9028972,47.5090896 28.8368682,47.5744836 C28.4698997,47.9370079 28.121978,47.9179611 27.9365891,47.4436956 C27.7207252,46.8926079 27.5880325,46.3027917 27.4737516,45.7193245 C27.3969295,45.3275951 27.4153414,44.9161841 27.3912155,44.5149313 C27.4159763,41.6617194 28.2864155,39.0688138 29.763178,36.6549483 C30.372041,35.6594351 31.0348699,34.710904 32.0475253,34.0810895 C32.3586231,33.887447 32.7078146,33.731898 33.0601806,33.6328546 C33.5998402,33.4811151 33.9312546,33.7306283 33.8417346,34.2715576 L33.8417346,34.2715576 Z M44.7390487,48.1554113 L48.6557075,43.5822726 C48.8188751,45.280613 45.9320139,48.6709449 44.7390487,48.1554113 L44.7390487,48.1554113 Z M57.2483577,45.0780819 C56.9715441,45.2368053 56.6699697,45.3510862 56.3861722,45.4977466 C56.1265007,45.6323441 56.0407901,45.4964768 56.0331714,45.2729943 C56.0280922,45.1212547 56.0503135,44.9625313 56.0922165,44.815236 C56.6210828,42.9499185 57.5943748,41.3576053 59.0425671,40.0624223 L59.1441501,40.0103611 C59.8330097,41.9372632 59.0368531,44.0533636 57.2483577,45.0780819 L57.2483577,45.0780819 Z" id="Shape"></path>
                            </g>
                        </g>
                    </g>
                </g>
            </g>
        </g>
    </symbol>
    <symbol id="javascript" viewBox="0 0 60 60">
        <g id="Page-1" stroke="none" stroke-width="1" fill="none" fill-rule="evenodd">
            <g id="portfolio-copy" transform="translate(-777.000000, -2097.000000)">
                <g id="Skill" transform="translate(90.000000, 1702.000000)">
                    <g id="skills" transform="translate(0.000000, 350.000000)">
                        <g id="languages">
                            <g id="javascript-original" transform="translate(687.000000, 45.000000)">
                                <g id="Group">
                                    <polygon id="Shape" fill="#F0DB4F" points="0.194285714 0.194285714 59.8057143 0.194285714 59.8057143 59.8061905 0.194285714 59.8061905"></polygon>
                                    <path d="M54.9271429,45.5885714 C54.4904762,42.8690476 52.7171429,40.5847619 47.4642857,38.4547619 C45.6395238,37.6161905 43.6052381,37.0157143 42.9990476,35.6328571 C42.7838095,34.8280952 42.7552381,34.3747619 42.8914286,33.887619 C43.282381,32.3066667 45.1695238,31.8138095 46.6652381,32.2671429 C47.6285714,32.59 48.5404762,33.332381 49.0904762,34.5166667 C51.6628571,32.8509524 51.657619,32.8619048 53.4538095,31.7171429 C52.7961905,30.697619 52.4452381,30.2271429 52.0147619,29.7909524 C50.467619,28.0628571 48.3595238,27.1728571 44.9880952,27.2409524 L43.2319048,27.4680952 C41.5490476,27.8933333 39.9452381,28.7766667 39.0047619,29.9609524 C36.1828571,33.1628571 36.987619,38.7666667 40.4214286,41.0728571 C43.8042857,43.6119048 48.7738095,44.1895238 49.4085714,46.5638095 C50.0261905,49.4704762 47.272381,50.4114286 44.5352381,50.0771429 C42.5180952,49.657619 41.3961905,48.632381 40.1833333,46.7680952 C37.9509524,48.06 37.9509524,48.06 35.6557143,49.38 C36.2,50.57 36.7719048,51.1085714 37.6842857,52.1395238 C42.002381,56.5195238 52.8080952,56.3042857 54.7461905,49.6747619 C54.8247619,49.4471429 55.3466667,47.9290476 54.9271429,45.5885714 L54.9271429,45.5885714 Z M32.6009524,27.5919048 L27.0252381,27.5919048 L27.002381,42.0071429 C27.002381,45.0728571 27.1609524,47.8833333 26.662381,48.7447619 C25.8466667,50.4390476 23.7328571,50.2290476 22.7695238,49.9004762 C21.7890476,49.4185714 21.2904762,48.7333333 20.7128571,47.7647619 C20.5542857,47.4866667 20.4352381,47.2714286 20.3952381,47.2547619 L15.8619048,50.0309524 C16.6157143,51.5780952 17.7261905,52.9209524 19.1485714,53.7933333 C21.2733333,55.0685714 24.1290476,55.4595238 27.1157143,54.7738095 C29.0595238,54.207619 30.7366667,53.0347619 31.6147619,51.2495238 C32.8842857,48.9090476 32.6119048,46.0761905 32.6004762,42.9428571 C32.6290476,37.8309524 32.6009524,32.72 32.6009524,27.5919048 L32.6009524,27.5919048 Z" id="Shape" fill="#FFFFFF"></path>
                                </g>
                            </g>
                        </g>
                    </g>
                </g>
            </g>
        </g>
    </symbol>
    <symbol id="jquery" viewBox="0 0 60 64">
        <g id="Page-1" stroke="none" stroke-width="1" fill="none" fill-rule="evenodd">
            <g id="portfolio-copy" transform="translate(-882.000000, -2093.000000)" fill="#0868AC">
                <g id="Skill" transform="translate(90.000000, 1702.000000)">
                    <g id="skills" transform="translate(0.000000, 350.000000)">
                        <g id="languages">
                            <g id="jquery-plain-wordmark" transform="translate(792.000000, 41.000000)">
                                <path d="M21.7037299,40.3547343 L21.8035564,40.4033544 L21.9814855,40.4892156 C22.208552,40.5973179 22.4376874,40.7043857 22.6688918,40.8073156 L22.8142351,40.87197 C23.079577,40.9883481 23.3464707,41.0990365 23.6164677,41.2055871 L23.8119829,41.282138 C24.0612905,41.3793783 24.314736,41.4735152 24.5686988,41.562997 L24.6638702,41.5955829 C24.9426602,41.6928232 25.2240365,41.7833395 25.5079989,41.8717868 L25.712307,41.9323034 C26.0009246,42.0197162 26.2859215,42.1236806 26.5838493,42.1790248 C45.4908854,45.6264012 50.9823775,30.8169068 50.9823775,30.8169068 C46.369669,36.8261519 38.1823441,38.4114795 30.4248421,36.6466711 C30.1310522,36.5804649 29.845538,36.4883969 29.5589894,36.4035703 L29.3433021,36.3383986 C29.0634776,36.2525374 28.7852047,36.1620212 28.5095181,36.067367 L28.395209,36.0259882 C28.1479703,35.9390926 27.9033177,35.8470246 27.6602169,35.7534049 L27.4543571,35.6727161 C27.1874634,35.5677173 26.9226387,35.4575461 26.6609174,35.3427197 L26.5021261,35.2723757 C26.2771285,35.1704802 26.0541999,35.0675503 25.832823,34.9609997 L25.6388596,34.8678973 C25.4650684,34.7830706 25.2928288,34.6925544 25.1211066,34.6041071 L24.7755931,34.4230745 C24.5661126,34.3108344 24.3602528,34.1944563 24.1554274,34.0749749 L23.9459469,33.9580796 C23.6733637,33.7972193 23.4038838,33.6311866 23.1375074,33.4625677 L22.9197512,33.3177417 C22.726305,33.1930879 22.5338933,33.0663651 22.344585,32.9355045 L22.1594146,32.8051611 C21.9763131,32.6758521 21.7952806,32.5449915 21.6157998,32.4120619 L21.3747679,32.2294777 C21.210287,32.1037894 21.0463232,31.9770666 20.8844284,31.8467232 L20.6656377,31.670863 C20.4597779,31.5012097 20.255987,31.3310391 20.054265,31.1562135 L19.9875416,31.0998348 C19.7687509,30.909492 19.5551325,30.7134596 19.3441003,30.5169101 L19.1630678,30.3426016 C19.0063454,30.1941549 18.8527264,30.0441566 18.7011763,29.8905375 L18.5201438,29.709505 C18.3277321,29.5124382 18.138941,29.3127852 17.9537706,29.110546 L17.9258399,29.0805463 C17.7298075,28.8664107 17.5384303,28.64762 17.3511909,28.4267603 L17.2006753,28.2477968 C17.0610217,28.0796951 16.9224025,27.9090073 16.7874039,27.7367678 L16.6358539,27.548494 C16.4729246,27.3374618 16.3141332,27.1269469 16.1584453,26.9128113 C11.8519403,21.0380475 10.3043709,12.9355492 13.7465749,6.28131111 L10.6954011,10.1512691 C6.78561598,15.7700012 7.27285207,23.0806115 10.2588541,29.0515811 L10.4776449,29.4762317 L10.6178158,29.7451943 L10.7047114,29.8998478 L10.8603993,30.1786379 C10.9529845,30.3420844 11.0476387,30.5044964 11.144879,30.6669084 L11.3078083,30.9353538 C11.4153933,31.109145 11.5255645,31.2808673 11.6388392,31.4525896 L11.7795273,31.670863 C11.9352152,31.9025847 12.0945239,32.1343063 12.2584876,32.36189 L12.272453,32.3799933 L12.3531417,32.48913 C12.4953816,32.6851624 12.6417593,32.8786086 12.7896887,33.0699858 L12.9541697,33.278949 C13.0860648,33.4449817 13.2210634,33.6104972 13.3576136,33.7749781 L13.5117499,33.9585968 C13.6953686,34.1753186 13.8826079,34.3904887 14.0739851,34.6010036 L14.0853643,34.6129001 L14.1070882,34.6366929 C14.2932931,34.8404838 14.4846703,35.0391023 14.6781165,35.2387553 L14.861218,35.4234085 C15.0112163,35.5744414 15.1632836,35.722888 15.3174199,35.8708174 L15.504142,36.0482293 C15.7094846,36.2416755 15.9168962,36.431501 16.1289628,36.6177059 L16.1393075,36.6254644 L16.247927,36.7185669 C16.4346492,36.8799444 16.6249919,37.0408047 16.8163691,37.1985617 L17.0517114,37.385801 C17.2079166,37.5109721 17.3661908,37.6345914 17.5254994,37.7561418 L17.7784277,37.9485535 C17.9542878,38.0778625 18.1311825,38.2051024 18.3096288,38.3297563 L18.5035922,38.467341 L18.5568675,38.5050992 C18.7265208,38.6219945 18.8997948,38.7337174 19.0730688,38.8459576 L19.2965146,38.9949215 C19.5618566,39.1630231 19.8318537,39.3290558 20.1044369,39.4893988 L20.3278827,39.6156044 C20.5285702,39.730948 20.7297749,39.8442226 20.9340831,39.954911 L21.2692518,40.1287023 L21.7037299,40.3547343 L21.7037299,40.3547343 Z M23.6138816,21.3230444 C24.0374976,21.9302791 24.5066305,22.6523403 25.0688658,23.1406108 C25.2726566,23.3650912 25.4857578,23.5833646 25.7029968,23.799052 L25.8705812,23.9635329 C26.0821306,24.1683583 26.2967835,24.369563 26.5181604,24.5655954 L26.5450566,24.5883537 L26.5512635,24.5950778 C26.7969504,24.8102479 27.050396,25.0171422 27.3079794,25.2209331 L27.4802189,25.3554144 C27.7388368,25.5535157 28.0021098,25.7479963 28.2721068,25.933684 L28.2953825,25.9507527 L28.656413,26.1886812 L28.8281353,26.3024731 C29.0210642,26.4255752 29.2160621,26.5466083 29.4151979,26.6614347 L29.4979556,26.7095376 C29.6691606,26.8083296 29.8429519,26.90557 30.0167431,26.9997069 L30.200879,27.09643 L30.5639785,27.2841865 L30.6188055,27.3090139 C30.8681131,27.4315987 31.1194897,27.5495285 31.3760387,27.6617686 L31.5431058,27.730561 C31.7479312,27.8174566 31.9553427,27.9028005 32.1632715,27.9824548 L32.4291307,28.0796951 C32.618439,28.1500392 32.8077473,28.2141764 32.9991245,28.2777964 L33.2572251,28.3605542 C33.5292911,28.4448636 33.7977365,28.5514142 34.0811817,28.5984826 C48.6786094,31.0175943 52.0489177,19.7775439 52.0489177,19.7775439 C49.0106748,24.1528412 43.1276352,26.2398875 36.8494275,24.6105949 C36.5706374,24.5371474 36.295468,24.4580103 36.0228848,24.3716319 L35.7740944,24.2914604 C35.5801309,24.2288749 35.387202,24.1621515 35.1958248,24.0923246 L34.935138,23.9950843 C34.7256575,23.9143955 34.5177287,23.8311206 34.3123861,23.744225 L34.1448017,23.6728464 C33.8872183,23.5606063 33.6332555,23.4426765 33.3834307,23.3185399 L33.0011934,23.1240593 L32.780851,23.0107847 C32.618439,22.9228546 32.4570614,22.8307866 32.2977528,22.7382014 L32.1824092,22.6725125 C31.9843079,22.5571689 31.7898273,22.4382047 31.5968983,22.316137 L31.4205209,22.19769 L31.0419044,21.9473479 C30.7724245,21.7616603 30.5107032,21.5676969 30.2531198,21.37063 L30.075708,21.2304592 C27.3276343,19.0616896 25.1495545,16.0958597 24.1135313,12.73331 C23.0283707,9.24714098 23.2621612,5.33270072 25.1423132,2.1563559 L22.8323383,5.41804462 C20.0051276,9.48610391 20.1587467,14.9331137 22.3642399,19.2359981 C22.7335463,19.9565075 23.1488866,20.6568447 23.6138816,21.3230444 L23.6138816,21.3230444 Z M39.0000938,16.2898231 L39.3626761,16.4155114 L39.5225019,16.4662005 C39.6947414,16.5199931 39.864912,16.5830958 40.0423239,16.6161989 C48.1024088,18.1735958 50.2892816,12.4798645 50.8711718,11.6419426 C48.9558478,14.3993264 45.7376069,15.060871 41.7885118,14.1024331 C41.4766187,14.0269167 41.1336913,13.9146765 40.8326601,13.8076087 C40.4473195,13.670024 40.0676684,13.5138188 39.6983621,13.3369242 C38.9969904,12.9996864 38.3287218,12.5915874 37.7090734,12.1229718 C34.1753186,9.44110439 31.98017,4.3271944 34.2860071,0.161377558 L33.0384344,1.88066924 C31.3719008,4.33391846 31.207937,7.38043711 32.3644762,10.0886836 C33.5841181,12.9645144 36.0834013,15.2196623 39.0000938,16.2898231 L39.0000938,16.2898231 Z M31.2198335,49.2899821 L29.0339951,49.2899821 C28.912962,49.2899821 28.792446,49.3872224 28.7665842,49.5056694 L27.9907306,53.0952856 L27.2148769,56.6849018 C27.1895324,56.8033488 27.0690165,56.9005891 26.9479833,56.9005891 L25.4009311,56.9005891 C23.8704305,56.9005891 24.0473251,55.8418075 24.36077,54.3914784 L24.3700802,54.3475134 L24.4042178,54.1644119 L24.4104246,54.1302744 L24.4802515,53.7578646 L24.5552506,53.3590759 L24.634905,52.9530458 L24.9876597,51.2296162 L25.3409318,49.5061866 C25.3652419,49.3872224 25.2855875,49.2894649 25.1645544,49.2894649 L22.9213029,49.2894649 C22.8002697,49.2894649 22.680271,49.3867052 22.6554437,49.5056694 L22.1728627,51.7939204 L21.690799,54.0826887 L21.6897645,54.0857921 L21.6452822,54.2988932 C21.089771,56.8349002 21.236666,59.2540119 24.2562884,59.3300455 L24.3442185,59.3315972 L29.0836498,59.3315972 C29.2046829,59.3315972 29.3251989,59.2343569 29.3505434,59.1159099 L30.3726013,54.3113069 L31.3946591,49.5061866 C31.4200037,49.3872224 31.3413839,49.2904993 31.2198335,49.2899821 L31.2198335,49.2899821 Z M7.81181174,49.2646375 L5.4118378,49.2646375 C5.29028739,49.2646375 5.16925422,49.3618779 5.14235796,49.4798076 L4.91477423,50.4842795 L4.68719049,51.4887513 C4.66081147,51.6071983 4.7378796,51.7039214 4.85943,51.7039214 L7.27802443,51.7039214 C7.39957484,51.7039214 7.52009077,51.6066811 7.54595256,51.4882341 L7.76577776,50.4842795 L7.98560296,49.4803249 C8.01094751,49.3618779 7.93336214,49.2646375 7.81181174,49.2646375 L7.81181174,49.2646375 Z M7.1156124,52.3908105 L4.69650073,52.3908105 C4.57546757,52.3908105 4.45391716,52.4880508 4.4270209,52.6059806 L4.087197,54.1111367 L3.74789034,55.6157755 L3.6532362,56.0471501 L3.32686043,57.5833403 L3.0010019,59.1200478 C2.97565735,59.2384948 2.92341654,59.429872 2.88462385,59.5446983 C2.88462385,59.5446983 2.4325598,60.8895113 1.67274046,60.8739943 L1.57756908,60.8719253 L0.920162424,60.8600289 L0.919645188,60.8600289 C0.798612019,60.8584772 0.677061615,60.9531313 0.648613648,61.0705439 L0.397754302,62.1251876 L0.147412193,63.1793141 C0.118964226,63.2972438 0.195515119,63.3944841 0.316031052,63.3965531 C0.746888443,63.4017254 1.71205038,63.4125874 2.29600955,63.4125874 C4.19374757,63.4125874 5.19459877,62.3610471 5.83545389,59.3352179 L6.58596298,55.8624969 L7.28992085,52.6054633 C7.31526541,52.4880508 7.23664557,52.3908105 7.1156124,52.3908105 L7.1156124,52.3908105 Z M51.6584047,51.5766814 L51.5580609,51.1623756 L51.4592689,50.7382422 L51.409097,50.5241066 C51.2125474,49.7601494 50.6358296,49.3199818 49.3830845,49.3199818 L47.4331057,49.3179128 L45.6372631,49.3153267 L43.616423,49.3153267 C43.4953898,49.3153267 43.3753911,49.412567 43.3500466,49.531014 L43.2605648,49.9530783 L43.1550487,50.4516936 L43.1255663,50.5918645 L42.2157486,54.8538872 L41.3519648,58.8997054 C41.326103,59.0186696 41.3178273,59.1645301 41.3323099,59.2234949 C41.3467925,59.2829771 41.5800658,59.3315972 41.701099,59.3315972 L43.5238378,59.3315972 C43.6453882,59.3315972 43.7990072,59.3098733 43.8652134,59.2829771 C43.9314196,59.2560808 44.0291771,59.0176351 44.0534872,58.8991881 L44.3772768,57.2962745 L44.7015836,55.6928436 L44.7021009,55.6902574 L44.7455487,55.4766391 L45.1386479,53.6352797 L45.4857131,52.0090905 C45.5115748,51.8906435 45.6310563,51.7939204 45.7520895,51.7934032 L51.4877169,51.790817 C51.6092673,51.7918515 51.6858182,51.6951284 51.6584047,51.5766814 L51.6584047,51.5766814 Z M59.0419452,47.8318945 L58.6002258,47.8334462 L56.7645561,47.8334462 C56.6430057,47.8334462 56.4873178,47.9156867 56.4195599,48.0160304 L52.3597764,53.9632072 C52.2915012,54.063551 52.2133986,54.0490684 52.1865024,53.9311386 L51.8875401,52.6209804 C51.8606438,52.5025334 51.7390934,52.4058103 51.617543,52.4058103 L49.0080886,52.4058103 C48.8865382,52.4058103 48.8146424,52.5009817 48.8477455,52.6173598 L50.0172156,56.7143843 C50.0503187,56.8312795 50.0529049,57.0226568 50.0229052,57.1405865 L49.5134279,59.1231512 C49.482911,59.241081 49.557393,59.3367696 49.6789434,59.3367696 L52.2583981,59.3367696 C52.3794313,59.3367696 52.5035679,59.2405637 52.5335676,59.1231512 L53.043562,57.1405865 C53.0735617,57.0221395 53.1578711,56.8473138 53.2313186,56.7500735 L59.8219367,48.0030995 C59.8953842,47.9058592 59.855557,47.8267221 59.7345239,47.8277566 L59.0419452,47.8318945 L59.0419452,47.8318945 Z M38.3080324,52.962356 L38.3080324,52.9602871 C38.2930325,53.091665 38.1714821,53.1883881 38.0499317,53.1883881 L34.7411745,53.1883881 C34.6263482,53.1883881 34.5684178,53.1108027 34.5854866,53.0145968 L34.58859,53.0068383 L34.586521,53.0078728 L34.5880728,52.9970108 L34.6030726,52.9406321 C34.9191036,52.1006412 35.5625449,51.5492679 36.7723594,51.5492679 C38.1347584,51.5487507 38.4006176,52.2139159 38.3080324,52.962356 L38.3080324,52.962356 Z M37.3371808,49.1430871 C33.090158,49.1430871 32.0836172,51.7209902 31.5187957,54.3232033 C30.9544915,56.9755883 31.0025944,59.4546993 35.398064,59.4546993 L35.9308168,59.4546993 L36.0632292,59.4541821 L36.0942633,59.4541821 L36.6218438,59.4526304 L36.631154,59.4526304 C37.7918311,59.4479753 38.9561288,59.4391823 39.4273306,59.4355616 C39.5478465,59.4334927 39.6657762,59.3367696 39.6906036,59.2183226 L39.8685327,58.3488493 L39.9031875,58.1797132 L40.1152541,57.1421382 C40.1395642,57.0236912 40.0604271,56.9259337 39.9388767,56.9259337 L35.9877127,56.9259337 C34.4158332,56.9259337 33.9492866,56.5085244 34.1215261,55.2806067 L40.437492,55.2806067 L40.4369748,55.2811239 L40.4411127,55.2806067 C40.5414564,55.279055 40.6345588,55.2097454 40.6712826,55.1176774 L40.6862824,55.0628505 L40.6857652,55.0633677 C41.6235136,51.5259923 41.354551,49.1436044 37.3371808,49.1430871 L37.3371808,49.1430871 Z M17.2632608,52.9489079 L17.2032615,53.1604573 L17.2032615,53.1609746 L16.7263701,54.851301 L16.2494788,56.5411103 C16.2168929,56.6585228 16.0901701,56.7536942 15.9686197,56.7536942 L13.4445092,56.7536942 C11.5297024,56.7536942 11.0631557,55.2557794 11.5297024,53.0471827 C11.9957318,50.7878969 12.9096874,49.3836018 14.7944945,49.2413619 C17.3703287,49.0468813 17.8854955,50.8582409 17.2632608,52.9489079 L17.2632608,52.9489079 Z M18.9949662,56.623868 C18.9949662,56.623868 20.1851257,53.7335545 20.4551227,52.064952 C20.8239118,49.8310107 19.7051309,46.5900114 15.3841433,46.5900114 C11.0879831,46.5900114 9.22179643,49.6835985 8.51008002,53.0471827 C7.79836361,56.4350769 8.73093969,59.4055619 13.0027899,59.3812518 L16.3730981,59.3688382 L19.5225467,59.357459 C19.6435798,59.3564245 19.7677164,59.2602187 19.7987506,59.1433234 L20.3475377,57.0505875 C20.3780546,56.9326577 20.3040899,56.8364519 20.1825395,56.8354174 L19.6565107,56.832314 L19.130482,56.8292106 C19.027552,56.8286934 18.9685872,56.7614527 18.9810008,56.6730054 L18.9949662,56.623868 L18.9949662,56.623868 Z M40.2637008,54.688889 C40.2637008,54.7690605 40.1990463,54.8342323 40.1188748,54.8342323 C40.0392205,54.8342323 39.9740488,54.7690605 39.9740488,54.688889 C39.9740488,54.6092347 40.0387032,54.5445802 40.1188748,54.5445802 C40.1990463,54.5445802 40.2637008,54.6092347 40.2637008,54.688889 L40.2637008,54.688889 Z" id="Shape"></path>
                            </g>
                        </g>
                    </g>
                </g>
            </g>
        </g>
    </symbol>
    <symbol id="wordpress" viewBox="0 0 70 70">
        <g id="Page-1" stroke="none" stroke-width="1" fill="none" fill-rule="evenodd">
            <g id="portfolio-copy" transform="translate(-1308.000000, -2091.000000)" fill="#494949">
                <g id="Skill" transform="translate(90.000000, 1702.000000)">
                    <g id="skills" transform="translate(0.000000, 350.000000)">
                        <g id="languages">
                            <g id="wordpress-plain" transform="translate(1218.000000, 39.000000)">
                                <path d="M35.0522222,69.5688889 C54.0938889,69.54 69.5083333,54.0505556 69.5083333,34.9438889 C69.5083333,16.1477778 54.165,0.667777778 35.8344444,0.340555556 C16.5833333,-0.00277777778 0.496666667,15.6183333 0.491666667,34.5611111 C0.486111111,54.0494444 15.8316667,69.5966667 35.0522222,69.5688889 L35.0522222,69.5688889 Z M34.9961111,2.01666667 C53.2777778,2.01055556 67.8438889,16.8638889 67.8383333,35.5055556 C67.8322222,53.105 52.88,67.8277778 35.0094444,67.8316667 C16.8033333,67.8355556 2.16222222,53.0744444 2.16277778,34.7161111 C2.16388889,16.8311111 17.0327778,2.02277778 34.9961111,2.01666667 L34.9961111,2.01666667 Z M21.1983333,19.3866667 C21.4972222,20.3827778 20.6605556,20.7294444 19.7711111,20.7988889 C18.835,20.8711111 17.8994444,20.9416667 16.8127778,21.0244444 C20.3994444,31.71 23.9322222,42.2372222 27.5488889,53.0094444 C27.8066667,52.5877778 27.9127778,52.4688889 27.9594444,52.33 C29.945,46.3955556 31.9416667,40.465 33.8766667,34.5138889 C34.0533333,33.9711111 33.9655556,33.2522222 33.7722222,32.6944444 C32.7483333,29.7388889 31.5216667,26.8477778 30.6238889,23.8566667 C30.01,21.8088889 29.1955556,20.4838889 26.775,20.7211111 C26.3627778,20.7616667 25.8594444,19.8744444 25.3977778,19.4161111 C25.9561111,19.0827778 26.5105556,18.4694444 27.0738889,18.4611111 C32.0027778,18.3861111 36.9333333,18.3861111 41.8616667,18.4655556 C42.4272222,18.475 42.9816667,19.1044444 43.54,19.4461111 C43.0511111,19.8927778 42.6294444,20.5627778 42.0577778,20.7355556 C41.1405556,21.0122222 40.1233333,20.96 39.0255556,21.0577778 C42.6161111,31.7383333 46.1327778,42.2005556 49.775,53.0355556 C51.4033333,47.6266667 52.9183333,42.66 54.3916667,37.6805556 C55.7061111,33.2355556 54.9227778,29.0844444 52.5461111,25.1694444 C51.8316667,23.9922222 50.9538889,22.85 50.5488889,21.5661111 C50.0888889,20.1055556 49.7066667,18.4427778 49.9505556,16.9777778 C50.3644444,14.495 52.2694444,13.2622222 54.8472222,13.0261111 C40.7405556,-0.0661111111 18.5727778,4.62055556 10.4044444,18.8455556 C13.5488889,18.7005556 16.5511111,18.51 19.5555556,18.4688889 C20.1233333,18.4616667 21.065,18.9416667 21.1983333,19.3866667 L21.1983333,19.3866667 Z M26.8188889,62.7038889 C26.7533333,62.8955556 26.7494444,63.1088889 26.6977778,63.4272222 C32.7772222,65.1127778 38.7394444,64.9911111 44.8416667,62.935 L35.5194444,37.4016667 C32.5361111,46.0744444 29.675,54.3877778 26.8188889,62.7038889 L26.8188889,62.7038889 Z M22.1211111,61.5494444 L8.07611111,23.0216667 C1.74,35.3983333 6.56,54.2816667 22.1211111,61.5494444 L22.1211111,61.5494444 Z M64.5811111,36.7927778 C65.0266667,30.9405556 63.0077778,22.8377778 61.2644444,21.7233333 C61.07,23.8761111 61.2055556,26.2711111 60.5877778,28.4533333 C59.1338889,33.595 57.3561111,38.6472222 55.6438889,43.7133333 C53.7827778,49.22 51.8483333,54.7016667 49.9455556,60.1944444 C58.8855556,54.895 63.7983333,47.0733333 64.5811111,36.7927778 L64.5811111,36.7927778 Z" id="Shape"></path>
                            </g>
                        </g>
                    </g>
                </g>
            </g>
        </g>
    </symbol>
    <symbol id="photoshop" viewBox="0 0 61 61">
        <g id="Page-1" stroke="none" stroke-width="1" fill="none" fill-rule="evenodd">
            <g id="portfolio-copy" transform="translate(-355.000000, -2216.000000)" fill="#80B5E2">
                <g id="Skill" transform="translate(90.000000, 1702.000000)">
                    <g id="skills" transform="translate(0.000000, 350.000000)">
                        <g id="Tools" transform="translate(2.000000, 157.000000)">
                            <g id="photoshop-line" transform="translate(263.000000, 7.000000)">
                                <path d="M59.6304222,0.346212281 C42.3802882,0.340973856 25.2073019,0.341450076 7.95669159,0.341450076 C5.48939334,0.341450076 2.97971147,0.339545194 0.512413224,0.346688501 C0.356212911,0.347164722 0,0.419550233 0,0.459076532 L0,60.4799995 L60.0037791,60.4799995 L60.0037791,0.459076532 C60.0037791,0.419550233 59.8066238,0.346212281 59.6304222,0.346212281 L59.6304222,0.346212281 Z M53.5652783,54.6062963 C38.020966,54.5881999 22.4818921,54.5920097 6.93757979,54.5920097 C6.18705633,54.5920097 6.19038987,54.590581 6.19038987,53.817199 L6.19038987,7.24426577 C6.19086609,6.47897948 6.18324657,6.66708656 6.94186577,6.66708656 L53.5152752,6.66708656 C54.2953243,6.66708656 54.2891334,6.47850326 54.2891334,7.28188719 L54.2891334,30.5390662 C54.2891334,38.3109843 54.2857999,46.0829023 54.3062774,53.8543442 C54.3081823,54.4462862 54.1686497,54.6067725 53.5652783,54.6062963 L53.5652783,54.6062963 Z M26.5826266,18.8792843 C23.4071885,18.1349517 20.2107967,18.5021177 17.0177385,18.8283287 C16.3400767,18.8978569 16.2105448,19.1878751 16.2124496,19.7893416 C16.2329271,27.0312263 16.1914959,34.2731109 16.1914959,41.5149956 L16.1914959,41.9074013 L20.4774802,41.9074013 L20.4774802,33.4016275 C22.8585825,33.5802101 25.0377674,33.5378265 27.1679015,32.7777786 C30.5819261,31.5596067 32.288224,28.9151544 32.1039267,25.0539589 C31.9548697,21.9356672 29.9961749,19.6793347 26.5826266,18.8792843 L26.5826266,18.8792843 Z M25.652568,29.5199544 C24.1315198,30.2614297 22.5142751,30.2438095 20.8879822,30.0237957 C20.7613076,30.0066517 20.5665334,29.780447 20.5655809,29.6504388 C20.5465321,27.1117075 20.5512943,24.5734524 20.5512943,21.9651929 C22.0423406,21.7327973 23.4562392,21.6194568 24.8668042,21.9737649 C26.615962,22.4133164 27.6307878,23.5543406 27.8198473,25.2677819 C28.0274795,27.1507576 27.2260004,28.7532395 25.652568,29.5199544 L25.652568,29.5199544 Z M41.5111858,32.9039771 C40.811618,32.5206196 40.0444268,32.2625081 39.3177143,31.9262965 C38.6462435,31.6153245 37.9685818,31.3091147 37.3299701,30.9376628 C36.884704,30.679075 36.6823103,30.2271418 36.6823103,29.6942511 C36.6823103,28.793242 37.2985396,28.0670058 38.3509868,27.9808099 C39.1362743,27.9165201 39.9515638,27.9974776 40.7292318,28.1427248 C41.3845112,28.2646373 42.0059789,28.570847 42.6731638,28.8070524 L43.5146453,25.8216263 C41.9216879,25.0482442 40.3006334,24.7572735 38.6167178,24.8168011 C37.1851991,24.8668042 35.847972,25.2315891 34.6393245,26.0544981 C32.3806108,27.592214 31.2786366,31.6772331 34.6636117,33.8721333 C35.5231897,34.4297875 36.517538,34.7793333 37.4499777,35.2250756 C38.0300142,35.5027122 38.6352904,35.7389175 39.1838964,36.0689383 C39.8753685,36.485155 40.1106214,37.1628167 39.9906139,37.945247 C39.8729874,38.714343 39.3572406,39.2015166 38.6400526,39.3139046 C37.8400022,39.4396268 36.9894725,39.5210605 36.2027563,39.3824803 C35.0888766,39.1867537 34.0126183,38.7724419 32.8815947,38.44004 C32.6787248,39.1972306 32.4858555,40.0349024 32.2225056,40.8497156 C32.0782108,41.2964104 32.162978,41.5169005 32.6011009,41.6916734 C35.2760312,42.7541213 37.9985836,42.9727064 40.7358989,42.0331235 C42.781742,41.3306983 44.0289634,39.8787021 44.1913546,37.666658 C44.3494598,35.5108079 43.3779701,33.9278511 41.5111858,32.9039771 L41.5111858,32.9039771 Z" id="Shape"></path>
                            </g>
                        </g>
                    </g>
                </g>
            </g>
        </g>
    </symbol>
    <symbol id="sketch" viewBox="0 0 56 52">
        <g id="Page-1" stroke="none" stroke-width="1" fill="none" fill-rule="evenodd">
            <g id="portfolio-copy" transform="translate(-453.000000, -2224.000000)" fill="#D03403">
                <g id="Skill" transform="translate(90.000000, 1702.000000)">
                    <g id="skills" transform="translate(0.000000, 350.000000)">
                        <g id="Tools" transform="translate(2.000000, 157.000000)">
                            <g id="sketch" transform="translate(361.000000, 15.000000)">
                                <g id="Capa_1">
                                    <path d="M55.963,16.713 C55.969,16.688 55.978,16.664 55.982,16.639 C55.998,16.527 55.995,16.414 55.973,16.301 C55.968,16.274 55.956,16.25 55.948,16.224 C55.932,16.169 55.921,16.114 55.896,16.062 C55.879,16.027 55.853,16 55.833,15.968 C55.822,15.951 55.821,15.932 55.809,15.915 L48.309,5.415 C48.203,5.267 48.06,5.172 47.905,5.102 C47.806,4.873 47.629,4.681 47.392,4.579 L38.142,0.579 C38.016,0.525 37.882,0.497 37.745,0.497 L18.245,0.497 C18.108,0.497 17.974,0.525 17.848,0.579 L8.598,4.579 C8.362,4.681 8.185,4.873 8.086,5.101 C7.932,5.171 7.788,5.267 7.682,5.415 L0.182,15.915 C0.17,15.931 0.169,15.951 0.158,15.968 C0.138,16 0.112,16.027 0.096,16.062 C0.071,16.114 0.06,16.17 0.044,16.224 C0.037,16.25 0.025,16.275 0.02,16.301 C-0.003,16.413 -0.005,16.527 0.011,16.639 C0.015,16.665 0.024,16.688 0.03,16.713 C0.05,16.801 0.081,16.885 0.124,16.966 C0.14,16.996 0.156,17.024 0.175,17.053 C0.189,17.074 0.197,17.098 0.213,17.119 L27.213,51.119 C27.221,51.129 27.234,51.133 27.242,51.142 C27.328,51.242 27.428,51.324 27.544,51.383 C27.562,51.392 27.581,51.398 27.6,51.406 C27.724,51.46 27.857,51.497 27.997,51.497 C28.137,51.497 28.27,51.46 28.394,51.406 C28.413,51.398 28.432,51.392 28.45,51.383 C28.565,51.324 28.666,51.242 28.752,51.142 C28.76,51.133 28.773,51.129 28.781,51.119 L55.781,17.119 C55.797,17.099 55.805,17.074 55.82,17.053 C55.839,17.025 55.855,16.996 55.871,16.966 C55.912,16.885 55.943,16.801 55.963,16.713 L55.963,16.713 Z M18.453,2.496 L37.539,2.496 L44.708,5.596 L37.493,9.496 L18.499,9.496 L11.284,5.596 L18.453,2.496 L18.453,2.496 Z M15.737,27.496 L40.255,27.496 L27.996,48.512 L15.737,27.496 L15.737,27.496 Z M15.777,25.496 L19.277,11.496 L36.745,11.496 L40.809,25.496 L15.777,25.496 L15.777,25.496 Z M2.801,15.69 L9.194,6.74 L17.308,11.126 L13.908,24.727 L2.855,15.721 C2.839,15.707 2.818,15.702 2.801,15.69 L2.801,15.69 Z M13.006,26.572 C13.017,26.72 13.055,26.867 13.133,27 L20.1,38.945 L5.267,20.266 L13.006,26.572 L13.006,26.572 Z M35.892,38.945 L42.86,27 C42.938,26.867 42.975,26.72 42.987,26.572 L50.727,20.266 L35.892,38.945 L35.892,38.945 Z M42.557,24.341 L38.715,11.109 L46.798,6.74 L53.191,15.69 C53.174,15.702 53.153,15.707 53.136,15.721 L42.557,24.341 L42.557,24.341 Z" id="Shape"></path>
                                </g>
                            </g>
                        </g>
                    </g>
                </g>
            </g>
        </g>
    </symbol>
    <symbol id="git" viewBox="0 0 59 59">
        <g id="Page-1" stroke="none" stroke-width="1" fill="none" fill-rule="evenodd">
        <g id="portfolio-copy" transform="translate(-641.000000, -2218.000000)" fill="#F34F29">
            <g id="Skill" transform="translate(90.000000, 1702.000000)">
                <g id="skills" transform="translate(0.000000, 350.000000)">
                    <g id="Tools" transform="translate(2.000000, 157.000000)">
                        <g id="git-plain" transform="translate(549.000000, 9.000000)">
                            <path d="M57.8225608,26.8353611 L32.0968897,1.11109023 C30.6163695,-0.37036341 28.2135581,-0.37036341 26.7307042,1.11109023 L21.3897232,6.45347156 L28.16595,13.2296984 C29.7412197,12.698074 31.5465954,13.0546684 32.801677,14.30975 C34.063293,15.5727662 34.4175536,17.3935446 33.8719269,18.9739485 L40.402645,25.5056001 C41.9825822,24.9609069 43.8061611,25.3128338 45.0673103,26.5767835 C46.8316124,28.3396854 46.8316124,31.1975747 45.0673103,32.96141 C43.3030083,34.725712 40.4460524,34.725712 38.6808169,32.96141 C37.3543231,31.6339827 37.0262003,29.6853157 37.6983153,28.0507692 L31.608206,21.9601931 L31.6072725,37.9887374 C32.0376128,38.2011071 32.4432156,38.484889 32.801677,38.8419501 C34.5655123,40.6048519 34.5655123,43.4618078 32.801677,45.2284436 C31.0378417,46.9913454 28.1790189,46.9913454 26.4170505,45.2284436 C24.653682,43.4622745 24.5089905,40.6053187 26.2718924,38.8419501 C26.7078337,38.4064756 27.1377073,38.0774192 27.6044538,37.8571148 L27.6044538,21.6801452 C27.1377073,21.4598408 26.7083004,21.1331182 26.2714256,20.6948432 C24.9360637,19.3599479 24.6863542,17.3996123 25.3715382,15.7585313 L18.7283342,9.07798757 L1.10678385,26.7163408 C-0.375136537,28.1991946 -0.365801605,30.602006 1.11611878,32.0839264 L26.8459907,57.8081973 C28.3269775,59.289651 30.7316559,59.289651 32.2149765,57.8081973 L57.8206938,32.2034135 C59.3026142,30.7210264 59.3040145,28.3168148 57.8225608,26.8353611 L57.8225608,26.8353611 Z" id="Shape"></path>
                        </g>
                    </g>
                </g>
            </g>
        </g>
    </g>
    </symbol>

    <symbol id="about-dp" viewBox="0 0 511.998 511.998" style="enable-background:new 0 0 511.998 511.998;">
      <g>
          <g>
              <path d="M245.396,209.244l-69.321-8.403l-44.679-29.696c3.975,0.977,14.954,4.171,26.681,8.76
                  c-1.387-4.78-3.935-9.194-7.478-12.82c-5.686-5.818-13.46-9.122-21.594-9.18l-28.055-0.201
                  c-16.96-0.122-30.764,13.632-30.717,30.582l0.283,103.442c0.022,8.114,3.277,15.883,9.043,21.592
                  c4.068,4.026,9.151,6.786,14.64,8.045H55.863L29.871,189.138c-1.606-8.17-9.532-13.489-17.7-11.885
                  c-8.17,1.606-13.491,9.531-11.885,17.7L28.67,339.35c1.39,7.07,7.588,12.168,14.793,12.168H84.53v52.221L37.98,429.231
                  c-4.868,2.667-6.654,8.774-3.988,13.643s8.772,6.655,13.643,3.988l46.947-25.708l46.947,25.708
                  c4.871,2.668,10.978,0.878,13.643-3.988c2.667-4.868,0.881-10.976-3.988-13.643l-46.551-25.492v-52.221h44.362
                  c8.326,0,15.076-6.75,15.076-15.076c0-5.044-2.485-9.496-6.288-12.233l14.026,3.27v99.103c0,12.07,9.785,21.855,21.855,21.855
                  s21.855-9.785,21.855-21.855v-116.45c0-10.16-6.999-18.979-16.893-21.285l-40.768-9.504l0.512-31.387l-41.722-42.876
                  l42.864,28.489c2.367,1.573,5.068,2.571,7.89,2.912l73.612,8.923c10.019,1.21,19.065-5.932,20.272-15.889
                  C262.495,219.531,255.382,210.456,245.396,209.244z" />
          </g>
      </g>
      <g>
          <g>
              <circle cx="138.691" cy="103.756" r="40.197" />
          </g>
      </g>
      <g>
          <g>
              <path d="M498.263,256.437H229.056c-7.586,0-13.736,6.15-13.736,13.736s6.15,13.736,13.736,13.736h6.68v149.468
                  c0,8.317,6.742,15.06,15.06,15.06h0.06c8.317,0,15.06-6.742,15.06-15.06V283.909h196.372v149.468c0,8.317,6.742,15.06,15.06,15.06
                  h0.06c8.317,0,15.06-6.742,15.06-15.06V283.909h5.792c7.586,0,13.736-6.15,13.736-13.736
                  C511.999,262.587,505.849,256.437,498.263,256.437z" />
          </g>
      </g>
      <g>
          <g>
              <path d="M404.555,223.059h-20.489v-70.055l17.247-42.213c2.099-5.138-0.364-11.006-5.503-13.105
                  c-5.137-2.1-11.006,0.365-13.105,5.502c-15.214,37.235-24.536,60.052-39.599,96.916c-2.099,5.139,0.365,11.007,5.503,13.106
                  c5.141,2.1,11.007-0.366,13.105-5.502l2.251-5.508v30.909c0,5.551,4.499,10.05,10.05,10.05h30.539c5.551,0,10.05-4.5,10.05-10.05
                  C414.605,227.558,410.105,223.059,404.555,223.059z" />
          </g>
      </g>
      <g>
          <g>
              <path d="M324.995,224.251H286.33c-5.551,0-10.05,4.499-10.05,10.05s4.499,10.05,10.05,10.05h38.665
                  c5.551,0,10.05-4.499,10.05-10.05S330.546,224.251,324.995,224.251z" />
          </g>
      </g>
    </symbol>

    <symbol id="dp" viewBox="0 0 512.045 512.045" style="enable-background:new 0 0 512.045 512.045;">
      <g>
          <g>
              <rect x="199.804" y="312.044" style="fill:#FCB47E;" width="112" height="104" />
          </g>
          <g>
              <path style="fill:#4296D9;" d="M288.024,417.989c-19.236,12.231-32.001,14.055-32.001,14.055s-12.762-1.823-31.994-14.05
  c0,0-11.558-29.283-8.225-25.95c3.333,3.333,40.219,0,40.219,0l31.781,8L288.024,417.989z" />
          </g>
          <g>
              <path style="fill:#996459;" d="M351.804,352.044l83.264,14.023c33.525,9.393,52.955,42.297,52.955,73.12v51.842
  c0,11.606-10.745,21.015-24,21.015h-416c-13.255,0-24-9.409-24-21.015v-51.842c0-30.823,19.43-63.727,52.955-73.12l82.826-14.023
  l96.219,40L351.804,352.044z" />
          </g>
          <g>
              <path style="fill:#7E5C62;" d="M122.6,358.343c0.124,0.256,0.123,0.55,0.275,0.794c60.82,98.078,120.031,111.047,126.578,112.195
  l5.18,0.914c0.461,0.086,0.922,0.125,1.391,0.125c0.469,0,0.93-0.039,1.391-0.125l5.18-0.914
  c6.547-1.148,65.758-14.117,126.578-112.195c0.145-0.233,0.139-0.513,0.258-0.757l-37.625-6.337l-95.781,40l-96.219-40
  L122.6,358.343z" />
          </g>
          <g>
              <path style="fill:#4BB9EC;" d="M184.024,312.044l-30.198,40l48.766,71.982c2.818,4.159,8.727,4.722,12.28,1.17l41.152-33.152
  L184.024,312.044z" />
          </g>
          <g>
              <path style="fill:#4BB9EC;" d="M328.023,312.044l30.198,40l-48.766,71.982c-2.818,4.159-8.727,4.722-12.28,1.17l-41.152-33.152
  L328.023,312.044z" />
          </g>
          <g>
              <path style="fill:#FFDCAD;" d="M368.212,174.564l-16.188-38.52c0,0-70-38.667-184-24h-0.219c-20.462,25.827-32,57.55-32,96
  c0,79.529,53.726,144,120,144s120-64.471,120-144c0-12.906-1.548-25.352-4.202-37.253
  C369.532,173.105,368.212,174.564,368.212,174.564z" />
          </g>
          <g>
              <circle style="fill:#AEEFFF;" cx="207.804" cy="208.044" r="32" />
          </g>
          <g>
              <path style="fill:#FFFFFF;" d="M207.804,176.044c-8.78,0-16.726,3.547-22.507,9.273l45.234,45.234
  c5.727-5.782,9.273-13.727,9.273-22.507C239.804,190.371,225.478,176.044,207.804,176.044z" />
          </g>
          <g>
              <circle style="fill:#AEEFFF;" cx="303.804" cy="208.044" r="32" />
          </g>
          <g>
              <path style="fill:#FFFFFF;" d="M304.023,176.044c-8.78,0-16.726,3.547-22.507,9.273l45.234,45.234
  c5.727-5.782,9.273-13.727,9.273-22.507C336.023,190.371,321.697,176.044,304.023,176.044z" />
          </g>
          <g>
              <path style="fill:#7E5C62;" d="M383.343,20.818c-1.438-3.281-4.852-5.187-8.453-4.695c-20.047,2.898-44.352-2.016-70.063-7.172
  c-43.125-8.656-87.695-17.609-122.539,7.25c-0.508-0.102-1.039-0.156-1.586-0.156c-35.727,0-60.68,29.609-60.68,72
  c0,34.523,15.305,100.547,15.961,103.344c0.82,3.508,3.891,6.039,7.492,6.172c0.102,0.008,0.203,0.008,0.297,0.008
  c3.484,0,6.586-2.266,7.633-5.609l22.711-72.602c95.539-11.039,158.898,16.344,171.672,22.5l15.047,35.812
  c1.297,3.078,4.375,5.203,7.727,4.891c3.352-0.148,6.25-2.367,7.273-5.563C399.812,101.857,391.031,38.286,383.343,20.818z" />
          </g>
          <g>
              <g>
                  <path style="fill:#5C546A;" d="M272.023,216.044c-4.422,0-8-3.578-8-8c0-4.414-3.586-8-8-8c-4.414,0-8,3.586-8,8
      c0,4.422-3.578,8-8,8s-8-3.578-8-8c0-13.234,10.766-24,24-24s24,10.766,24,24C280.023,212.466,276.445,216.044,272.023,216.044z" />
              </g>
          </g>
          <g>
              <g>
                  <path style="fill:#5C546A;" d="M176.023,208.044h-40.219c-4.422,0-8-3.578-8-8s3.578-8,8-8h40.219c4.422,0,8,3.578,8,8
      S180.445,208.044,176.023,208.044z" />
              </g>
          </g>
          <g>
              <g>
                  <path style="fill:#5C546A;" d="M375.804,208.044h-39.781c-4.422,0-8-3.578-8-8s3.578-8,8-8h39.781c4.422,0,8,3.578,8,8
      S380.226,208.044,375.804,208.044z" />
              </g>
          </g>
          <g>
              <g>
                  <path style="fill:#868491;" d="M208.023,248.044c-22.055,0-40-17.945-40-40s17.945-40,40-40s40,17.945,40,40
      S230.078,248.044,208.023,248.044z M208.023,184.044c-13.234,0-24,10.766-24,24s10.766,24,24,24s24-10.766,24-24
      S221.257,184.044,208.023,184.044z" />
              </g>
          </g>
          <g>
              <g>
                  <path style="fill:#868491;" d="M304.023,248.044c-22.055,0-40-17.945-40-40s17.945-40,40-40s40,17.945,40,40
      S326.078,248.044,304.023,248.044z M304.023,184.044c-13.234,0-24,10.766-24,24s10.766,24,24,24s24-10.766,24-24
      S317.257,184.044,304.023,184.044z" />
              </g>
          </g>
          <g>
              <path style="fill:#7E5C62;" d="M104.023,512.044v-53.492c0-19.234-7.492-37.312-21.086-50.906l-29.559-29.559
  c-4.24,3.317-8.071,7.07-11.44,11.185l29.687,29.687c10.578,10.578,16.398,24.641,16.398,39.594v53.492L104.023,512.044
  L104.023,512.044z" />
          </g>
          <g>
              <path style="fill:#7E5C62;" d="M458.668,378.086l-29.559,29.559c-13.602,13.594-21.086,31.672-21.086,50.906v53.492h16v-53.492
  c0-14.953,5.82-29.016,16.398-39.594l29.688-29.688C466.74,385.156,462.908,381.404,458.668,378.086z" />
          </g>
      </g>
    </symbol>
    <symbol id="twitter" x="0px" y="0px"
	 viewBox="0 0 512 512" style="enable-background:new 0 0 512 512;">
	    <g>
        <path d="M512,97.248c-19.04,8.352-39.328,13.888-60.48,16.576c21.76-12.992,38.368-33.408,46.176-58.016
                c-20.288,12.096-42.688,20.64-66.56,25.408C411.872,60.704,384.416,48,354.464,48c-58.112,0-104.896,47.168-104.896,104.992
                c0,8.32,0.704,16.32,2.432,23.936c-87.264-4.256-164.48-46.08-216.352-109.792c-9.056,15.712-14.368,33.696-14.368,53.056
                c0,36.352,18.72,68.576,46.624,87.232c-16.864-0.32-33.408-5.216-47.424-12.928c0,0.32,0,0.736,0,1.152
                c0,51.008,36.384,93.376,84.096,103.136c-8.544,2.336-17.856,3.456-27.52,3.456c-6.72,0-13.504-0.384-19.872-1.792
                c13.6,41.568,52.192,72.128,98.08,73.12c-35.712,27.936-81.056,44.768-130.144,44.768c-8.608,0-16.864-0.384-25.12-1.44
                C46.496,446.88,101.6,464,161.024,464c193.152,0,298.752-160,298.752-298.688c0-4.64-0.16-9.12-0.384-13.568
                C480.224,136.96,497.728,118.496,512,97.248z"/>
        </g>
    </symbol>

    <symbol id="link" x="0px" y="0px"
	 viewBox="0 0 512 512" style="enable-background:new 0 0 512 512;">
	    <g id="XMLID_801_">
            <path id="XMLID_802_" d="M72.16,99.73H9.927c-2.762,0-5,2.239-5,5v199.928c0,2.762,2.238,5,5,5H72.16c2.762,0,5-2.238,5-5V104.73
                C77.16,101.969,74.922,99.73,72.16,99.73z"/>
            <path id="XMLID_803_" d="M41.066,0.341C18.422,0.341,0,18.743,0,41.362C0,63.991,18.422,82.4,41.066,82.4
                c22.626,0,41.033-18.41,41.033-41.038C82.1,18.743,63.692,0.341,41.066,0.341z"/>
            <path id="XMLID_804_" d="M230.454,94.761c-24.995,0-43.472,10.745-54.679,22.954V104.73c0-2.761-2.238-5-5-5h-59.599
                c-2.762,0-5,2.239-5,5v199.928c0,2.762,2.238,5,5,5h62.097c2.762,0,5-2.238,5-5v-98.918c0-33.333,9.054-46.319,32.29-46.319
                c25.306,0,27.317,20.818,27.317,48.034v97.204c0,2.762,2.238,5,5,5H305c2.762,0,5-2.238,5-5V194.995
                C310,145.43,300.549,94.761,230.454,94.761z"/>
        </g>
    </symbol>
    <symbol id="react" viewBox="0 0 128 128">
        <path fill="#61DAFB" d="M64 81.7c7.3 7.1 14.5 11.3 20.3 11.3 1.9 0 3.7-.4 5.2-1.3 5.2-3 7.1-10.5 5.3-21.2-.3-1.9-.7-3.8-1.2-5.8 2-.6 3.8-1.2 5.6-1.8 10.1-3.9 15.7-9.3 15.7-15.2 0-6-5.6-11.4-15.7-15.2-1.8-.7-3.6-1.3-5.6-1.8.5-2 .9-3.9 1.2-5.8 1.7-10.9-.2-18.5-5.4-21.5-1.5-.9-3.3-1.3-5.2-1.3-5.7 0-13 4.2-20.3 11.3-7.2-7.1-14.4-11.3-20.2-11.3-1.9 0-3.7.4-5.2 1.3-5.2 3-7.1 10.5-5.3 21.2.3 1.9.7 3.8 1.2 5.8-2 .6-3.8 1.2-5.6 1.8-10.1 3.9-15.7 9.3-15.7 15.2 0 6 5.6 11.4 15.7 15.2 1.8.7 3.6 1.3 5.6 1.8-.5 2-.9 3.9-1.2 5.8-1.7 10.7.2 18.3 5.3 21.2 1.5.9 3.3 1.3 5.2 1.3 5.8.2 13-4 20.3-11zm-5.6-13.5c1.8.1 3.7.1 5.6.1 1.9 0 3.8 0 5.6-.1-1.8 2.4-3.7 4.6-5.6 6.7-1.9-2.1-3.8-4.3-5.6-6.7zm-12.4-10.3c1 1.7 1.9 3.3 3 4.9-3.1-.4-6-.9-8.8-1.5.9-2.7 1.9-5.5 3.1-8.3.8 1.6 1.7 3.3 2.7 4.9zm-5.8-24.1c2.8-.6 5.7-1.1 8.8-1.5-1 1.6-2 3.2-3 4.9-1 1.7-1.9 3.3-2.7 5-1.3-2.9-2.3-5.7-3.1-8.4zm5.5 13.7c1.3-2.7 2.7-5.4 4.3-8.1 1.5-2.6 3.2-5.2 4.9-7.8 3-.2 6-.3 9.1-.3 3.2 0 6.2.1 9.1.3 1.8 2.6 3.4 5.2 4.9 7.8 1.6 2.7 3 5.4 4.3 8.1-1.3 2.7-2.7 5.4-4.3 8.1-1.5 2.6-3.2 5.2-4.9 7.8-3 .2-6 .3-9.1.3-3.2 0-6.2-.1-9.1-.3-1.8-2.6-3.4-5.2-4.9-7.8-1.6-2.7-3-5.4-4.3-8.1zm39.1-5.4l-2.7-5c-1-1.7-1.9-3.3-3-4.9 3.1.4 6 .9 8.8 1.5-.9 2.8-1.9 5.6-3.1 8.4zm0 10.8c1.2 2.8 2.2 5.6 3.1 8.3-2.8.6-5.7 1.1-8.8 1.5 1-1.6 2-3.2 3-4.9.9-1.5 1.8-3.2 2.7-4.9zm2.3 34.7c-.8.5-1.8.7-2.9.7-4.9 0-11-4-17-10 2.9-3.1 5.7-6.6 8.5-10.5 4.7-.4 9.2-1.1 13.4-2.1.5 1.8.8 3.6 1.1 5.4 1.4 8.5.3 14.6-3.1 16.5zm5.2-52.7c11.2 3.2 17.9 8.1 17.9 12.6 0 3.9-4.6 7.8-12.7 10.9-1.6.6-3.4 1.2-5.2 1.7-1.3-4.1-2.9-8.3-4.9-12.6 2-4.3 3.7-8.5 4.9-12.6zm-8-28.2c1.1 0 2 .2 2.9.7 3.3 1.9 4.5 7.9 3.1 16.5-.3 1.7-.7 3.5-1.1 5.4-4.2-.9-8.7-1.6-13.4-2.1-2.7-3.9-5.6-7.4-8.5-10.5 6-5.9 12.1-10 17-10zm-14.7 20.1c-1.8-.1-3.7-.1-5.6-.1s-3.8 0-5.6.1c1.8-2.4 3.7-4.6 5.6-6.7 1.9 2.1 3.8 4.4 5.6 6.7zm-28.7-19.4c.8-.5 1.8-.7 2.9-.7 4.9 0 11 4 17 10-2.9 3.1-5.7 6.6-8.5 10.5-4.7.4-9.2 1.1-13.4 2.1-.5-1.8-.8-3.6-1.1-5.4-1.4-8.5-.3-14.5 3.1-16.5zm-5.2 52.7c-11.2-3.2-17.9-8.1-17.9-12.6 0-3.9 4.6-7.8 12.7-10.9 1.6-.6 3.4-1.2 5.2-1.7 1.3 4.1 2.9 8.3 4.9 12.6-2 4.3-3.7 8.6-4.9 12.6zm2.1 11c.3-1.7.7-3.5 1.1-5.4 4.2.9 8.7 1.6 13.4 2.1 2.7 3.9 5.6 7.4 8.5 10.5-6 5.9-12.1 10-17 10-1.1 0-2-.2-2.9-.7-3.4-1.9-4.5-8-3.1-16.5zM33.6 112.3c2.2-2.7 2.3-5.7 1.1-8.7-1.2-3-3.7-4.4-6.8-4.5-3.7-.1-7.5 0-11.2 0h-.7v25.9h3v-9.8h4.7c.6 0 1.1.2 1.4.7l6 9.3c.1.2.4.5.6.5h3.9c-2.4-3.7-4.7-7.2-7.1-10.8 2.1-.3 3.9-1 5.1-2.6zm-14.6-.2v-9.9h1.1c2.3 0 4.7-.1 7 .1 2.7.1 4.6 2.2 4.6 4.9s-2.2 4.8-4.9 4.9c-2.4.1-4.8 0-7.8 0zM57.7 113.4c-1.6-7-8-8.8-12.9-6.6-3.8 1.7-5.5 5-5.6 9.1-.1 3.1.8 5.9 3.2 8 2.7 2.4 6 2.7 9.4 2.1 1.9-.4 3.6-1.3 4.9-2.7-.5-.7-1-1.4-1.5-2-2.8 2.4-5.9 3.2-9.3 1.6-2.2-1.1-3.3-3.8-3.5-5.8h15.5v-1.3c.1-.9 0-1.7-.2-2.4zm-15.1 1.6c-.3-3 2.7-6.2 6-6.2 3.8-.1 6.2 2.2 6.3 6.2h-12.3zM73.3 106.3c-1.5-.3-3.1-.4-4.6-.3-2.4.2-4.5 1.3-6.2 3.1.5.7.9 1.4 1.5 2.2.2-.2.4-.4.6-.5 1.6-1.5 3.5-2.3 5.8-2.1 1.8.1 3.5.7 4 2.5.4 1.4.3 2.9.4 4.4-.3 0-.4-.1-.5-.2-2.4-2-5.1-2.4-8-1.7-2.7.7-4.4 2.8-4.6 5.5-.2 3.1 1.2 5.4 3.9 6.5 1.7.7 3.6.7 5.4.3 1.4-.3 2-1.1 4-2.2v1.3h2.8c0-4 .1-8.9 0-13.5 0-2.9-1.7-4.7-4.5-5.3zm1.4 12.6c-.1.3 0 .6 0 .9 0 2.1-.5 2.8-2.5 3.6-1.4.5-2.9.7-4.4.2-1.7-.5-2.9-2-2.9-3.7-.1-1.7 1-3.4 2.7-3.9 2.3-.8 4.4-.3 6.3 1.1.6.5 1 1 .8 1.8zM90.3 109c2.6-.8 5-.3 6.8 1.9l.3.2c.7-.6 1.3-1.2 2.1-1.9-.3-.3-.4-.5-.6-.8-2.9-3.1-8.6-3.5-12.1-1-4.9 3.6-4.8 10.6-2.4 14.3 2.3 3.5 5.6 4.7 9.5 4.2 2.3-.3 4.2-1.4 5.7-3.3-.7-.6-1.4-1.2-2.1-1.9-.2.2-.3.3-.4.5-2.7 3-7.2 2.7-9.6-.5-1.4-1.9-1.7-4.1-1.3-6.3.2-2.5 1.5-4.5 4.1-5.4zM111.1 122.6c-.2.1-.3.2-.3.2-.8.6-1.6.7-2.5.4-.9-.4-1-1.2-1.1-2v-11.4c0-.2 0 .2.1-.8h3.8v-3h-4v-5h-3v5.4h-2.6c-.2 0-.5.2-.5.4-.1.7 0 1.2 0 2.2h3.2v12.799999999999999c0 1.6.4 3 1.8 3.8 1.5.9 4.4.7 5.7-.4.2-.1.3-.5.3-.6-.3-.6-.6-1.3-.9-2z"></path>
    </symbol>
    <symbol id="webpack" viewBox="0 0 128 128" >
    <path class="cls-1" fill= "#8ed6fb" d="M117.29,98.1,66.24,127V104.49L98,87,117.29,98.1Zm3.5-3.16V34.55L102.11,45.35V84.16l18.67,10.77ZM10.71,98.1l51,28.88V104.49L29.94,87Zm-3.5-3.16V34.55L25.89,45.35V84.16Zm2.19-64.3L61.76,1V22.76L28.21,41.21l-.27.15Zm109.18,0L66.24,1V22.76L99.79,41.2l.27.15,18.54-10.71Z"></path>
    <path class="cls-2" fill= "#1c78c0" d="M61.76,99.37,30.37,82.1V47.92L61.76,66Zm4.48,0L97.63,82.12V47.92L66.24,66ZM32.5,44,64,26.66,95.5,44,64,62.16,32.5,44Z"></path>
    </symbol>
</svg>
